
<svg width="141" height="640" viewBox="0 0 141 640" fill="none" xmlns="http://www.w3.org/2000/svg">
<g clip-path="url(#clip0_303_5004)">
<path fill-rule="evenodd" clip-rule="evenodd" d="M140.695 155.625C140.493 155.625 139.85 154.447 140.218 154.263C140.218 153.638 140.585 153.325 140.163 152.534C140.273 151.798 139.648 151.319 139.226 150.639C139.502 150.639 139.244 150.436 139.061 150.436C139.061 150.547 139.153 149.608 139.061 149.811C138.638 149.811 138.62 149.13 138.694 148.707C138.822 148.67 139.85 147.658 139.85 148.449C140.144 148.523 140.585 148.707 140.787 148.707C140.842 148.247 140.53 147.842 140.585 147.566C140.585 147.492 140.677 147.603 140.677 147.603C140.677 147.179 140.842 147.032 140.824 146.719C140.824 146.425 140.585 146.241 140.493 145.965C140.401 145.689 139.74 145.505 139.612 145.413C139.612 145.229 139.189 145.027 139.189 145.211C138.877 144.971 138.216 144.272 137.573 144.272C137.573 144.143 136.802 143.904 136.692 143.904L135.425 143.113C135.168 142.819 135.37 142.469 134.948 142.267C134.948 142.359 134.195 141.678 134.103 141.604C133.662 141.273 132.964 140.85 132.377 140.85C132.377 140.555 132.009 140.316 132.009 140.059C132.065 140.059 132.12 139.323 132.083 139.212C131.973 138.955 131.073 138.255 131.073 138.274C130.522 138.108 129.916 137.593 129.237 137.593C129.182 137.501 127.97 137.059 127.768 137.059C127.768 137.059 126.133 136.747 125.84 136.636C125.656 136.581 124.572 136.471 124.572 136.268C124.15 136.268 124.113 135.974 123.691 136.213C123.471 135.477 122.92 136.121 122.479 135.698C122.24 135.459 122.185 135.587 121.873 135.587C121.873 135.44 120.973 135.219 120.716 135.219C120.716 134.631 116.86 134.612 116.53 133.968C116.383 134.005 113.169 133.122 113.169 132.919C112.875 132.919 112.453 132.036 112.012 131.926C112.012 131.539 110.525 131.502 110.708 131.134C110.543 131.134 110.396 131.41 110.396 131.502C109.882 131.392 109.809 131.208 109.864 130.711C109.699 130.674 109.129 130.417 109.129 130.564C108.523 130.362 108.67 129.681 107.826 129.938C107.826 130.012 107.275 130.104 107.201 130.104C107.201 130.049 106.485 130.582 106.412 130.582C106.283 131.042 104.483 130.472 104.483 131.153C104.043 131.521 103.602 132.091 102.996 132.238C102.078 132.459 102.298 133.453 101.6 133.582C101.6 133.968 100.297 134.299 100.297 133.895C100.131 133.968 99.0848 134.907 99.0848 134.943C98.9562 134.943 98.7726 135.459 98.5706 135.146C98.4237 134.907 98.0014 134.87 97.781 134.888C97.781 135.035 95.9263 135.827 95.5774 135.827C93.5575 135.955 91.813 135.9 89.8482 136.011C87.9752 136.121 86.4511 136.231 84.7984 136.305C84.7984 136.397 83.6783 136.471 83.6415 136.415C83.0723 136.526 80.226 137.115 79.8221 136.839C78.757 136.875 77.8756 137.317 76.8473 137.317C76.8473 137.538 70.1999 137.979 70.1999 138.366C67.5556 138.587 64.691 139.543 62.1018 139.709C61.1837 139.764 54.169 140.776 54.169 140.942C53.8385 140.942 51.7635 141.218 51.7635 141.365C51.635 141.328 47.2095 141.899 47.2095 142.046C46.4566 142.101 34.1167 143.978 34.1167 144.346C33.3639 144.346 27.1021 145.505 27.1021 145.818C26.4778 145.818 20.2895 147.327 20.2895 147.492C18.9306 147.492 17.8839 148.431 16.47 148.431C16.47 148.578 12.5219 149.645 12.118 149.645C12.3016 149.093 12.7974 144.346 13.1096 144.346C13.2197 143.996 13.2381 142.395 13.5319 142.395C13.5319 142.248 13.6054 141.42 13.7339 141.347C13.6972 141.402 14.193 140.721 13.8992 140.721C13.9726 140.04 14.2113 140.187 14.2113 139.617C14.2848 139.58 14.5235 138.826 14.5235 138.679C14.9642 138.458 14.597 137.078 15.0928 136.839C15.1662 136.268 15.3315 135.514 15.6253 134.999C15.7355 134.999 15.8273 133.287 16.0476 133.214C16.1394 131.999 16.7271 130.803 16.7271 129.754C16.8005 129.754 16.929 129.092 16.929 128.963C17.0025 128.926 17.6452 128.338 17.6085 128.393C18.3614 128.393 18.9306 127.878 19.6468 127.878C19.6468 127.583 23.4662 127.16 23.4662 126.774C23.8335 126.774 26.4961 125.964 26.4961 125.872C27.249 125.872 27.5061 125.118 28.1672 124.934C28.3875 124.437 29.7464 124.547 30.0953 124.05C30.5727 123.848 33.7128 123.388 33.7128 123.002C34.5391 123.002 35.4389 122.431 36.2285 122.266C36.2285 122.1 38.5422 121.493 38.836 121.419C38.9829 120.794 41.0579 120.812 41.517 120.628C41.7374 120.628 43.7756 119.634 43.7756 119.69C44.0878 119.69 45.263 119.174 45.4099 119.285C45.6119 119.414 46.9892 118.917 47.3748 118.917C47.3748 118.402 48.5867 118.733 48.5867 118.181C49.7619 118.126 50.6801 117.5 51.4697 117.5C51.4697 117.555 53.0489 116.966 53.2509 116.966C53.2509 116.562 55.6381 116.709 55.785 116.267C55.8401 116.083 58.1722 115.513 58.5394 115.439C58.6129 115.292 59.3107 115.237 59.531 115.237C59.531 115.384 60.7613 114.924 60.8899 114.924C60.8899 114.409 63.6076 114.611 63.6076 114.078C63.9198 114.078 66.6375 113.452 66.6375 113.452C67.3904 113.305 67.7209 113.102 68.4738 112.771C68.4738 113.047 71.522 112.201 71.926 112.201C71.926 111.796 74.809 111.925 74.809 111.41C75.3231 111.41 76.4065 111.078 76.8473 111.226C77.1411 111.318 77.5083 110.913 77.8021 110.839C77.9123 111.17 78.6835 111.078 78.6835 111.318C79.6017 111.189 79.767 109.275 79.6201 108.539C79.1426 108.3 78.7019 106.699 78.0959 106.699C78.0959 106.166 78.7019 106.055 78.4081 105.301C78.3163 105.08 78.2796 105.006 78.5183 104.914C78.4265 104.141 78.3163 104.785 78.1878 104.344C78.0776 103.976 77.6369 104.013 77.6369 103.608C77.4349 103.093 77.5818 102.798 77.4716 102.191C77.0493 102.191 76.5718 100.664 77.1594 100.664C77.1594 99.2839 75.8924 98.6582 75.2681 97.5174C75.1212 97.4622 73.8541 96.4318 73.8541 96.4134C73.3216 96.0086 72.5503 95.567 71.9627 95.567C71.9627 95.2174 70.7875 95.1806 70.714 94.6286C70.7691 94.6286 70.5671 93.267 70.4753 93.1566C70.1632 92.7886 69.4837 92.5678 68.9879 92.623C68.8227 91.8318 67.0415 91.6846 66.6375 91.6846C66.6375 91.427 62.7629 91.2246 62.5609 90.8014C61.606 90.8014 60.6512 90.2494 59.733 90.3782C59.6228 90.1574 58.3925 89.8078 58.1171 89.8078C57.7865 89.5686 57.8049 89.7526 57.1255 89.7526C57.0704 89.6422 55.8034 89.127 55.7115 89.1638C55.4361 89.2374 52.9387 88.3542 52.9387 88.4462C52.8102 88.4462 52.4246 88.7038 52.4246 88.5014C51.9839 88.5014 51.7268 88.1518 51.5248 88.7038C51.4513 88.7038 50.9005 89.3294 50.9005 89.4398C50.7352 89.5134 50.8454 89.5502 50.6801 89.6606C50.4781 90.0654 49.4865 89.7526 49.0642 89.7158C48.8438 89.2558 47.9991 90.7278 47.8155 90.875C47.8155 91.4638 46.5852 91.3718 46.4015 91.8134C45.4099 91.8134 44.5285 92.3838 43.4635 92.3838C43.4635 92.4574 41.2599 92.8438 41.0579 92.9174C40.8376 92.9174 37.7159 93.727 37.7159 93.8006C36.4121 93.8006 35.4389 94.6838 34.2636 94.6838C34.0433 95.0702 31.1236 95.1806 31.1236 95.5302C30.132 95.5302 29.0669 96.4134 28.0937 96.4134C28.0937 96.763 26.3125 96.7078 26.3125 96.9838C26.0554 97.131 23.6499 97.683 23.6499 97.8302C23.099 97.8302 22.5481 98.5111 21.9238 98.0878C21.9054 97.7934 22.3645 96.2662 22.1258 96.1374C22.1258 95.8982 22.8419 93.1934 22.695 93.1934C22.695 92.991 22.897 91.6846 23.0623 91.5742C23.0623 90.8198 23.5764 90.323 23.5764 89.679C23.9804 89.679 23.9988 87.011 24.366 86.8454C24.4762 85.8334 24.9353 85.1709 25.1373 84.3429C25.1373 84.3429 25.7433 83.0733 25.6698 83.0733C25.7065 82.8893 25.8167 82.3373 25.9269 82.3373C25.9269 81.7301 26.4043 81.7485 26.6063 81.3437C27.4877 81.2149 28.4242 80.8101 29.324 80.8101C29.324 80.4789 30.4809 80.0557 30.8849 80.1845C30.8849 80.1109 35.4389 79.7613 35.4389 79.3013C35.7143 79.4669 39.0564 78.7309 39.0564 78.5653C39.846 78.5653 40.6539 78.1421 41.5721 78.1421C41.5721 78.0501 44.5102 77.7189 44.7672 77.7189C44.7672 77.2221 47.7788 77.4429 47.9808 76.8541C48.0726 76.5597 49.3763 76.7437 49.3763 76.3389C49.5232 76.3389 50.5883 76.0445 50.5883 76.0261C50.7536 75.9893 51.635 76.0997 51.635 76.1365C52.0022 76.1365 52.3695 75.8789 52.8286 75.8789C53.0856 75.3453 54.5179 75.3453 55.0872 75.3085C55.1423 75.1981 56.0788 74.9957 56.2441 74.9957C56.2441 75.1429 58.2823 74.3333 58.2273 74.2965C58.5394 74.4989 60.6328 73.6525 60.9083 73.6341C61.1286 73.6341 61.6978 73.7813 61.8998 73.6893C62.01 73.5237 62.3589 73.3765 62.5242 73.3765C62.5242 73.3765 63.6627 73.2845 63.6994 73.2845C63.7912 73.3397 65.1501 73.0085 65.1501 72.8981C65.5541 72.8429 66.7293 72.3829 67.0598 72.6405C67.17 72.7325 68.3085 72.4381 68.4554 72.3645C68.4554 72.2909 69.9979 71.8492 70.0897 71.9044C70.3652 72.0884 70.7691 71.794 71.0262 71.7388C71.0262 71.5916 72.0913 71.8125 72.1831 71.7941C72.1831 71.7205 72.991 71.6653 73.1196 71.3708C73.4685 71.3708 76.6269 70.9844 76.6269 70.6348C76.9758 70.6164 78.8305 70.2668 78.8305 70.2668C79.4181 70.4508 80.2995 69.6412 80.9789 69.6412C81.1809 69.3284 82.907 69.4388 82.907 69.1076C83.0723 69.1076 84.8902 69.6044 84.8902 69.31C85.3493 69.5308 85.3493 68.6292 85.5696 68.6292C85.5696 68.5188 85.5696 68.0588 85.4595 68.0588C85.6247 67.3044 85.992 67.7644 85.4778 67.1388C84.8535 66.366 84.4495 65.722 84.6148 64.7652C84.5781 64.3972 84.5964 62.8148 84.5597 62.8148C84.5597 62.4468 83.9721 62.1524 83.7701 61.8396C83.5865 61.5636 82.6316 60.9012 82.6316 60.6252C81.64 60.5332 81.9338 58.5828 81.3829 58.5828C81.3829 57.8283 82.7785 57.2395 82.1174 56.4299C81.7685 56.4299 80.9789 54.6267 80.4831 54.3875C80.4831 53.9275 79.1977 53.2099 78.959 52.7683C78.8305 52.7683 77.5451 51.7747 77.4349 51.6091C77.0493 51.6091 76.9391 51.2043 76.4433 51.2963C76.3882 51.1675 75.7088 50.6339 75.5435 50.5603C75.3966 50.3027 74.9375 49.7139 74.607 49.7139C74.5152 49.5299 74.0561 49.4011 73.8725 49.2907C73.9276 49.0147 74.0194 48.7755 74.0194 48.4995C74.2765 48.0211 73.0278 48.1683 73.0278 47.9291C72.8074 48.0027 72.7891 47.8739 72.5503 47.8187C72.4218 47.3035 71.7975 47.3219 71.4486 47.0827C71.3568 46.9171 70.7875 46.6595 70.6039 46.6595C70.6039 46.2731 66.1049 45.6843 66.1049 45.5003C65.8662 45.3347 64.5808 44.7275 64.5808 45.0771C64.2687 44.8195 61.1286 43.0346 61.0735 43.0898C60.8715 42.8506 59.5127 42.5378 59.5127 42.3538C59.1454 42.3538 57.3091 41.5994 57.3091 42.041C56.8133 42.041 56.1522 42.7402 55.8033 43.0162C55.2892 43.4026 55.6197 43.5682 54.9036 43.5682C54.9036 44.3778 53.2876 43.2922 53.1224 43.9914C52.8102 44.0834 53.0306 44.1202 52.4429 44.3042C52.0757 44.5434 52.3878 44.8746 52.1308 45.1507C52.1308 45.1507 50.3679 45.4635 50.1476 45.4635C50.1476 46.0155 46.4383 46.6595 45.6487 46.8251C45.2814 46.8987 42.0863 47.4875 42.0863 47.7267C40.709 47.7267 39.5522 48.3707 38.0097 48.5179C38.0097 48.8491 34.9247 49.0147 34.9247 49.3643C34.6125 49.3091 32.8497 49.4195 32.6661 49.7875C32.3723 49.7875 29.8565 50.1923 29.6729 50.5235C28.865 50.5235 28.1121 51.0939 27.2674 51.0939C26.7532 51.1675 26.7899 49.2723 26.9001 48.8491C26.9736 48.5363 26.5145 44.5802 26.5329 44.5802C26.6247 44.065 26.2941 40.2194 26.0554 40.2194C25.8167 39.0602 26.0003 37.7722 26.0554 36.3922C25.8902 36.4474 25.8351 36.3922 25.8901 36.5946C25.578 36.5946 25.9452 33.8714 25.7433 33.8714C25.7433 33.5218 25.9085 30.9273 25.6331 30.9273C25.6331 30.5961 25.4311 27.7809 25.2658 27.7809C25.376 26.8241 25.1189 25.6833 25.1189 24.7449C25.3025 24.7449 25.0087 23.5121 25.3209 23.3833C25.3209 23.0337 25.1373 20.1817 25.376 20.1817C25.3025 19.0041 24.8986 17.9184 24.8986 16.8144C24.77 16.8144 24.366 15.6368 24.4211 15.4528C24.2375 15.4528 24.164 14.2384 24.0539 14.2384C23.9804 13.9992 24.0539 12.564 23.9437 12.564C23.9437 12.2696 23.3377 10.9816 22.897 10.9816C22.897 10.7792 22.1625 10.3008 22.0156 10.0616C21.5749 9.36239 20.5098 9.08638 20.1793 8.46078C19.0775 8.33198 18.8021 7.30157 17.6636 7.30157C17.3881 6.67597 15.0377 6.19756 15.0377 5.62716C13.8992 5.40636 13.4034 4.50475 12.0996 4.21035C11.916 3.86075 10.9795 3.91595 10.8509 3.58474C10.4286 3.43754 9.87768 3.14314 9.51043 2.88554C8.66573 2.29673 7.93121 1.59753 6.75599 1.59753C6.75599 1.32153 5.23187 1.85513 5.02988 1.45033C4.36882 1.39513 4.11173 1.32153 3.45067 1.21113C3.06505 1.15593 2.45907 1.50553 2.25708 1.50553C2.25708 1.76313 -0.827894 0.622322 -0.827894 1.45033C-1.06661 1.45033 -2.40711 1.33993 -2.40711 1.13753C-3.63742 1.13753 -4.53721 0.971924 -5.91443 0.971924C-5.91443 0.879924 -5.8777 0.861524 -5.74916 0.916724C-6.18987 0.530321 -8.00779 0.622322 -8.41178 0.714323C-8.41178 0.769523 -10.6337 0.843123 -10.5602 0.971924C-10.9275 0.971924 -11.8456 1.10073 -11.9742 0.603922C-12.3782 0.493521 -12.1395 0.475121 -12.5985 0.493521C-12.5434 0.603922 -12.3415 0.787923 -12.3415 0.861524C-12.4516 0.879924 -12.5618 0.861524 -12.6536 0.806323C-12.672 0.898324 -12.7087 0.953524 -12.7087 1.00872C-12.47 1.00872 -12.1027 1.41353 -11.9191 1.63433C-11.7906 1.70793 -11.5886 2.11273 -11.4967 2.11273C-11.4967 2.94074 -12.9291 2.07593 -13.2229 2.00233C-13.333 2.33353 -13.8656 3.05114 -13.1127 3.27194C-13.0943 3.34554 -12.3047 4.63355 -12.4333 4.63355C-12.3782 4.83595 -11.8824 6.19756 -11.864 6.19756C-11.6987 6.71277 -10.8724 7.39357 -10.8724 7.92718C-10.799 7.98238 -9.77064 8.88398 -9.77064 8.81038C-8.9994 8.90238 -8.55869 9.27039 -7.78744 9.23359C-7.78744 9.61999 -4.70247 10.1168 -4.28012 10.2824C-3.72923 10.3744 -3.30689 10.7056 -2.81109 10.7056C-2.81109 11.0368 -0.258645 11.7544 0.0167983 12.1776C1.02676 12.1776 1.17366 13.6312 1.17366 14.2752C1.17366 14.2752 1.55928 18.5073 1.43074 19.2065C1.35729 19.2065 1.37565 22.6657 1.37565 22.8313C1.3022 23.0889 1.21038 29.8049 1.43074 29.8049C1.43074 31.6634 1.68783 34.1474 1.68783 36.4658C1.52256 36.4658 1.74292 39.7962 1.798 39.7778C1.5042 40.6426 1.88981 47.4323 1.43074 47.4323C1.43074 47.6899 1.10021 51.8851 1.0084 51.8851C0.76968 52.7131 0.843129 53.8907 0.732951 55.0315C0.604411 56.3011 0.549326 56.6139 0.292245 57.8099C0.0718899 57.7731 -1.12171 57.8651 -1.12171 58.0675C-1.56242 58.1043 -5.05137 58.8956 -5.05137 59.006C-5.62062 59.1348 -8.96267 59.742 -9.03612 60.2572C-9.07285 60.2572 -11.6069 60.4964 -11.6069 60.8276C-12.1945 61.0484 -16.2711 61.7476 -16.2711 62.0972C-16.9322 62.0972 -17.4647 62.5388 -18.1625 62.6308C-18.3461 62.9804 -19.4846 63.0724 -19.8335 63.2012C-20.0355 63.606 -21.7249 63.6428 -21.7249 63.8268C-22.0003 63.8268 -23.5612 64.3788 -23.653 64.6732C-23.7448 64.6732 -23.7632 64.6364 -23.7081 64.5076C-24.7731 64.8388 -25.7831 65.446 -26.738 65.446C-26.738 65.6484 -29.3639 66.3292 -29.8229 66.3292C-29.8229 66.5132 -34.0831 67.7276 -34.377 67.6356C-34.4871 67.8748 -35.7358 68.0772 -35.7358 68.114C-36.1582 67.9484 -36.8376 68.482 -37.315 68.482C-37.315 68.6108 -40.8774 69.6044 -41.3549 69.6412C-41.3549 69.8804 -43.9808 70.4876 -44.3297 70.4876C-44.3297 70.6348 -48.5715 71.7573 -48.9388 71.7573C-48.9388 72.0333 -52.9235 72.4013 -52.9235 72.6957C-54.1171 72.6957 -55.329 73.4133 -56.6512 73.4869C-56.6512 73.5973 -59.3138 73.7997 -59.6811 73.7997C-59.6811 74.3333 -66.053 74.2045 -67.0079 74.1677C-69.5603 74.1125 -71.9842 73.6341 -74.555 73.7445C-74.4999 73.8549 -73.894 74.7933 -73.9307 74.7933C-73.8572 75.1797 -73.5818 76.0445 -73.086 76.0445C-73.086 76.5781 -71.213 78.4549 -70.6254 78.4549C-70.0928 79.1357 -68.5871 79.7613 -67.6322 80.0741C-67.6322 80.4973 -65.4837 80.9205 -65.4837 81.4357C-64.6574 81.4357 -63.9229 82.4109 -63.1333 82.6501C-63.1333 82.8893 -60.3238 83.7541 -60.0483 83.7541C-60.0483 83.7173 -58.616 84.3245 -58.5242 84.3245C-58.3406 84.6741 -56.5961 84.6925 -56.5961 85.0605C-55.7147 85.0605 -54.9985 85.907 -54.1905 85.907C-54.1905 86.2934 -50.0773 87.9494 -49.6365 87.9494C-49.6365 88.2622 -46.6434 89.1638 -46.2761 89.1086C-46.0007 89.5134 -43.4482 90.0838 -43.4482 90.2678C-42.4015 90.4886 -41.6854 91.0222 -40.6203 91.2062C-40.6203 91.4822 -39.0411 91.4454 -38.9493 91.6294C-38.4352 91.6294 -38.0312 92.163 -37.4252 92.163C-37.4252 92.3102 -36.1031 92.4206 -36.0113 92.4206C-36.0113 92.4574 -34.6524 93.0646 -34.4688 93.083C-34.3035 93.1014 -32.6692 93.5246 -32.6692 93.6718C-32.0265 93.6718 -31.292 93.7454 -30.7411 93.9294C-30.7411 93.9478 -27.4725 94.3526 -27.1236 94.4078C-27.1236 95.015 -24.1304 94.9046 -23.6714 94.831C-23.6714 94.8126 -18.1074 94.4998 -18.2727 94.1502C-17.3545 94.2422 -11.5702 93.5614 -11.5702 92.991C-10.4684 92.991 -9.71555 92.623 -8.52196 92.3654C-8.52196 92.1262 -7.10801 92.1998 -7.10801 91.887C-6.97947 91.8686 -5.41863 91.4822 -5.82261 91.8686C-5.91443 91.9606 -5.67571 92.5678 -5.91443 92.5678C-5.91443 94.8494 -6.85093 97.407 -6.64894 99.4311C-7.19982 99.4311 -7.40183 104.988 -7.75072 104.988C-7.78745 105.614 -7.86089 107.987 -8.43014 107.987C-8.43014 108.153 -10.6521 108.778 -10.9459 108.778C-10.9459 109.036 -15.4264 110.306 -16.0875 110.398C-16.0875 110.582 -21.0638 112.127 -21.4862 112.127C-21.4862 112.293 -25.3791 113.599 -25.8382 113.599C-26.0402 114.022 -28.2437 114.17 -28.2437 114.501C-29.0517 114.501 -29.7495 115.182 -30.5575 115.182C-30.5575 115.402 -33.5506 116.23 -33.9546 116.23C-33.9546 116.598 -37.6272 116.893 -37.6272 117.224C-38.3066 117.224 -44.4398 119.009 -44.4398 118.843C-44.9724 118.843 -51.3443 119.91 -51.3443 119.469C-52.0604 119.34 -53.1255 119.469 -53.9335 119.542C-54.5027 119.598 -55.4209 119.506 -55.7881 119.616C-55.7881 119.69 -57.8999 119.046 -58.0468 119.046C-57.8448 119.358 -56.4308 119.561 -56.4308 119.929C-55.8248 120.094 -54.0804 120.904 -53.9702 121.511C-54.9251 121.677 -55.8983 121.382 -56.6879 121.511C-56.4492 121.787 -55.9167 122.247 -55.5861 122.247C-55.4759 122.486 -54.3925 123.112 -54.1171 123.186C-53.8967 123.94 -51.8217 125.357 -51.0872 125.541C-50.8118 125.982 -48.902 127.123 -48.4613 127.123C-48.4613 127.712 -45.8905 128.172 -45.6334 128.706C-45.2845 128.816 -42.071 130.159 -42.071 130.325C-41.1161 130.509 -40.0878 131.686 -39.1329 131.686C-39.1329 132.202 -35.6256 132.478 -35.6256 133.103C-35.5338 133.067 -32.1183 134.134 -32.1183 134.355C-30.9982 134.355 -29.621 135.293 -28.5559 135.293C-28.5559 135.661 -23.2307 135.661 -22.6981 135.495C-22.184 135.33 -18.7134 135.532 -18.7134 135.827C-17.7218 136.029 -17.0791 135.551 -16.1977 135.771C-16.1977 136.011 -13.8839 135.716 -13.5718 135.716C-13.6819 136.636 -14.9306 144.64 -15.0959 144.64C-15.0959 146.535 -16.1426 148.394 -16.1426 150.197C-16.3997 150.197 -17.5565 155.367 -17.6116 155.975C-18.2359 156.269 -17.5749 157.391 -18.9154 157.391C-18.9154 157.649 -23.047 158.495 -23.6714 158.698C-24.7915 158.698 -25.8015 159.544 -26.8665 159.544C-26.8665 159.692 -29.8413 160.538 -30.1718 160.538C-30.1718 160.704 -35.442 162.323 -35.8827 162.323C-35.8827 162.525 -41.3549 164.31 -41.9608 164.31C-41.9608 164.549 -46.7903 166.04 -47.2494 166.04C-47.2494 166.279 -52.2441 167.824 -52.795 167.824C-52.795 168.468 -57.8264 168.91 -57.8264 169.499C-59.5525 169.499 -61.5357 171.173 -63.3353 171.173C-63.3353 171.265 -66.7691 172.24 -67.0997 172.332C-67.0997 172.535 -69.5603 173.234 -69.9276 173.271C-69.9276 173.547 -75.5466 175.35 -76.1159 175.424C-76.1159 175.718 -80.8351 177.356 -81.5146 177.466C-81.5146 177.779 -85.9768 179.324 -86.6011 179.453C-86.6011 179.803 -91.0817 181.275 -91.5775 181.404C-91.5775 181.974 -95.3969 182.287 -95.3969 182.82C-96.1131 182.82 -96.9394 183.556 -97.6923 183.556C-97.6923 183.63 -99.5837 184.237 -99.7306 184.237C-99.7306 184.844 -103.807 185.176 -103.807 185.764C-104.45 185.912 -108.839 187.31 -108.839 187.752C-109.371 187.752 -114.549 189.5 -114.549 189.647C-114.88 189.647 -117.8 190.806 -117.8 190.953C-119.287 191.45 -120.095 192.573 -121.619 192.738C-121.491 192.941 -124.061 194.302 -124.502 194.302C-124.502 194.928 -127.991 195.093 -128.009 195.296C-127.33 195.369 -126.632 195.774 -125.971 195.774C-125.971 196.087 -127.771 196.345 -128.065 196.345C-127.679 197.025 -126.247 197.761 -125.439 197.761C-124.998 198.442 -123.309 199.325 -122.611 199.325C-122.611 199.841 -119.783 200.19 -119.783 200.54C-118.553 200.54 -117.175 201.46 -115.963 201.589C-115.963 202.03 -112.566 202.325 -112.566 202.637C-112.217 202.582 -109.793 202.987 -109.793 202.95C-109.316 202.95 -101.108 204.036 -101.108 203.889C-100.245 203.889 -99.4184 203.999 -98.6472 203.999C-98.6472 204.33 -96.8109 203.907 -96.7191 203.944C-96.7191 203.999 -93.4688 203.889 -93.4688 204.146C-93.2301 204.054 -92.6425 204.293 -92.312 204.293C-92.312 204.293 -91.1735 203.852 -91.1 203.87C-91.1551 203.87 -91.1735 203.87 -91.1551 203.815C-89.9248 203.852 -88.6578 204.091 -87.4458 203.925C-87.4458 203.815 -85.8299 204.496 -85.7197 204.293C-85.1137 204.349 -83.8834 204.109 -83.3141 203.778C-82.9469 203.097 -80.8535 203.245 -80.1741 203.153C-80.1741 202.969 -78.8703 202.104 -78.65 202.104C-78.65 201.938 -77.9154 201.662 -77.9154 201.423C-77.5849 201.423 -76.5566 201 -76.5566 200.687C-76.171 200.613 -74.2061 199.988 -74.2061 199.693C-73.6185 199.749 -73.0493 199.307 -72.4249 199.16C-71.2864 198.902 -70.2765 198.258 -69.1196 198.111C-68.7523 197.633 -67.4669 197.43 -66.9161 197.43C-66.9161 197.467 -65.7776 197.007 -65.6123 197.007C-65.6123 196.584 -62.9497 196.621 -62.9497 196.161C-62.6742 196.161 -60.2687 195.351 -60.2687 195.167C-59.4423 195.167 -58.5058 194.376 -57.6979 194.376C-57.4959 193.953 -56.137 193.695 -55.6596 193.64C-55.6596 193.695 -54.3007 193.125 -54.2456 193.125C-54.2456 192.738 -51.0505 192.37 -51.0505 192.021C-50.4629 191.91 -46.5516 190.733 -46.5516 190.291C-46.0925 190.291 -43.1544 189.573 -43.1544 189.187C-42.7137 189.389 -41.5752 188.709 -41.1161 188.617C-41.1161 188.617 -40.1245 188.506 -39.9593 188.193C-38.729 188.193 -37.8475 187.347 -36.654 187.347C-36.452 186.942 -34.7809 187.145 -34.5606 186.721C-33.8261 186.721 -33.4037 186.243 -32.7794 186.243C-32.5958 185.912 -30.6676 185.452 -30.2637 185.452C-30.2637 185.415 -27.3256 184.568 -27.0685 184.458C-25.8566 183.924 -26.9767 186.077 -26.9583 186.077C-26.9583 186.574 -28.2437 190.07 -28.4825 190.07C-28.4825 190.788 -29.419 191.671 -29.419 192.333C-29.7862 192.333 -30.2269 194.707 -30.6309 194.909C-30.6676 195.185 -31.1267 196.363 -31.3103 196.437C-31.1634 196.86 -31.9898 197.485 -31.9898 197.964C-32.2285 197.964 -33.6608 201.11 -33.6608 201.368C-33.973 201.368 -34.1199 203.005 -34.4871 203.005C-34.4871 203.41 -36.3785 207.311 -36.6907 207.311C-36.6907 207.808 -37.2967 208.268 -37.4803 208.838C-37.517 208.838 -38.4719 210.457 -38.4719 210.623C-38.5453 210.623 -38.986 211.396 -38.986 211.506C-39.133 211.782 -39.2248 211.929 -39.3533 212.187C-39.3349 212.187 -40.6203 212.739 -40.6203 212.757C-40.8591 212.757 -43.5401 213.365 -43.5401 213.549C-43.8339 213.549 -46.0007 214.119 -46.0007 214.229C-46.2394 214.285 -47.1392 214.432 -47.2677 214.653C-47.5799 214.653 -48.902 215.278 -49.0673 215.168C-49.4162 214.966 -50.6465 215.702 -51.0872 215.702C-51.2341 215.996 -53.456 216.548 -53.9151 216.548C-53.9151 216.658 -53.86 216.548 -53.86 216.658C-54.466 216.456 -59.5709 218.259 -59.5709 218.388C-60.5992 218.388 -61.4806 219.326 -62.6008 219.326C-62.6008 219.529 -65.5205 220.32 -65.851 220.375C-65.851 220.633 -70.405 222.123 -70.9926 222.27C-70.9926 222.473 -73.8389 223.338 -74.2429 223.485C-74.2429 223.908 -76.7035 224.074 -76.7035 224.478C-78.0256 224.662 -79.1825 225.895 -80.3761 225.895C-80.4679 226.098 -81.4779 226.521 -81.7349 226.521C-81.9002 226.889 -83.5712 227.165 -83.5712 227.57C-83.9568 227.57 -85.6279 228.563 -85.8299 228.931C-86.1053 228.931 -87.1336 229.667 -87.4091 229.888C-88.9699 231.213 -91.1735 231.581 -93.2668 231.489C-93.3219 231.857 -93.5607 232.832 -92.9547 232.961C-93.3403 232.906 -93.4505 232.961 -93.3219 233.163C-93.0649 233.09 -93.0281 233.182 -93.175 233.439C-93.3219 233.991 -92.9363 233.752 -92.6976 233.789C-92.6976 234.046 -91.4856 233.881 -91.4856 234.102C-90.5308 234.102 -89.4657 235.04 -88.2905 235.04C-88.2905 235.39 -84.7281 236.512 -84.4159 236.512C-84.4159 236.714 -80.8719 237.046 -80.5413 237.046C-80.4679 237.174 -78.705 237.469 -78.5031 237.469C-78.3011 237.874 -76.5199 237.487 -76.3546 237.634C-76.2261 238.039 -74.096 238.15 -74.096 238.26C-73.6552 238.297 -73.1411 238.334 -72.7187 238.462C-72.5535 238.518 -71.5251 238.573 -71.5251 238.26C-71.4517 238.26 -70.4785 238.039 -70.4785 238.205C-69.9092 238.426 -69.4501 237.69 -68.6973 237.726C-68.0729 237.726 -67.7424 237.119 -67.2833 237.119C-67.2833 236.714 -64.5656 236.383 -64.5656 235.647C-64.3636 235.426 -63.5005 235.408 -63.3536 234.856C-62.9497 234.801 -61.5173 234.157 -61.2603 233.862C-60.7645 233.862 -60.1034 233.182 -59.4791 233.182C-59.3322 232.906 -58.6344 233.016 -58.3773 232.666C-58.0651 232.666 -55.5494 231.82 -55.5494 231.765C-54.5211 231.765 -53.5662 230.9 -52.6113 230.716C-52.6113 231.213 -54.5945 233.494 -54.9618 233.494C-55.0169 233.715 -55.9534 234.856 -56.1737 234.911C-56.3023 235.353 -56.945 236.015 -57.2755 236.218C-57.2755 236.586 -58.1569 236.917 -58.2671 237.377C-58.5242 237.377 -59.2954 238.407 -59.5525 238.665C-60.691 239.806 -61.9581 241.112 -62.9864 242.437C-63.1517 242.658 -64.2351 243.32 -64.2351 243.559C-64.8043 243.817 -65.1532 245.142 -65.7592 245.142C-65.9428 245.786 -67.1915 246.283 -67.5955 246.982C-68.0729 246.982 -68.532 248.104 -68.9911 248.288C-69.3032 248.417 -70.3316 249.3 -70.4785 249.613C-70.8274 249.871 -72.0577 250.735 -72.1495 251.14C-72.48 251.214 -72.7922 251.876 -73.0309 251.876C-73.0309 252.318 -74.757 253.201 -75.0141 253.606C-75.1977 253.606 -76.7035 254.931 -76.7953 255.225C-77.2544 255.225 -78.1174 256.237 -78.4296 256.587C-78.7969 256.679 -79.8068 257.47 -79.8986 257.801C-80.5781 257.801 -81.1657 259.163 -81.8267 259.163C-81.8267 259.475 -84.673 261.426 -84.7648 261.426C-84.7648 261.573 -86.4909 262.898 -86.748 262.898C-87.0785 263.339 -87.8498 264.02 -88.3639 264.167C-88.5108 264.443 -89.7228 265.474 -90.0533 265.437C-90.3288 265.437 -92.0365 266.78 -92.1834 267.038C-92.5874 267.387 -93.4138 267.682 -93.6525 268.142C-93.7994 268.142 -95.1766 269.117 -95.1766 269.246C-95.5071 269.246 -96.6273 270.111 -96.8476 270.405C-97.27 270.405 -97.7658 271.031 -98.3166 271.196C-98.3166 271.38 -99.9142 272.245 -100.153 272.245C-100.465 272.926 -102.136 272.889 -102.448 273.496C-102.705 273.496 -103.862 274.012 -104.028 274.288C-104.56 274.288 -105.295 274.895 -105.919 275.079C-106.121 275.484 -107.847 275.741 -107.847 276.128C-107.994 276.128 -108.637 276.44 -108.637 276.551C-109.463 276.551 -110.418 277.71 -111.152 277.71C-111.263 277.931 -112.309 278.152 -112.566 278.391C-112.566 278.648 -114.825 279.237 -114.825 279.55C-115.339 279.55 -115.67 280.065 -116.202 280.157C-116.882 280.286 -117.23 280.893 -118.075 281.059C-118.332 281.445 -119.269 281.28 -119.379 281.629C-119.691 281.629 -121.197 282.163 -121.307 282.42C-121.564 282.42 -122.537 282.788 -122.666 283.046C-123.382 283.175 -123.896 283.543 -124.594 283.782C-127.091 284.628 -129.001 285.64 -131.554 286.358C-131.554 287.002 -139.193 287.72 -140.147 287.885C-139.743 288.235 -137.319 287.315 -137.319 287.996C-136.714 287.996 -136.53 288.143 -136.016 288.198C-136.016 288.272 -134.914 287.848 -134.914 288.143C-133.812 288.364 -134.785 288.676 -134.859 289.247C-134.675 289.247 -133.647 289.118 -133.647 288.989C-132.949 288.842 -132.325 289.081 -131.756 288.934C-131.756 289.412 -131.223 289.504 -130.966 289.504C-130.966 289.707 -130.966 289.633 -130.856 289.707C-130.856 289.707 -127.55 288.805 -126.871 288.713C-126.724 289.32 -126.871 288.732 -126.871 288.971C-125.806 288.879 -125.934 288.64 -125.934 289.504C-125.218 289.431 -120.775 287.168 -120.646 287.83C-119.709 287.517 -118.571 286.358 -117.671 286.358C-117.377 286.211 -114.586 285.567 -114.586 284.941C-112.383 284.426 -110.84 282.936 -108.839 282.365C-108.839 282.052 -106.433 281.5 -106.433 281.114C-106.286 281.114 -104.909 280.415 -104.909 280.378C-104.432 280.268 -103.256 279.881 -103.018 279.44C-102.687 279.219 -101.604 279.44 -101.604 279.329C-101.108 279.329 -100.612 278.777 -100.061 278.667C-98.941 278.428 -98.2432 277.324 -97.1047 277.066C-97.1047 276.9 -96.0947 276.606 -95.9478 276.532C-95.654 275.944 -94.6257 276.054 -94.4237 275.686C-93.7626 275.465 -93.0832 274.932 -92.4772 274.582C-92.1834 274.398 -90.8613 273.809 -90.8613 273.588C-90.5308 273.588 -88.4558 272.411 -88.4558 272.227C-88.2354 272.227 -87.354 271.62 -87.354 271.436C-86.7113 271.27 -86.4175 270.828 -85.8299 270.7C-85.2606 269.89 -83.663 270.056 -83.1122 269.172C-82.9836 269.172 -80.9086 267.995 -80.9086 268.013C-80.2292 268.013 -79.9354 266.909 -79.0723 266.909C-78.7234 266.431 -78.2827 266.725 -78.0256 266.283C-78.2276 266.063 -76.2077 265.805 -76.1342 265.805C-76.1342 264.959 -74.353 265.069 -74.096 264.609C-73.8205 264.37 -72.6086 263.947 -72.3147 264.039C-72.3147 263.836 -70.7355 263.505 -70.7355 263.045C-70.2948 263.174 -69.9827 262.861 -69.4318 262.787C-69.4318 262.787 -68.2749 261.794 -68.2749 262.217C-68.1464 262.254 -67.4486 261.923 -67.3751 261.794C-66.8059 261.683 -66.4019 261.757 -65.8143 261.683C-65.8143 261.996 -66.3835 261.757 -66.3835 262.107C-65.9612 262.088 -63.0782 261.426 -63.0782 261.426C-62.6191 261.279 -59.4056 259.917 -59.4056 260.855C-59.2954 260.819 -56.6879 260.23 -56.6879 260.064C-56.2839 260.064 -54.1171 259.77 -53.9151 259.383C-52.9419 259.199 -51.8952 258.022 -50.977 258.022C-50.977 257.875 -50.1323 257.525 -50.0405 257.599C-49.71 257.047 -48.7184 257.267 -48.3695 256.918C-48.241 257.139 -48.3695 256.918 -48.3695 257.083C-48.1675 257.028 -47.9839 256.955 -47.8003 256.881C-47.7084 256.476 -47.6533 256.807 -47.3779 256.715C-47.3779 256.623 -46.9739 256.439 -46.9005 256.292C-46.6434 256.237 -45.7436 255.998 -45.7436 255.667C-45.3213 255.667 -44.8071 255.188 -44.5867 255.243C-44.3113 254.82 -43.8522 254.857 -43.5401 254.397C-43.4482 254.268 -42.9157 254.103 -42.7504 253.937C-42.7504 253.9 -42.3465 253.753 -42.1812 253.735C-42.1812 254.379 -41.5201 253.532 -41.2998 253.532C-41.2998 253.127 -38.2148 251.435 -38.2148 251.95C-37.8292 251.747 -37.1314 251.508 -36.8743 251.14C-36.654 250.846 -35.442 249.999 -35.0197 249.999C-35.0197 249.889 -34.1566 249.723 -34.175 249.723C-34.0097 249.723 -33.8261 249.447 -33.7893 249.319C-33.6057 248.767 -33.6057 249.098 -33.2385 249.098C-33.2385 249.208 -31.953 248.104 -31.8245 247.515C-31.953 247.571 -31.9898 247.552 -31.9898 247.46C-31.8796 247.497 -31.8429 247.46 -31.8796 247.35C-31.2553 247.534 -31.3838 247.405 -30.9431 247.037C-30.9431 247.074 -30.4106 246.651 -30.4106 246.522C-30.1535 246.522 -28.9966 245.363 -28.9966 245.05C-28.7946 244.903 -28.1703 244.203 -28.005 244.203C-28.005 243.762 -27.2705 243.431 -27.1052 243.099C-26.6094 243.099 -26.334 241.682 -25.7464 241.682C-25.6362 240.873 -24.9751 240.983 -24.9568 240.211C-24.5161 240.082 -24.461 239.438 -24.0203 239.309C-24.0203 238.904 -23.7265 238.702 -23.451 238.518C-23.451 238.518 -22.4961 236.935 -22.2942 236.843C-22.1656 236.641 -21.174 235.96 -21.3026 235.592C-21.0822 235.592 -19.8335 233.218 -19.8335 233.494C-19.5213 233.402 -19.099 232.538 -19.099 232.225C-19.0256 232.078 -18.6399 231.802 -18.5297 231.802C-18.493 231.636 -18.2176 230.9 -18.1074 230.863C-17.4831 230.624 -17.1893 228.434 -16.5833 228.434C-16.7853 227.662 -15.1142 227.018 -15.1142 226.079C-14.6735 225.822 -14.8572 224.239 -14.2696 224.239C-14.2328 224.092 -13.1311 222.565 -13.1678 222.565C-13.076 222.068 -12.5434 222.142 -12.5434 221.626C-12.3414 221.516 -12.3782 221.222 -12.3782 221.093C-12.1762 221.093 -11.5886 220.909 -11.5886 220.67C-10.8724 220.67 -9.66047 219.786 -9.12794 220.044C-8.8525 219.621 -7.512 219.492 -6.8693 219.418C-6.83257 219.308 -4.99628 218.48 -4.92283 218.48C-4.92283 218.517 -2.55401 217.854 -2.09494 217.854C-2.09494 217.505 2.09182 217.118 2.1469 216.603C2.6427 216.603 3.4323 216.033 3.9281 216.235C4.29535 215.518 6.554 216.051 6.75599 215.242C7.08652 215.426 10.0062 214.671 10.0062 214.671C10.5755 214.671 14.0461 213.714 14.0461 213.457C14.395 213.401 15.0377 213.383 15.0377 212.923C15.3866 212.923 14.9459 213.236 15.5151 213.236C15.7171 213.328 15.662 213.291 15.8824 213.291C15.8824 213.218 17.3514 212.978 17.4983 212.978C17.6819 212.721 19.0591 212.905 18.9122 212.445C19.3897 212.537 21.7401 212.169 21.7401 211.709C22.0523 211.801 23.5764 211.028 23.5764 211.598C23.7968 211.488 24.2008 211.341 24.2008 211.028C24.5313 211.101 24.366 211.433 24.7333 211.285C24.8435 211.249 25.0271 211.028 25.1006 211.028C24.7517 210.31 25.4494 210.917 25.78 210.917C25.78 210.862 25.7065 210.733 25.6698 210.752C25.7065 210.752 26.2391 210.494 26.4594 210.494C26.4227 210.421 26.4043 210.365 26.4043 210.292C26.6247 210.347 27.7815 210.218 27.8917 209.942C28.0386 209.556 28.663 210.145 28.8649 210.145C28.8649 209.482 29.7464 209.519 30.2789 209.464C30.2238 209.648 29.8933 209.887 30.2789 209.887C30.2789 209.464 30.3891 209.887 30.3891 209.464C30.6462 209.501 31.7663 209.206 31.9132 208.985C32.5192 208.893 33.0701 208.249 33.4924 208.249C33.4924 208.378 33.6026 208.433 33.6026 208.562C33.8229 208.452 33.7678 208.231 34.0433 208.268C34.3004 208.305 34.7044 208.452 34.7044 208.047C35.0165 208.047 36.6141 207.661 36.6508 207.992C37.1466 207.863 36.963 207.458 37.5873 207.311C37.5873 207.366 37.8077 207.421 37.8444 207.421C37.8444 207.348 38.1566 207.293 38.23 207.311C38.5055 207.385 38.4688 207.789 38.4137 208.047C38.9095 207.955 38.7258 207.789 39.038 207.789C38.9095 207.201 39.1482 207.826 39.038 207.311C38.7442 207.403 38.8544 207.477 38.4688 207.477C38.4688 206.925 40.5254 206.814 40.9294 206.63C40.9845 206.722 40.9845 206.796 40.9294 206.888C41.2048 206.833 41.3701 206.888 41.2967 206.575C41.9394 206.52 42.4352 206.005 42.8575 206.005C42.9677 206.483 42.8024 206.005 42.8024 206.317C43.188 206.17 42.8024 206.317 43.0044 206.317C43.0044 206.244 42.9309 206.225 42.986 206.17C42.9677 206.189 43.1329 206.17 43.1697 206.17C42.8759 205.618 43.1146 206.133 43.1146 205.913C43.4267 206.06 44.1429 205.71 44.4734 205.71C44.4734 205.894 44.5836 205.747 44.5285 205.968C44.6938 205.968 44.7489 205.876 44.7489 205.71C45.0243 205.784 45.0427 205.655 45.1161 205.397C45.2263 205.434 45.9241 205.581 45.9057 205.563C45.7221 205.563 45.869 205.821 45.6487 205.821C45.6487 205.361 45.2814 206.133 45.0794 206.133C45.0794 206.06 45.0794 205.876 44.9692 205.876C44.9509 206.005 44.1613 206.759 44.7672 206.538C44.8407 206.52 45.3549 206.593 45.4834 206.612C45.5201 206.538 45.5385 206.483 45.5385 206.409C46.1812 206.575 47.2279 206.097 47.8889 205.986C47.8889 205.986 49.1927 205.048 49.4131 204.993C49.4131 205.913 49.9456 204.864 50.0925 204.735C50.0925 204.735 50.5148 204.275 50.5148 204.459C50.8086 204.459 50.8821 204.293 51.1392 204.293C51.1392 204.459 50.6801 205.048 51.2677 204.901C51.635 204.809 51.837 204.68 52.1859 204.606C52.1859 204.937 53.1224 204.257 53.1224 203.815C53.1958 203.797 53.3427 203.925 53.4345 203.925C53.3427 203.447 53.8018 203.76 54.169 203.76C53.8385 204.349 54.169 204.109 54.4261 203.925C54.5363 204.165 54.4261 203.925 54.4261 204.091C55.2892 204.091 55.8033 203.723 56.7215 203.723C56.7215 203.484 58.8149 203.042 58.8149 203.3C59.4208 203.097 59.8065 203.392 60.4859 203.245C60.7613 210.494 61.6428 217.174 61.6428 224.184C61.8998 224.184 61.9549 233.494 61.9549 234.782C62.0835 234.782 62.414 245.639 62.5793 245.639C62.5793 253.275 63.222 259.715 63.2954 267.627C63.3138 270.46 63.4791 273.901 63.3689 276.532C63.2954 276.532 63.1669 279.035 63.1669 279.164C63.0567 279.164 63.02 280.268 63.0016 280.378C62.5976 280.415 62.2671 280.636 61.8448 280.636C61.8448 280.838 59.935 280.875 59.7514 280.893C58.2456 281.077 56.5195 281.004 55.2525 280.691C55.2525 281.022 46.4015 279.844 45.5201 279.844C45.5201 279.587 38.1015 279.458 37.3119 279.44C33.3455 279.311 29.324 279.532 25.3393 279.532C22.3094 279.532 19.9038 278.685 17.1494 278.225C17.3698 278.483 18.5083 278.593 18.6368 278.814C18.6368 278.832 19.9957 279.752 19.9773 279.734C20.2711 280.268 22.3828 281.519 22.9521 281.519C22.9521 281.795 22.5848 281.832 22.3828 281.776C22.4747 282.108 24.2559 282.034 24.4762 282.034C24.4762 282.071 24.9169 282.2 25.0087 282.2C24.8802 282.549 25.174 282.586 25.376 282.899C25.4678 283.046 26.386 283.101 26.643 283.101C27.1021 283.653 26.6981 283.524 26.643 284.095C27.0837 284.168 31.3623 284.168 31.3623 284.518C31.5092 284.518 32.611 284.61 32.611 284.684C33.1986 284.684 34.1902 284.776 34.7594 284.996C34.8696 285.217 36.155 285.364 36.4305 285.364C36.4305 285.659 38.3219 286.082 38.3219 286.1C39.7909 286.468 41.2599 286.836 42.931 287.462C43.2615 287.462 46.6403 288.327 46.6403 288.768C46.8055 288.768 47.7237 288.989 47.7971 289.136C48.0909 289.228 49.762 289.615 49.8905 289.872C50.1843 289.872 51.3412 290.314 51.4146 290.553C52.1675 290.7 52.6633 290.811 53.306 291.344C53.306 291.344 54.9954 292.632 55.1423 292.651C55.381 293.093 56.3175 292.982 56.4828 293.497C56.4828 293.497 57.1071 294.104 57.1806 294.123C57.1438 294.252 57.0888 294.381 57.0337 294.491C57.5478 294.491 57.3458 294.969 57.86 294.969C58.8149 294.969 57.7865 295.429 58.1171 295.816C58.3742 296.128 59.2372 296.552 59.3474 297.067C60.0819 297.067 60.339 298.852 60.339 299.22C60.339 299.22 59.9717 300.213 60.2288 300.213C60.2288 300.931 61.4408 301.52 61.4408 302.311C61.606 302.348 62.4875 303.489 62.4875 303.673C62.0835 303.673 62.9098 304.887 62.9098 305.034C63.02 305.034 63.0383 305.384 63.222 305.457C63.3138 306.009 63.3322 306.469 63.3322 306.985C63.2771 306.985 63.5892 307.353 63.5892 307.297C63.3872 307.297 63.4423 307.463 63.6443 307.463C63.7545 307.978 63.9198 307.886 64.4339 307.831C64.4339 308.107 65.2786 307.941 65.3153 307.941C65.3153 308.457 66.8395 307.886 67.2435 308.052C67.2435 308.383 68.0514 308.291 68.0331 307.518C68.5472 307.684 68.5289 307.187 68.7492 307.905C68.9328 308.493 69.2266 308.677 69.7041 308.567C70.2182 308.567 71.2099 307.794 71.0079 308.88C71.1364 308.953 71.4669 309.616 71.4669 309.726C71.5771 309.708 71.7791 309.505 71.7791 309.616C72.3116 309.469 72.0178 310.168 72.5136 309.984C72.6972 309.91 73.2298 309.064 73.6705 309.597C73.7623 309.708 74.3499 309.266 74.5886 309.413C74.5886 309.321 77.4165 308.383 77.3798 309.377C77.3798 309.689 77.6736 310.076 77.6736 310.425C77.7103 310.425 77.8021 310.757 77.8389 310.849C78.0959 310.849 78.1143 310.665 78.4081 310.591C78.5183 309.561 79.3446 310.628 80.024 310.591C80.024 310.701 80.226 311.382 80.3362 311.382C80.3362 311.695 80.9606 311.805 80.9606 311.75C81.3829 311.75 81.7869 312.045 81.9522 311.419C82.0991 310.867 82.5398 310.701 82.1725 310.057C82.2827 310.057 82.3194 310.002 82.3194 309.892C82.5398 309.947 82.8336 310.278 82.7969 310.425C83.2192 310.389 83.1641 310.168 83.4212 310.057C83.4579 309.837 83.513 309.156 83.5314 309.156C83.3845 308.861 83.9721 308.659 83.9537 308.309C83.8068 308.309 83.8435 307.408 83.8435 307.408C83.8803 307.169 84.4311 306.782 84.7433 306.782C84.8535 306.414 85.0004 306.488 85.0004 305.991C85.3126 305.899 85.1657 305.016 85.2575 304.685C85.184 304.685 85.9369 301.446 85.9369 301.115C85.9369 301.115 86.396 298.079 86.194 298.079C86.4143 297.177 86.1573 295.742 86.4511 295.135C86.1205 295.135 86.7632 292.338 86.6898 292.283C86.4327 292.044 86.6163 289.21 86.7081 289.21C86.7081 287.977 86.4327 286.671 86.5429 285.328C86.4327 284.868 86.1573 278.354 86.1205 278.354C86.1205 277.876 85.9736 274.895 85.8084 274.895C85.8084 273.257 85.7349 272.172 85.6247 270.718C85.5329 269.448 84.8719 256.991 84.8168 256.991C84.78 256.734 84.7249 255.409 84.6515 255.409C84.6515 255.078 84.3944 253.9 84.5413 253.679C84.5413 253.054 84.4312 252.723 84.4312 252.06C84.2842 252.06 84.3577 249.631 84.321 249.429C84.3761 248.859 84.523 244.24 84.4862 244.24C84.4862 242.989 84.0088 241.756 84.0088 240.523C83.9353 240.523 84.0088 237.726 84.0088 237.634C84.0088 237.009 83.2008 231.286 83.3294 231.286C83.5314 230.09 83.4396 229.115 83.3845 227.717C83.2559 227.717 82.9621 225.748 82.9621 225.454C82.7418 225.454 82.7785 222.933 82.6499 222.933C82.6867 222.822 82.448 221.148 82.5398 221.148C82.5398 220.78 82.9988 220.118 82.7969 219.529C82.4112 219.529 82.5765 216.327 82.2643 216.327C82.0991 215.775 81.7134 211.617 82.1358 211.249C82.4296 210.991 82.0256 207.937 81.9338 207.808C81.64 207.366 81.8787 203.005 81.64 203.005C81.7318 202.269 82.503 202.49 83.0539 202.49C83.0539 202.49 85.4962 202.49 85.8635 202.435C87.0938 202.306 88.6546 202.325 89.7564 202.325C89.7564 202.564 95.2836 203.539 96.0365 203.539C96.0365 203.797 101.141 204.257 101.527 204.845C102.133 204.956 102.427 205.324 103.051 205.526C103.272 205.857 104.465 205.692 104.465 206.262C104.759 206.317 106.136 206.906 106.136 207.109C106.614 207.164 106.999 207.164 107.293 207.164C107.348 207.274 107.734 207.329 107.862 207.329C107.862 207.753 110.066 207.789 110.066 208.323C110.286 208.397 111.847 209.114 111.847 209.059C112.031 209.059 113.096 209.317 113.096 209.482C113.316 209.482 114.785 209.758 114.895 209.887C114.932 209.924 115.905 210.016 115.979 210.016C116.805 209.905 117.521 210.071 118.329 209.813C118.329 209.942 120.68 209.372 120.955 208.93C121.157 208.93 122.681 208.709 122.681 208.452C123.581 208.452 123.581 207.403 124.462 207.293C124.462 207.09 125.619 206.667 125.766 206.667C125.766 206.998 127.474 206.612 127.657 206.612C127.657 206.612 128.539 206.17 128.649 206.133C128.759 205.747 129.328 205.434 129.328 205.287C129.475 205.287 130.008 204.257 130.008 204.073C130.412 203.889 130.063 201.736 130.063 201.349C129.696 201.349 130.247 197.78 129.439 197.78C129.439 197.43 129.053 196.915 128.649 196.786C127.988 196.308 127.437 194.891 126.556 194.891C126.207 194.192 122.736 193.345 122.736 192.996C122.314 192.996 121.469 192.646 121.212 192.26C120.422 192.26 120.496 191.119 119.78 191.193C119.541 191.211 117.484 190.015 117.484 190.217C117.154 190.217 114.822 189.518 114.822 189.592C114.436 189.555 111.461 189.04 111.461 188.856C110.672 188.856 109.699 188.341 108.744 188.341C108.285 188.157 107.403 188.23 106.852 188.23C106.852 188.138 105.53 187.752 105.695 187.973C105.053 187.789 101.141 187.292 101.141 187.126C99.9295 187.126 98.4604 186.758 96.9546 186.869C96.9546 186.758 92.015 186.758 91.5009 186.758C91.5009 186.574 88.6913 186.869 88.5628 186.869C88.5261 186.685 88.471 186.5 88.3057 186.5C88.3057 186.408 88.3425 186.408 88.4526 186.5C88.3057 185.93 87.6814 186.758 87.1856 186.74C86.8551 186.74 86.2491 186.961 86.2491 186.648C85.5696 186.905 84.4862 186.758 83.8986 186.758C83.8986 186.868 82.8703 186.795 82.6867 186.758C82.2827 186.629 82.3011 186.077 82.4847 186.077C82.3929 185.691 82.7418 185.212 82.6499 184.826C82.5581 184.826 81.4013 182.747 81.3462 182.471C80.7586 182.176 80.6668 179.858 79.9873 179.858C79.7486 179.122 79.1243 178.533 78.8855 177.816C78.8855 177.816 78.0959 176.877 78.0959 176.767C77.9123 176.767 77.4532 176.215 77.4165 176.086C76.9574 175.957 76.3331 175.313 76.0393 175.056C75.672 174.724 75.5251 174.32 75.2864 173.841C75.0293 173.344 74.2948 172.958 73.8541 172.535C73.597 172.038 72.4952 171.596 72.33 171.063C72.1463 171.063 70.916 170.143 70.916 170.014C70.7508 170.014 69.9795 169.333 69.9795 169.168C69.7224 169.112 68.4003 168.248 68.3636 168.119C67.9412 167.99 67.2618 167.217 66.9496 167.217C66.9496 166.978 66.3253 166.647 66.1049 166.647C65.9948 166.297 64.8012 165.598 64.8012 165.34C64.5441 165.34 63.6811 164.31 63.3322 164.034C63.3322 164.108 61.4408 162.783 61.4959 162.783C61.4959 162.488 63.1302 163.132 63.1302 162.783C63.9014 162.783 64.489 162.47 65.2786 162.47C65.2786 162.378 68.2167 162.212 68.2167 161.992C70.1264 162.36 72.2933 161.2 74.3499 161.2C74.3499 160.998 79.4364 160.575 79.4364 160.52C80.4831 160.52 80.8687 160.225 82.0991 160.317C82.3194 159.912 85.0922 159.802 85.5513 159.802C85.5513 159.802 88.5077 159.507 88.875 159.507C89.0219 159.507 89.481 159.342 89.4993 159.563C89.4993 159.655 89.5544 159.747 89.6279 159.747C89.6279 159.176 90.1787 159.544 90.4175 159.544C90.1237 160.409 91.3723 159.857 91.9967 159.747C91.9967 160.004 91.9967 159.839 91.8865 159.949C92.1436 159.949 92.5108 159.875 92.5108 159.636C92.5659 159.636 93.0617 159.599 93.1903 159.581C93.1903 160.078 94.3288 159.36 94.4389 159.323C94.5308 159.526 95.1735 159.784 95.1735 159.526C95.4673 159.452 97.2117 159.305 97.2117 159.416C97.377 159.416 98.3135 159.268 98.3135 159.158C98.589 159.158 99.0113 159.195 99.4153 159.158C99.4153 158.624 106.118 158.698 106.118 158.311C112.6 157.281 119.357 158.514 125.748 158.514C125.748 158.679 126.849 158.882 126.996 158.882C127.309 159.508 128.943 159.416 129.53 159.213C130.136 159.011 132.395 159.415 132.395 160.299C132.542 160.262 133.332 160.464 133.332 160.464C133.644 160.464 134.856 160.428 134.856 160.409C135.26 160.409 138.051 160.832 138.051 160.722C139.336 160.722 139.373 159.452 139.575 158.311C139.502 158.311 140.034 157.171 140.108 157.06C140.493 156.508 140.787 156.14 140.567 155.68M60.1186 188.727C59.2372 188.727 51.433 189.408 51.433 189.721C51.231 189.794 50.3863 189.537 50.2761 189.776C49.9272 189.721 48.2378 189.813 48.0726 190.144C47.7971 190.089 44.5652 190.512 44.5652 190.622C44.0695 190.622 40.5805 191.174 40.5805 191.358C39.644 191.358 38.432 192.002 37.3853 192.076C36.7794 192.113 36.1183 192.26 35.549 192.407C35.549 192.646 32.4274 193.198 32.0417 193.253C32.0417 193.548 29.7831 193.603 29.7831 193.934C29.2873 193.658 28.0386 194.505 27.4877 194.505C27.4877 194.597 24.8618 195.241 24.7149 195.241C24.7149 195.425 22.291 195.94 21.8319 196.032C21.7034 196.289 19.7386 196.713 19.4264 196.713C19.4264 196.86 17.1127 197.338 16.7454 197.393C16.672 197.669 14.1746 198.111 13.8074 198.185C12.8708 198.461 11.9894 198.865 11.0346 198.865C11.0346 199.16 4.55244 200.485 3.81792 200.485C3.81792 200.761 0.622778 201 0.622778 201.276C-0.111739 201.276 -2.18676 202.269 -2.62747 201.589C-2.79273 201.589 -1.9664 200.485 -1.78277 200.429C-1.56242 199.583 -0.754449 198.81 -0.791175 198.074C-0.662634 198.074 -0.148463 196.418 -0.221915 196.289C-0.221915 196.197 0.64114 194.67 0.879858 194.67C1.02676 193.934 1.41238 193.493 1.41238 192.885C1.98163 192.885 2.40398 191.524 2.40398 191.045C2.23872 191.045 3.2854 189.647 3.2854 189.573C2.95486 189.739 3.54248 188.028 3.54248 187.844C3.54248 187.844 3.78119 187.016 3.79956 186.96C3.79956 186.758 4.13009 185.746 4.277 185.746C4.277 185.507 4.53407 183.906 4.64425 183.851C4.64425 183.556 5.3604 181.532 5.43385 181.532C5.43385 180.392 6.31528 179.6 6.31528 178.441C6.4071 178.441 6.57236 177.576 6.62745 177.392C6.62745 177.392 7.03143 176.454 7.01307 176.344C6.93962 175.902 7.52723 175.626 7.41705 175.184C7.15997 174.209 8.62901 173.05 9.47371 173.05C9.47371 172.756 12.3934 172.369 12.7239 172.369C12.7239 172.093 16.2863 171.486 16.5434 171.486C16.5434 171.21 18.8939 171.32 18.8939 170.916C19.6835 170.768 20.3813 170.603 21.0423 170.603C21.0423 170.566 22.4379 170.124 22.6032 170.124C22.6032 170.272 25.0087 169.756 25.174 169.756C25.4311 169.333 28.259 169.388 28.259 169.02C28.6262 169.02 31.399 168.211 31.399 168.34C31.4541 168.34 32.9232 168.064 32.9232 167.972C33.2353 167.972 34.888 167.659 34.9614 167.493C36.0265 167.493 37.0732 166.868 38.1566 166.739C38.3402 166.72 39.0931 166.5 39.0931 166.279C39.5338 166.279 39.9561 166.5 40.4519 166.389C40.6539 166.334 42.5453 165.782 42.5453 165.653C42.784 165.543 44.0694 165.69 44.0694 165.285C44.6938 165.285 44.9876 165.009 45.5385 164.862C45.6854 165.009 45.8874 165.34 46.071 164.972C46.3097 164.972 47.4849 164.476 47.4849 164.494C48.2562 164.494 48.8989 164.071 49.5232 164.071C49.5232 163.905 52.5715 163.335 52.8653 163.224C53.1407 163.224 53.4713 163.077 53.7467 163.077C53.7467 163.132 54.9954 162.728 55.2341 162.967C55.4545 163.188 54.9587 163.39 54.9036 163.721C55.4545 163.684 55.7483 163.629 55.7483 163.188C56.2073 163.261 56.0054 163.868 56.3175 163.868C56.3175 164.126 57.7682 163.353 57.9335 163.353C57.8784 163.519 57.6213 164.292 57.4009 164.292C57.2724 164.936 56.0421 165.34 56.0421 165.028C55.0505 165.028 53.8753 164.494 52.9571 164.181C52.9571 164.108 51.8553 164.292 51.7451 164.292C51.8737 164.77 52.3328 164.568 52.4246 165.138C52.2409 165.138 52.6817 166.095 52.7918 166.297C53.1407 166.187 53.9303 168.303 54.0038 168.708C54.0956 168.708 54.9954 170.235 55.0505 170.437C55.785 170.437 56.2624 172.553 56.8868 172.737C56.9419 173.013 57.5478 173.676 57.7682 173.676C57.86 173.86 58.6129 174.651 58.8149 174.78C58.8149 175.092 59.2923 175.148 59.2923 175.46C59.6779 175.773 59.6412 175.994 59.6963 176.528C59.733 176.988 59.8432 179.49 59.8799 179.49C59.8799 181.146 59.9901 182.489 59.9901 184.164C60.0636 184.164 60.2105 188.433 60.1003 188.727" fill="#E4E9F0"/>
<path fill-rule="evenodd" clip-rule="evenodd" d="M21.0605 232.74C21.0605 232.482 23.5395 233.715 23.87 233.899C24.1822 234.065 25.8716 234.856 25.8716 235.206C26.6979 235.206 27.1019 236.457 27.7997 236.457C27.7997 236.898 29.0668 237.193 29.0668 237.561C29.2871 237.561 30.1135 238.481 30.2787 238.646C30.8296 239.198 32.923 241.333 32.7761 242.014C33.0882 242.014 34.1349 243.541 34.1349 243.798C34.0982 243.798 34.6491 245.786 34.7042 246.062C35.3836 246.558 34.5756 248.785 35.3285 248.785C35.2367 248.95 36.467 250.349 36.5772 250.717C36.4487 250.717 36.3936 250.735 36.4119 250.827C36.467 250.809 37.2015 251.729 37.1097 251.95C37.0546 252.097 37.3668 252.612 36.9261 252.612C36.9261 252.446 36.2467 253.072 36.1916 253.09C36.1916 253.495 34.998 253.734 34.7776 253.753C34.4471 253.753 33.8595 254.691 33.6759 254.139C33.327 254.415 33.2168 254.765 33.0515 255.188C32.8862 255.188 33.0515 255.243 32.7944 255.243C32.7944 255.63 32.1884 255.114 32.0599 255.078C32.0599 254.949 31.0683 255.685 31.0683 255.593C30.9398 255.501 30.4991 255.078 30.4991 255.225C30.242 255.225 30.3705 255.372 30.0767 255.372C29.9482 255.206 29.8747 255.17 29.7095 255.17C29.5442 254.802 28.5526 255.17 28.4057 255.114C28.4057 255.243 28.2771 255.39 28.2588 255.538C27.763 255.354 27.763 255.298 27.157 255.427C27.0836 255.574 26.6245 255.998 26.6245 255.63C25.89 255.225 25.5962 255.151 24.9535 255.611C24.7515 255.758 24.4393 255.28 24.1639 255.28C24.1639 255.556 23.7966 254.857 23.4477 254.894C23.4477 254.894 22.5479 254.783 22.6948 254.967C22.7315 254.765 22.603 254.673 22.3276 254.654C22.3459 254.783 22.2908 254.857 22.1623 254.857C22.1623 254.323 21.0605 254.894 21.0422 254.802C21.0422 254.673 20.124 254.526 20.124 254.397C18.7652 254.397 17.5716 253.974 16.3596 253.661C16.0107 253.606 15.6251 253.679 15.3129 253.606C15.3129 254.599 14.1744 253.606 13.9541 253.55C13.7888 253.09 13.0359 252.998 13.0176 252.336C12.7605 252.336 11.9158 251.471 11.8607 251.085C11.7322 251.085 11.8791 251.195 11.7505 251.195C11.7505 250.974 9.56534 249.208 9.40007 249.208C9.40007 249.061 8.48193 247.975 8.2983 247.846C8.2983 247.515 7.87595 247.258 7.87595 246.908C7.38015 246.669 6.8109 244.332 6.5171 244.332C6.5171 244.038 6.02129 243.394 5.83766 243.338C5.83766 242.75 4.73589 242.363 4.73589 241.811C4.40536 241.646 4.07482 241.038 3.79938 240.762C3.57902 240.689 3.54231 240.45 3.32195 240.45C2.77106 239.842 2.73434 240.284 2.33035 239.934C2.16509 239.934 1.41221 238.757 1.15513 238.628C0.255344 238.15 -0.828068 237.193 -1.59931 236.402C-1.83803 236.162 -2.92144 235.169 -2.92144 234.948C-3.45397 234.635 -4.3354 232.74 -4.86792 232.74C-4.86792 232.519 -5.23517 232.298 -5.23517 232.427C-5.7677 232.482 -5.63915 231.912 -6.11659 231.912C-6.19004 231.82 -6.46549 231.378 -6.48385 231.378C-6.59403 230.863 -6.35531 231.286 -6.15332 230.9C-5.95133 230.514 -6.37367 230.679 -6.53894 230.385C-6.33695 230.311 -4.50066 230.201 -4.50066 230.238C-3.36215 229.906 -1.91149 230.403 -0.736265 230.182C0.328784 230.33 1.37547 230.238 2.34871 230.238C2.34871 230.514 6.29675 230.403 6.53546 230.44C6.53546 230.44 9.30825 230.679 9.30825 230.918C11.3098 231.415 13.5134 231.746 15.3313 232.022C15.3313 231.765 20.528 232.722 20.9871 232.758" fill="#E4E9F0"/>
<path fill-rule="evenodd" clip-rule="evenodd" d="M78.5552 381.671C78.5552 381.671 78.5185 381.818 78.5002 381.873C78.9409 381.799 80.3915 382.554 80.3915 383.032C80.6486 383.124 82.4298 383.989 82.4298 384.339C82.7787 384.523 84.6885 385.553 84.6885 385.811C85.1108 385.811 84.9272 387.025 85.6801 386.97C85.6801 386.4 87.2225 387.559 87.296 387.816C87.498 387.816 88.71 389.178 88.71 389.491C89.0772 389.491 90.4361 389.951 90.6013 390.54C91.1339 390.668 91.5746 391.46 91.9602 391.809C92.2907 392.104 92.8967 391.92 92.8967 392.527C93.1905 392.398 93.2089 392.637 93.2089 392.361C93.3007 392.361 94.2188 393.06 94.2555 393.189C94.5677 393.244 95.4859 393.98 95.4124 394.091C96.0735 394.091 96.808 395.25 97.1385 395.25C97.5241 395.655 98.479 396.52 98.9381 396.52C99.3604 396.52 99.6359 397.329 100.168 397.2C100.168 397.366 100.94 397.936 101.105 397.936C101.105 397.955 101.858 398.488 102.041 398.507C102.005 398.636 102.831 399.206 102.831 399.132C102.776 399.169 104.263 400.273 104.502 400.347C104.961 400.972 105.916 401.046 105.916 401.764C106.485 401.819 106.908 402.702 107.256 402.72C107.44 402.72 108.395 403.861 108.487 404.174C109.166 404.284 108.983 406.511 108.799 407.008C109.038 407.008 108.762 407.063 109.056 407.063C109.056 407.394 108.983 407.707 108.799 408.167C108.175 407.78 108.707 409.087 108.744 409.271C108.542 409.197 108.34 409.547 108.009 409.492C108.064 409.602 108.046 409.657 107.954 409.639C107.881 409.676 107.899 410.172 108.211 410.32C108.156 410.596 108.395 410.945 108.009 410.945C108.156 411.203 108.12 411.313 107.899 411.258C107.789 411.7 108.064 411.295 108.064 411.626C107.936 411.626 107.642 412.049 107.642 412.105C107.918 412.105 107.789 412.583 108.009 412.583C107.973 412.473 108.009 412.436 108.12 412.473C108.193 412.804 108.12 412.62 108.009 412.896C108.413 412.896 108.211 412.988 108.744 413.153C108.744 413.724 111.553 416.189 109.846 416.465C109.846 416.594 109.956 416.465 109.846 416.668C109.295 416.484 109.533 416.833 109.533 417.146C109.46 417.275 109.772 417.661 109.423 417.772C109.423 417.827 109.111 417.882 109.111 418.085C109.276 418.085 108.377 419.354 108.377 418.931C108.193 418.931 107.954 419.612 107.44 419.667C107.44 420.274 107.899 422.077 106.761 422.611C106.761 422.85 106.32 425.389 106.081 425.389C106.081 427.487 106.283 429.934 106.283 432.584C105.824 432.584 106.999 442.17 106.43 443.127C106.669 443.127 106.651 448.003 106.595 448.003C106.651 448.702 106.54 449.199 106.54 449.678C106.669 449.678 106.797 450.138 106.742 450.303C106.632 450.8 106.338 452.217 106.485 452.879C106.742 452.879 106.54 460.442 106.595 460.442C106.595 460.791 106.687 460.994 106.595 461.435C106.449 461.435 106.669 461.325 106.43 461.435C106.43 462.171 106.485 462.87 106.485 463.698C106.595 463.643 106.118 465.263 106.118 465.171C106.302 465.171 106.228 468.115 106.063 468.685C105.916 468.685 105.989 472.255 105.806 472.255C105.806 473.175 105.604 474.021 105.696 474.831C105.622 475.953 105.31 477.278 105.475 478.639C105.549 479.339 105.439 479.633 105.365 480.24C105.475 480.24 105.145 481.731 105.237 481.823C105.383 481.97 105.035 486.331 104.851 486.331C104.998 486.643 104.998 489.091 104.814 489.109C104.759 489.109 104.741 491.667 104.741 491.888C104.998 492.44 104.924 498.346 104.741 498.346C104.759 498.438 104.759 500.444 104.741 500.444C104.741 501.419 104.594 501.787 104.612 502.928C104.649 504.4 104.594 505.393 104.594 506.516C104.355 506.644 104.374 507.73 104.484 508.043C104.447 508.043 104.41 509.147 104.484 509.11C104.208 509.22 104.833 513.287 104.447 513.287C104.447 515.329 104.557 517.795 104.557 519.745C104.41 519.745 104.631 520.997 104.447 520.997C104.539 521.861 104.3 522.579 104.3 523.683C104.41 523.683 104.172 526.737 104.3 526.995C104.227 526.995 104.3 528.909 104.245 529.093C104.098 529.166 104.245 529.921 104.245 529.921C104.245 530.197 103.786 530.712 104.19 530.712C104.19 530.896 104.19 531.08 103.933 531.08C103.896 531.65 103.878 532.018 103.878 532.497C103.878 532.497 103.97 533.84 103.878 533.95C103.657 534.281 103.896 535.201 103.878 535.606C103.841 536.545 103.859 537.078 103.859 537.851C103.749 537.851 103.914 544.512 103.914 544.512C103.602 545.414 103.97 546.72 103.97 547.603C104.08 547.603 104.116 550.602 104.116 551.007C104.337 551.007 104.172 556.159 104.172 556.509C103.676 556.509 104.52 569.683 104.741 569.683C104.741 570.548 104.851 571.413 104.851 572.204C104.924 572.204 104.557 572.977 104.796 573.308C105.016 573.308 105.071 576.031 104.796 576.031C104.796 576.197 104.263 576.878 104.741 576.878C104.741 577.08 105.273 578.773 104.741 578.773C104.741 579.951 105.126 581.018 105.237 582.14C105.273 582.527 105.494 582.95 105.53 583.483C105.751 583.483 105.292 584.311 105.273 584.477C105.861 584.477 105.659 586.151 105.53 586.151C105.53 586.74 105.843 587.439 105.732 588.415C105.255 588.415 105.457 589.408 104.943 589.408C104.998 589.169 104.998 589.206 104.998 588.985C104.906 588.985 104.814 589.408 104.796 589.5C105.145 589.5 104.227 589.316 105.163 589.445C105.163 589.519 105.053 589.813 105.163 589.813C105.237 590.034 105.365 590.807 105.53 590.862C105.585 590.972 105.292 591.966 105.585 591.966C105.641 592.223 105.273 592.61 105.273 592.812C105.273 592.812 105.714 596.382 105.732 596.474C105.218 596.566 105.696 596.934 105.769 597.21C105.971 597.964 105.475 598.148 105.475 598.664C105.696 598.664 105.475 599.51 105.53 599.657C106.32 599.657 105.622 603.227 105.696 603.227C105.696 604.956 105.585 605.821 105.861 607.422C105.787 607.422 105.769 607.385 105.696 607.367C105.916 608.158 105.622 609.299 105.898 610.09C105.641 610.09 105.806 609.998 105.585 609.924C105.475 610.403 105.585 610.458 105.585 610.826C105.604 610.826 106.375 611.709 105.641 611.562C105.659 612.114 106.008 612.556 106.008 612.924C105.934 613.034 106.081 613.549 105.898 613.549C105.824 614.064 105.806 614.488 105.843 614.966C105.659 615.021 105.989 616.107 105.989 616.328C106.559 616.328 104.722 617.744 105.677 617.744C105.677 617.892 105.512 617.928 105.42 618.112C106.081 618.112 105.677 620.155 105.585 620.155C105.585 620.394 105.696 622.676 105.475 622.676C105.42 622.933 105.42 623.209 105.237 623.467C105.108 623.651 104.594 624.037 104.594 624.24C104.851 624.46 104.52 625.822 104.796 625.822C104.888 626.025 104.888 626.761 104.741 626.816C104.778 626.724 104.484 627.993 104.484 627.386C104.19 627.57 104.098 628.417 103.859 628.803C103.676 628.987 103.859 629.281 103.804 629.429C103.694 629.429 103.308 629.907 103.272 629.999C103.18 629.999 103.088 630.625 103.07 630.79C102.133 630.698 102.39 631.949 102.225 631.949C102.225 632.244 101.803 633.532 101.803 633.164C101.472 633.164 101.601 633.679 101.38 633.9C101.913 633.9 100.719 634.176 100.903 634.157C100.903 634.507 100.554 634.341 100.481 634.783C100.187 634.857 99.489 634.893 99.489 634.47C99.2135 634.47 99.0299 634.268 98.6994 634.157C98.6994 634.489 97.8914 633.881 97.6527 633.845C97.6527 634.231 97.5425 634.397 97.5425 634.691C97.414 634.746 97.3589 634.691 97.3956 634.599C97.3222 634.673 96.7713 635.169 96.7713 634.691C96.6244 634.82 96.4958 635.317 96.5142 635.482C96.3673 635.482 96.3489 635.409 96.3122 635.482C96.202 635.409 96.3122 635.409 96.3122 635.335C96.1653 635.335 96.404 635.39 96.1102 635.39C96.1102 635.703 95.8899 635.777 95.8899 636.126C96.0368 636.163 96.0918 636.071 96.0551 635.869C96.2938 635.869 96.2204 636.421 96.2204 636.549C95.9817 636.421 95.8715 636.476 95.9082 636.752C95.7613 636.752 95.541 636.476 95.4859 636.329C95.1003 636.439 95.2104 637.009 94.7513 637.009C94.7513 637.046 94.4025 637.433 94.4392 637.433C94.2005 637.948 94.6595 637.874 94.7513 638.224C94.6779 638.224 94.6045 638.224 94.5494 638.169C94.5494 638.279 94.8248 638.997 94.2923 638.629C94.2923 638.886 94.4392 638.923 94.4392 639.107C94.1821 639.107 93.8516 639.254 93.8148 638.905C94.0719 638.923 94.0536 639.144 94.127 638.794C93.9434 638.794 93.7965 638.941 93.5578 638.849C93.5578 639.089 93.7414 639.42 93.3925 639.42C93.3558 639.089 93.2456 639.125 93.2456 638.905C93.5578 638.905 93.2823 638.997 93.4476 638.997C93.2639 638.261 92.7682 638.923 92.7682 638.261C92.2724 638.261 92.9885 638.886 92.5111 638.886C92.5111 638.279 92.0153 639.254 91.8316 639.254C91.8316 639.144 91.8684 639.033 91.9418 638.941C91.6296 638.923 91.3909 638.684 91.0971 638.684C91.0971 638.978 91.042 639.089 91.042 639.254C90.8033 639.181 90.8768 639.217 90.8768 638.831C90.8033 638.831 90.8033 638.997 90.4544 639.052C90.4544 638.702 90.6748 638.702 90.6197 638.205C90.9319 638.205 90.785 638.629 91.0971 638.629C91.0971 638.463 90.9319 638.242 90.9319 638.058C91.3175 638.04 91.3358 637.966 91.5562 637.966C91.5562 638.058 91.6113 638.077 91.6664 638.334C91.4828 638.334 91.2808 638.058 91.1339 638.445C91.2624 638.445 91.2808 638.297 91.3909 638.334C91.3909 638.5 91.5746 638.647 91.7582 638.647C91.7582 638.389 91.5929 638.721 91.5929 638.389C91.7766 638.389 91.6664 638.242 91.9051 638.334C91.9051 638.077 91.7582 638.389 91.7582 638.077C91.8316 638.077 91.9051 638.095 91.9602 638.132C91.9602 637.966 92.0704 637.893 92.1622 637.709C91.7766 637.709 91.7949 637.69 91.85 637.341C91.5562 637.341 91.5195 637.561 91.0604 637.488C91.0971 637.433 90.8217 637.175 90.583 637.12C90.583 637.653 90.0872 636.954 89.7383 636.954C89.7566 636.807 89.8117 636.66 89.9035 636.531C89.8117 636.568 89.775 636.549 89.7934 636.476C89.6648 636.476 88.8936 637.285 88.8936 636.568C89.1507 636.568 88.9854 636.715 89.1507 636.715C89.1507 635.924 89.4445 636.402 88.7834 636.402C88.7834 636.126 88.5263 636.034 89.0405 636.034C89.0405 635.611 88.1591 636.347 88.104 636.347C88.104 636.108 88.4896 635.924 87.8836 636.034C87.8836 636.2 88.0489 636.034 88.0489 636.402C87.8285 636.402 87.094 636.126 87.094 636.034C87.4062 636.034 87.094 636.2 87.4062 636.089C87.4062 635.74 86.9838 636.108 86.9838 635.777C86.8186 635.942 87.0022 636.089 86.6717 636.089C86.6717 636.016 86.6717 635.942 86.7268 635.887C86.5064 635.887 86.6349 635.961 86.4697 635.887C86.4697 636.531 86.3962 635.795 86.1575 635.685C86.1575 635.942 86.2126 635.188 86.2126 636.108C85.8086 636.108 85.9555 635.574 85.5882 635.574C85.5882 635.261 85.6984 635.537 85.6984 635.353C85.5699 635.353 85.3863 634.857 85.3863 635.353C85.5515 635.353 85.2761 635.243 85.5882 635.243C85.5332 635.74 85.4413 635.869 85.0557 635.869C85.0557 635.611 85.1292 635.685 85.221 635.445C84.9823 635.445 85.2761 635.556 84.9639 635.556C84.9639 635.225 85.1108 635.556 85.1108 635.298C84.9823 635.335 84.8721 635.335 84.7436 635.298C84.7436 635.225 84.7436 635.151 84.7986 635.096C84.7252 635.096 84.7068 635.059 84.6334 635.041C84.5967 635.427 84.6334 635.39 84.6334 635.666C84.3028 635.666 84.6334 635.556 84.3212 635.556V635.188C83.8438 635.243 83.9723 635.225 83.8989 635.611C83.6969 635.611 83.4765 635.353 83.4765 635.188C83.4031 635.188 83.146 635.795 83.2562 635.133C82.8522 635.261 83.4214 635.39 82.7787 635.298C82.7787 635.114 83.146 635.077 83.146 634.985C82.7236 634.985 83.1093 634.82 82.8338 634.82C82.8889 635.077 82.8338 635.188 82.6318 635.133C82.6318 634.893 82.5767 634.507 82.2646 634.507C82.2646 634.801 82.0809 634.636 82.1177 634.397C81.9708 634.341 81.9157 634.397 81.9524 634.507C81.5301 634.268 81.273 634.305 80.7404 634.305C80.8506 633.845 80.0059 633.532 80.0059 633.789C79.7488 633.845 79.6387 633.789 79.6938 633.569C79.198 633.44 79.0878 632.998 78.8491 632.998C78.8491 633.219 77.6922 632.115 77.2331 632.115C77.2699 632.189 75.6906 631.066 76.1313 631.066C76.1313 630.974 75.4336 630.772 75.2866 630.68C75.0112 630.496 74.9928 629.76 74.5521 629.76C74.5521 629.962 73.3953 629.226 74.1298 629.226C74.3134 628.417 73.7442 628.49 73.5054 627.92C72.9729 627.92 71.3386 626.282 71.4672 625.877C72.2568 625.528 69.4105 623.412 69.7411 623.099C69.7778 623.099 68.7495 622.234 68.7495 622.16C68.5658 622.013 68.0884 621.774 68.1435 621.48C68.1986 621.185 67.409 621.02 67.2804 620.744C66.8948 620.744 66.6744 619.805 66.2888 619.805C66.2888 619.548 66.0685 618.701 65.7563 618.701C65.6278 618.444 65.0585 618.26 64.9667 618.02C64.7096 617.726 63.1855 617.229 63.1855 616.806C62.91 616.585 62.1204 616.07 62.0286 615.812C61.7532 615.536 60.1372 614.616 60.1372 614.138C59.9903 614.138 59.7333 614.028 59.6598 613.825C59.2007 613.825 59.4762 613.236 59.3293 613.089C59.164 612.924 58.962 613.052 58.8151 612.721C58.6682 612.721 58.5213 612.574 58.4479 612.316C57.5297 612.224 57.9337 611.102 57.1992 611.102C56.9788 610.532 56.1892 610.09 55.675 609.483C55.675 609.188 55.2527 608.636 55.2527 608.434C54.9956 608.268 54.206 607.422 54.206 607.238C53.6735 606.888 53.343 606.024 52.6452 605.821C52.6085 605.582 51.6536 604.515 51.5434 604.515C51.5434 604.055 51.323 604 51.4332 603.613C50.6803 603.337 51.121 602.491 50.1845 602.252C50.2396 602.528 49.9275 602.399 50.0193 601.994C49.6887 601.957 49.2848 601.516 49.2848 601.203C49.1011 601.203 48.2932 600.54 48.2932 600.356C47.5219 600.356 47.0628 598.995 46.365 598.995C46.4752 598.387 45.7407 598.829 45.7407 598.627C45.7407 598.627 45.6305 598.093 45.3184 598.093C45.3184 598.204 44.0697 597.044 44.3819 597.044C44.2717 596.915 43.831 596.787 43.6473 596.787C43.6473 596.695 43.1332 595.793 42.9679 595.793C43.0046 595.903 43.0046 595.995 42.9679 596.106C42.1967 596.051 41.7743 595.168 41.0765 595.057V594.744C41.6091 594.744 41.0214 594.211 41.0214 594.321C40.3237 593.861 40.8195 594.487 40.8195 594.836C40.6542 594.836 39.7544 594.155 39.7177 593.99C39.4422 593.843 39.7728 593.364 39.4606 593.364C39.3688 593.07 38.5792 593.051 38.5792 592.628C37.7345 592.628 37.4958 591.671 36.7429 591.579C36.8714 591.083 35.8615 591.211 35.6962 590.678C34.925 590.604 34.5944 589.905 33.7681 589.795C33.7681 589.611 32.5194 588.893 32.3541 588.893C32.3541 588.341 29.9486 588.175 29.6915 587.587C29.4895 587.587 28.2776 587.035 28.2776 586.906C27.8736 587.071 26.9554 586.225 26.4964 586.059C26.4964 585.783 24.5499 585.544 24.5499 585.066C23.9256 584.992 23.393 584.495 22.7687 584.495C22.6402 584.256 20.2897 583.226 20.1795 583.281C19.7021 583.539 18.1596 582.177 17.4985 582.177C17.2598 581.735 16.6538 582.251 16.6538 581.662C16.2315 581.662 16.0295 581.607 15.497 581.551C15.497 581.662 15.0746 580.963 15.0746 580.981C14.4687 580.981 14.0463 580.926 13.3485 580.779C13.3485 580.65 11.9346 580.245 11.8244 580.245C11.8244 580.135 10.6124 579.877 10.5573 579.767C9.82283 579.767 9.47395 579.196 8.83124 578.828C8.46399 578.828 6.13189 578.331 6.00335 578.037C5.30556 577.982 3.506 577.835 3.6529 577.154C3.57945 577.154 3.08363 577.356 3.08363 577.209C2.80819 577.209 2.69802 576.97 2.40422 576.951C2.49603 576.418 2.16549 576.418 2.03695 575.903C1.94513 575.866 1.06371 575.111 1.04535 575.111C-0.240055 574.799 -1.37856 573.75 -2.62724 573.529C-2.62724 573.363 -5.14295 572.719 -5.14295 572.738C-5.32658 572.664 -6.50181 572.351 -6.50181 572.204C-6.44672 572.204 -6.42835 572.204 -6.44671 572.149C-5.62038 572.37 -4.37171 572.83 -3.98609 572.094C-4.5737 571.744 -5.14295 571.303 -5.93255 571.303C-5.93255 570.935 -9.01752 570.438 -9.01752 569.886C-9.40315 569.591 -9.89895 569.702 -10.3764 569.407C-10.3764 569.352 -12.2127 568.782 -12.2127 568.671C-12.3963 568.469 -14.049 568.248 -14.049 568.101C-14.5815 567.99 -15.9403 567.917 -16.0322 567.31C-14.71 567.31 -13.3879 567.972 -12.0841 568.064C-10.8722 568.156 -10.1377 568.561 -8.92572 568.561C-8.94408 568.414 -9.21952 568.046 -9.03589 568.046C-9.03589 567.346 -11.0742 567.144 -11.3313 566.684C-11.9189 566.5 -12.4147 565.893 -12.9472 565.893C-13.0941 565.635 -13.7368 565.359 -13.7368 565.47C-14.2326 565.286 -14.9671 564.844 -15.2609 564.421C-14.5448 564.163 -13.1675 565.617 -12.5432 565.617C-12.5432 565.746 -11.2945 566.298 -11.1293 566.298C-10.964 566.629 -9.45824 566.776 -9.45824 567.144C-8.31974 567.383 -7.47504 568.285 -6.26309 568.561C-6.26309 569.058 -2.33342 569.315 -2.33342 569.812C-2.18652 569.757 -1.54382 569.518 -1.54382 569.757C-1.26837 569.757 -1.36019 570.125 -0.919483 569.959C-0.919483 569.996 -1.02966 570.401 -1.02966 570.438C0.219023 570.438 1.52279 571.431 2.78984 571.431C2.78984 571.67 4.46086 571.744 4.46086 571.946C5.30556 571.946 5.94826 572.535 6.71951 572.535C6.71951 572.682 8.88633 573.051 9.16178 573.124C9.65758 573.271 13.7892 573.952 13.7892 574.155C14.2116 574.155 17.0946 574.725 17.0946 574.835C17.7373 574.835 18.7105 575.351 19.243 575.351C19.243 575.295 21.9056 575.847 22.4382 575.884C22.9707 576.05 26.7351 576.731 26.7351 576.823C27.8552 576.823 29.0305 577.559 30.1873 577.559C30.1873 577.614 32.5011 578.129 32.5745 578.037C32.6847 577.89 38.1568 579.27 38.1568 579.546C38.4874 579.491 41.554 580.208 41.554 580.447C42.7292 580.723 43.7942 581.496 44.9511 581.496C45.1715 581.901 47.7239 582.195 47.7239 582.398C48.6971 582.398 49.9642 583.207 50.9741 583.447C50.9741 583.594 53.6919 584.495 54.004 584.551C54.004 584.955 56.6666 585.268 56.6666 585.691C57.1808 585.783 61.7899 587.458 61.7899 587.789C62.2673 587.789 66.2337 589.555 66.2337 589.463C67.5559 589.463 69.0065 590.623 70.4756 590.623C70.4756 590.862 72.9729 591.395 73.4504 591.469C73.4504 591.763 76.8291 591.966 77.2698 591.984V581.551C77.1046 581.551 76.9577 572.131 76.9577 571.174C76.8108 571.174 76.3333 563.924 76.3333 563.151C76.4068 563.151 75.8559 556.27 75.911 555.699C75.8375 555.699 75.4336 550.106 75.4336 549.609C75.0296 549.609 75.4336 542.285 75.3234 541.733C75.4336 541.733 75.3968 538.385 75.4336 538.219C75.4886 538.219 75.3234 533.159 75.3234 532.809C75.305 532.809 75.103 528.044 75.3234 527.565C75.1581 527.565 75.3601 522.101 75.3234 522.101C75.2683 521.733 75.2499 519.065 75.3417 518.973C75.709 518.66 75.4703 516.636 75.4703 516.157C75.5254 516.157 75.6356 511.631 75.6539 511.226C75.709 510.288 76.0946 494.758 75.8926 494.758C75.8926 494.243 75.9844 490.084 76.0028 490.084C75.8192 489.348 76.2783 488.152 76.113 487.361C76.0028 487.361 76.113 485.76 76.1681 485.631C76.0579 485.631 76.2232 477.609 76.4252 477.609C76.6822 476.358 76.3884 474.739 76.3701 473.303C76.5353 471.592 76.4252 469.513 76.4986 467.912C76.5537 466.643 76.7373 458.031 76.8475 458.031C76.8475 456.854 78.0411 440.091 77.8942 440.091C77.8942 439.245 78.1696 430.063 78.0962 430.063C78.0962 426.88 77.8391 424.12 77.8391 421.102C77.8942 420.587 77.8391 417.109 77.784 417.109C77.986 416.153 77.784 414.846 77.7289 413.595C77.8391 413.595 77.1597 413.043 77.1597 413.337C76.8842 413.337 76.6639 413.485 76.5353 413.227C76.6639 413.227 75.7641 413.613 75.8375 413.521C75.6723 413.724 74.9928 413.54 74.699 413.54C74.699 413.429 72.5322 413.724 72.2384 413.65C70.5123 413.264 68.7862 414.405 67.1519 413.963C67.0784 414.257 65.995 414.239 65.995 414.073C65.9767 414.073 63.6996 414.846 63.6996 414.497C63.4058 414.497 63.1304 414.644 62.7999 414.644C62.6162 415.049 61.7899 414.46 61.5512 414.533C61.5512 414.533 58.558 415.361 58.558 415.325C58.2091 415.361 56.0974 415.582 56.0974 415.435C56.0056 415.435 55.0507 415.84 55.0507 415.693C54.9038 415.693 54.7202 415.711 54.5733 415.748C54.5733 415.932 53.802 415.656 53.5266 415.748C53.5266 416.189 50.2764 416.005 50.2764 416.373C48.4401 416.539 47.173 417.422 45.3551 417.422C45.2449 417.643 44.2717 417.68 43.9962 417.68C43.9962 418.103 43.0414 417.79 42.7843 417.845C42.7843 418.085 39.6993 418.416 39.6993 418.471C39.3504 418.342 37.0367 419.023 37.0367 419.152C36.0451 419.152 34.925 419.336 33.9517 419.575C33.6579 420.164 31.3258 419.796 31.0687 420.311C30.7015 420.311 27.2493 420.918 27.2493 420.881C26.7167 420.808 26.0924 421.397 25.211 421.249C25.0457 421.562 24.1092 421.617 23.797 421.617C23.797 421.746 21.52 421.93 21.1711 421.82C21.1711 422.261 18.2514 422.629 17.6638 422.703C17.6638 422.85 14.891 423.016 14.891 423.237C14.6706 423.273 12.7793 423.439 12.816 423.752C12.7793 423.255 11.9713 423.715 11.9162 423.862C11.3837 424.065 10.4288 423.807 10.1901 424.23C9.58412 424.377 9.08832 424.635 8.51906 424.709C8.17017 424.69 6.68277 424.948 6.68277 425.132C6.3706 425.242 4.88321 425.665 4.68122 425.537C4.57104 425.463 2.97346 426.089 2.97346 426.125C2.86328 426.107 1.92678 426.089 1.92678 426.291C1.70642 426.291 -1.58055 426.99 -1.58055 427.027C-2.81087 427.027 -3.74736 427.763 -4.94095 427.763C-5.08786 428.057 -6.37327 428.113 -6.66707 428.186C-6.61198 428.057 -6.63034 428.021 -6.72216 428.039C-6.88743 428.389 -8.65027 428.885 -8.77881 428.646C-8.77881 428.646 -10.1928 429.088 -10.4315 429.088C-10.4315 429.345 -13.3145 429.916 -13.6266 429.824C-13.6266 430.652 -16.4178 430.321 -16.7116 430.873C-17.8685 430.873 -18.7866 431.811 -19.9618 431.811C-19.9618 432.161 -22.4775 432.087 -22.7346 432.602C-22.8264 432.602 -25.3605 433.449 -25.3605 433.504C-25.5625 433.504 -28.8678 434.277 -28.8678 434.442C-29.0882 434.461 -30.0614 434.829 -30.1165 434.976C-30.5205 434.737 -31.7876 435.601 -32.3935 435.638C-33.1097 435.675 -33.6238 436.319 -34.3033 436.319C-35.2581 436.319 -35.8274 436.908 -36.7088 437.018C-36.7823 437.331 -39.1327 438.141 -39.2429 437.993C-39.3531 437.883 -40.5834 438.362 -40.6752 438.546C-40.767 438.582 -41.4281 438.711 -41.5199 438.711C-41.6668 438.987 -42.5115 438.969 -42.8788 439.19C-43.0624 439.521 -44.4947 439.889 -44.917 439.981C-44.917 440.128 -45.9086 440.349 -46.129 440.349C-46.129 440.349 -47.396 440.938 -47.598 440.974C-47.7266 441.379 -48.406 441.342 -48.7549 441.342C-48.7549 441.545 -50.1321 441.802 -50.3708 441.802C-50.5545 442.17 -52.8315 442.446 -52.8315 442.796C-53.2538 442.796 -55.6043 443.587 -55.6043 443.955C-57.0182 444.158 -57.7894 445.17 -59.2218 445.574C-59.2218 445.998 -60.4521 446.476 -60.7642 446.789C-61.1315 447.138 -62.0496 447.359 -62.2516 447.727C-63.335 448.003 -64.5286 449.512 -65.759 449.512C-65.759 449.346 -67.5402 450.027 -67.5402 450.395C-68.2747 450.395 -67.8891 451.058 -68.8072 450.855C-69.2295 450.763 -69.7988 451.223 -70.2579 451.297C-70.5884 451.352 -73.5081 451.536 -73.5081 450.984C-73.9121 450.947 -77.0705 449.99 -77.0705 449.99C-77.4561 449.99 -82.4692 448.85 -82.4692 448.831C-82.7263 448.831 -84.6728 448.39 -84.6728 448.242C-85.8296 448.537 -87.6292 447.562 -88.7493 447.562C-88.7493 447.212 -91.1549 446.844 -91.1549 446.513C-91.4854 446.513 -94.1848 445.63 -94.1848 445.574C-94.2949 445.574 -96.3883 444.71 -96.3883 444.838C-96.8657 444.838 -97.0861 444.47 -97.5452 444.47C-97.5452 444.507 -99.4182 443.679 -99.4916 443.679C-99.4916 443.348 -101.824 442.87 -102.007 442.483C-102.283 442.483 -104.266 441.269 -104.266 441.177C-105.184 440.754 -106.139 439.778 -107.149 439.502C-107.296 439.226 -107.663 439.355 -107.828 439.024C-108.251 439.024 -108.526 437.957 -109.04 437.81C-109.095 437.57 -110.289 436.043 -110.454 436.043C-110.491 436.043 -111.391 434.976 -111.391 434.921C-111.776 434.921 -112.364 434.442 -112.768 434.313C-113.356 434.129 -113.686 433.927 -113.686 433.357C-113.319 433.357 -113.998 432.841 -114.053 432.841C-114.053 432.823 -110.564 433.209 -110.124 433.209C-110.124 433.927 -106.488 432.731 -106.139 432.731C-106.139 432.253 -103.366 431.995 -103.366 431.517C-102.687 431.517 -101.934 430.468 -101.273 430.468C-101.273 430.118 -99.1795 429.658 -99.1795 429.198C-98.4266 428.941 -97.7288 428.057 -96.829 427.837C-96.7372 427.653 -95.6722 427.027 -95.5252 427.101C-95.2865 426.788 -93.689 426.236 -93.689 425.997C-92.3668 425.905 -91.5589 424.525 -90.4387 424.525C-90.4387 424.193 -86.454 422.74 -86.05 422.74C-86.05 422.574 -82.0285 421.065 -81.6062 421.065C-81.6062 420.753 -79.8433 420.624 -79.6597 420.274C-78.9252 420.164 -78.4477 419.759 -77.7316 419.593C-77.6214 419.391 -76.2809 418.913 -76.0606 418.913C-76.0606 418.673 -71.6718 416.907 -71.1944 417.073C-71.1944 416.649 -67.2464 415.306 -66.5302 415.196C-66.5302 414.92 -61.8477 413.301 -61.2968 413.301C-61.2968 413.135 -58.0649 412.068 -57.7894 412.141C-57.6242 411.81 -55.5859 411.626 -55.5859 411.35C-55.1819 411.35 -50.4626 409.86 -50.4626 409.676C-49.6547 409.676 -48.9385 408.995 -48.1673 408.995C-48.1673 408.792 -45.9454 408.369 -45.6516 408.185C-45.2659 407.946 -44.458 407.67 -44.0356 407.67C-44.0356 407.67 -42.1442 407.044 -41.9973 406.989C-41.9973 406.658 -38.3248 406.272 -38.3248 405.83C-37.6086 405.683 -31.5672 404.229 -31.5672 403.935C-30.6307 403.935 -29.584 403.254 -28.6842 403.254C-28.6842 403.125 -24.1669 401.929 -23.616 401.966C-22.9366 402.003 -18.2174 400.696 -18.2174 400.641C-17.6297 400.641 -12.1759 399.298 -12.1759 399.28C-12.1759 399.132 -9.25625 398.507 -9.05426 398.507C-9.05426 398.212 -6.39163 398.12 -6.39163 397.826C-5.43675 397.826 -4.64715 397.2 -3.76573 397.2C-3.76573 397.053 0.255747 396.041 0.733183 396.041C0.733183 395.839 5.89317 394.68 6.38897 394.68C6.38897 394.404 10.6308 393.576 11.2551 393.465C11.2551 393.355 14.7992 392.582 15.0746 392.582C15.0746 392.453 19.6103 391.423 20.1061 391.423C20.1061 391.147 25.615 390.282 26.3862 390.061C26.7902 390.061 30.0588 389.472 30.0588 389.38C31.5645 389.38 33.5294 388.589 35.1453 388.589C35.1453 388.479 38.6526 388 39.1668 387.964C40.0115 387.89 47.6505 386.896 47.6505 386.768C47.8708 386.768 50.056 386.565 50.056 386.51C50.6069 386.639 52.3146 385.976 52.737 386.308C52.8472 386.4 54.0958 386.197 54.0958 386.197C55.1058 385.94 56.7768 386.124 57.9521 386.124C59.2191 386.124 60.2841 386.179 61.441 386.271C61.9735 386.308 63.2222 386.032 63.6262 386.289C63.8098 386.4 64.1771 386.05 64.3791 386.05C64.3791 385.921 65.6278 385.038 65.8481 384.799C66.6744 384.375 67.1886 383.272 68.3638 383.272C68.3638 383.106 71.8161 384.1 72.0731 384.155C72.0731 384.854 74.2216 384.376 74.2216 383.327C74.7174 383.327 75.0479 381.119 75.8375 381.119C75.8375 380.419 78.0778 381.56 78.3533 381.634" fill="#E4E9F0"/>
<path fill-rule="evenodd" clip-rule="evenodd" d="M-4.13332 446.2C-2.9581 446.476 -1.54415 446.494 -0.570911 446.734C-0.570911 446.954 2.05499 447.212 2.05499 447.249C2.27534 447.249 2.64259 447.341 2.9364 447.414C3.0833 447.451 4.25853 446.697 4.25853 446.66C4.36871 446.66 5.63575 446.384 5.63575 446.513C5.63575 446.642 6.205 446.752 6.29682 446.918C6.38863 446.918 6.66408 447.138 6.66408 447.175C7.15988 447.58 7.67404 446.789 8.20656 446.586C9.06962 446.274 10.3734 446.623 10.961 447.488C11.1446 447.488 12.375 448.003 12.375 448.224C13.0177 448.426 13.5318 448.629 14.2112 448.702C14.3765 449.015 17.5716 449.567 17.8287 449.438C17.8287 449.42 20.5648 450.377 20.8035 450.377C20.8035 451.37 25.835 450.984 26.092 452.309C26.8633 452.309 27.6896 454.94 27.4509 454.94C27.4509 455.382 27.7263 455.934 28.1303 456.246C28.1303 456.449 28.3323 456.357 28.3323 456.614C28.773 456.614 28.4792 456.927 28.4792 456.982C28.7547 457.148 28.9016 457.13 28.9567 456.909C29.2505 456.706 29.1036 457.24 29.379 457.24C29.2688 456.872 29.8932 457.553 30.1135 457.553C30.1135 457.645 31.3989 458.344 31.6377 458.491C31.8764 458.951 32.6292 458.841 32.7394 459.43C33.07 459.43 33.0883 460.037 33.0516 460C33.1985 460 33.3454 460.221 33.1067 460.221C33.2903 460.386 33.8596 462.539 33.6392 462.631C33.5841 462.981 32.5558 464.95 32.5374 464.95C32.6476 464.913 32.6843 464.95 32.6476 465.06C32.262 465.06 32.4273 465.465 32.0784 465.318C32.0784 465.557 31.9682 465.686 32.0233 465.998C31.8029 465.998 32.0233 465.888 31.8213 465.888C31.8213 466.422 30.9766 466.661 30.6093 466.882C30.5726 466.79 30.5359 466.698 30.4991 466.624C30.2972 466.624 29.9666 466.882 29.6177 466.882C29.6177 467.323 28.2038 466.367 28.2038 467.103C27.91 467.047 27.4693 467.71 27.2673 467.25C26.9735 467.25 26.4593 467.011 26.2573 466.79C26.0002 466.532 24.6047 466.403 24.4394 466.937C24.1639 466.937 22.4011 467.213 22.2358 467.507C21.483 467.507 22.3827 468.335 22.3093 468.593C22.1807 468.979 19.1325 467.857 18.5265 468.814C17.7186 468.648 16.7453 469.55 15.9557 469.55C15.9557 469.734 14.652 469.807 14.652 470.01C14.45 469.973 13.3115 470.286 13.2747 470.359C13.2013 470.507 12.3566 470.635 12.1913 470.635C12.1913 470.948 11.0528 470.93 10.8325 471.261C9.89595 471.261 9.23488 471.997 8.31673 471.997C8.31673 471.795 8.42692 471.997 8.42692 471.85C8.0413 471.942 6.07647 472.586 6.07647 472.696C5.89284 472.623 2.20189 473.745 2.20189 473.8C1.04503 473.966 -0.1302 474.555 -1.28706 474.831C-1.7645 474.941 -5.16164 475.475 -5.06982 475.843C-5.49217 475.843 -7.53046 476.321 -7.53046 476.321C-7.97117 476.615 -9.4402 476.505 -9.56874 476.947C-11.0929 476.763 -11.8825 477.627 -13.4984 477.627C-13.4984 478.419 -16.5099 478.566 -16.8955 478.566C-16.8955 478.842 -17.832 479.136 -18.0524 479.136C-18.0524 478.823 -19.7234 479.688 -19.9438 479.707C-19.9438 480.203 -23.0104 480.24 -23.4511 480.185C-23.6531 480.535 -26.0586 480.351 -26.481 480.424C-26.8115 480.479 -28.6845 480.516 -28.6845 480.958C-28.9233 480.958 -30.5943 481.363 -30.6677 481.583C-31.2186 481.583 -31.9715 482.283 -32.5591 482.117C-32.8897 482.743 -34.3587 482.54 -35.0748 482.577C-35.4788 481.841 -37.2968 482.485 -37.8293 482.559C-38.0496 482.577 -40.4184 481.418 -40.4184 481.694C-40.9142 481.436 -46.5333 480.019 -46.3313 479.596C-46.7537 479.596 -48.0941 479.486 -48.3696 478.971C-48.8287 478.971 -51.4178 477.903 -51.1975 477.186C-51.7667 477.407 -52.7032 476.468 -53.1807 476.358C-53.1807 476.339 -55.4393 475.419 -55.4393 475.254C-55.678 475.254 -57.0553 474.573 -57.0553 474.315C-57.5694 474.223 -57.8816 473.377 -58.3039 473.377C-58.3039 473.156 -59.369 471.831 -59.6077 471.703C-59.6077 471.335 -60.0851 471.095 -60.0851 470.709C-60.1953 470.635 -61.1502 469.292 -61.1685 469.09C-61.2236 468.63 -62.913 468.685 -62.913 468.188C-62.8579 468.188 -62.8396 468.188 -62.8579 468.133C-62.7294 468.207 -62.5825 468.243 -62.4356 468.243C-62.4356 468.041 -63.1701 467.931 -62.913 467.931C-63.0416 467.544 -62.7661 467.931 -62.7661 467.673C-62.9865 467.673 -62.913 467.526 -62.9865 467.25C-62.7661 467.25 -62.6192 467.158 -62.5641 466.937C-62.9681 466.937 -63.2068 466.587 -63.3537 466.311C-63.2986 466.311 -63.2803 466.311 -63.2986 466.256C-62.9497 466.348 -59.3139 466.458 -59.3139 465.943C-58.7814 465.943 -57.9734 465.097 -58.8915 465.097C-59.6812 464.14 -58.4876 464.692 -57.7898 464.839C-57.4776 465.465 -55.8433 464.6 -55.3291 464.526C-55.3291 464.03 -52.1891 463.772 -52.1891 463.312C-51.3444 463.312 -50.4813 462.429 -49.6183 462.429C-49.6183 462.042 -47.1025 461.711 -46.9006 461.27C-45.9457 461.086 -44.9541 460.166 -44.0176 460.166C-43.7972 459.724 -41.355 459.558 -41.355 459.172C-40.7857 459.172 -36.1215 457.626 -36.1215 457.498C-35.8644 457.498 -33.2385 456.67 -33.2385 456.559C-32.1368 456.559 -31.0901 455.51 -30.0985 455.51C-30.0985 455.161 -27.5277 454.94 -27.5277 454.572C-26.4994 454.572 -25.8199 453.634 -24.7549 453.634C-24.7549 453.192 -21.2476 452.879 -21.2476 452.438C-19.9622 452.438 -19.0073 451.61 -17.8504 451.278C-17.7035 450.984 -15.6101 450.23 -15.2796 450.23C-15.2796 449.898 -11.7356 448.813 -11.148 448.813C-10.5971 448.629 -10.3033 447.617 -10.0462 447.617C-10.0462 447.267 -10.0829 446.973 -9.67892 446.826C-9.67892 446.678 -9.25658 446.623 -9.25658 446.623C-8.72405 446.494 -8.32007 446.476 -7.67737 446.568C-7.42029 446.605 -6.46541 447.083 -6.26341 447.046C-6.26341 446.807 -4.05987 446.66 -4.05987 446.2" fill="#E4E9F0"/>
<path fill-rule="evenodd" clip-rule="evenodd" d="M49.4869 506.11C49.2665 506 49.1013 505.006 48.6422 505.006C48.2933 504.712 48.3667 504.307 47.9995 504.197C47.8342 504.142 46.4386 502.541 46.4386 502.798C46.1999 502.504 44.9696 500.609 45.5388 500.811C45.5388 500.388 43.0599 497.775 45.2267 498.033C45.2267 497.886 44.9696 497.223 44.8594 497.15C44.4554 496.874 43.6107 495.77 43.0231 495.77C42.8028 495.457 41.4255 494.518 41.0399 494.518C41.0399 494.261 37.955 492.844 37.5326 492.844C37.5326 492.476 33.7866 491.519 33.2173 491.409C32.2992 491.225 31.2892 490.544 30.4629 490.544C30.4629 490.507 28.4613 489.698 28.3144 489.753C28.1675 489.403 25.7252 488.336 25.3213 488.336C25.3213 487.986 21.9425 487.858 21.612 487.342C21.4283 487.342 20.5469 487.158 20.4551 486.974C20.2715 486.974 19.8124 486.919 19.7206 486.772C18.8024 486.864 19.3717 486.864 18.931 486.57C18.931 486.257 18.6188 486.57 18.4168 486.57C17.8843 486.754 16.3969 485.539 15.846 486.68C15.6624 486.827 15.0564 488.042 14.9095 488.042C14.9646 488.152 14.7442 488.722 14.7075 488.722C14.7075 489.918 14.1383 489.274 13.4037 489.514C13.4037 490.01 8.07849 490.139 7.63778 490.139C7.63778 490.286 -1.23152 491.427 -2.24148 491.611C-3.96759 491.924 -5.41826 492.384 -7.38309 492.384C-8.57668 492.77 -10.3028 493.065 -11.3678 493.065C-11.3678 493.194 -13.2409 493.488 -13.5714 493.433C-13.5714 493.378 -19.9066 495.107 -20.6411 495.107C-20.6411 495.199 -25.2135 496.892 -25.5624 496.892C-25.5624 497.223 -27.7108 497.518 -27.7108 497.775C-28.8677 498.18 -30.3184 499.082 -31.2733 499.082C-31.2733 499.302 -34.2848 500.112 -34.6337 500.186C-34.6337 500.48 -36.6169 500.572 -36.6169 500.866C-37.0208 500.866 -42.2726 502.357 -42.2726 502.651C-43.301 502.964 -44.2007 503.59 -45.2474 503.7C-45.2474 504.142 -47.5979 504.326 -47.5979 504.749C-48.4059 504.749 -49.2322 505.687 -50.0585 505.687C-50.0585 505.522 -53.8229 506.46 -53.8229 505.89C-54.5023 505.742 -59.4236 504.712 -59.4236 504.473C-59.7909 504.473 -61.5721 504.123 -61.5721 503.847C-61.8475 503.847 -63.1329 503.626 -63.0962 503.534C-63.6103 503.534 -64.1612 502.909 -64.6203 502.909C-64.6203 502.596 -66.7137 502.449 -66.7137 502.173C-67.0259 502.173 -68.8805 501.694 -69.009 501.437C-70.019 501.437 -71.1208 500.756 -72.2593 500.756C-72.2593 500.701 -75.1423 500.02 -75.3993 500.02C-75.3259 500.222 -74.0772 501.216 -73.9303 501.216C-73.9303 501.437 -75.2157 501.216 -75.4544 501.271C-75.2892 501.878 -73.8936 501.731 -73.7283 502.522C-73.8569 502.522 -73.967 504.362 -73.6181 504.51C-73.6181 505.117 -73.3794 505.89 -72.8836 506.35C-72.8836 506.423 -73.5814 506.902 -73.3794 506.994C-73.508 506.938 -73.104 507.546 -73.306 507.546C-73.1223 507.822 -72.2042 508.024 -72.2042 508.337C-71.9471 508.503 -71.8553 508.723 -71.5799 508.815C-71.5248 508.926 -70.4964 509.919 -70.3679 509.919C-70.221 510.49 -69.211 510.895 -69.211 511.447C-68.5316 511.759 -67.9991 513.379 -67.1728 513.379C-66.5668 514.096 -65.5568 515.145 -65.5568 515.899C-65.1712 516.12 -64.8774 518.31 -64.5101 518.31C-64.5101 519.267 -63.4634 520.315 -63.2982 521.346C-62.8758 521.346 -62.6738 523.701 -62.3066 523.701C-62.3066 524.639 -61.4252 525.615 -61.4252 526.59C-60.709 526.939 -61.113 528.982 -60.4336 529.368C-60.5437 529.828 -59.9194 530.822 -59.8092 531.411C-59.6807 531.411 -59.038 533.692 -58.9645 534.042C-58.5789 534.244 -58.4871 536.508 -58.1198 536.508C-58.1198 537.225 -57.6424 537.74 -57.6424 538.348C-57.2568 538.348 -56.8895 541.972 -56.5957 541.972C-56.5957 542.175 -56.2468 543.868 -56.1183 543.868C-56.1183 544.309 -55.4205 546.131 -55.8061 546.131C-55.6776 546.499 -55.09 547.198 -55.2185 547.603C-55.5123 547.768 -54.9063 548.136 -54.9247 548.541C-54.9247 548.872 -55.3103 549.093 -55.3103 549.332C-55.751 549.332 -54.6125 550.455 -54.5207 550.547C-54.4289 550.896 -53.9331 551.062 -53.8964 551.596C-53.2904 551.872 -53.272 552.571 -52.7395 552.81C-52.7395 553.896 -50.591 554.742 -50.591 555.809C-50.3523 556.361 -49.7463 557.079 -49.3607 557.557C-48.9751 558.017 -48.2957 558.68 -48.2957 559.103C-48.1304 559.103 -48.3875 558.992 -48.0937 558.992C-48.0937 559.213 -47.855 559.268 -47.7815 559.618C-47.3775 559.508 -47.451 560.005 -47.1021 560.097C-47.0654 560.005 -47.0654 559.931 -47.1021 559.839C-46.7165 559.894 -46.2941 559.949 -46.1105 560.097C-46.239 560.06 -46.2574 560.097 -46.2207 560.262C-46.037 560.262 -45.0087 561.274 -45.0087 561.421C-44.4211 561.569 -44.2742 561.477 -43.76 561.477C-43.76 561.477 -40.9321 561.513 -40.9321 561.9C-40.2527 561.789 -39.812 562.415 -39.206 562.415C-39.206 562.709 -37.3697 563.225 -37.3697 562.617C-36.929 562.617 -36.066 561.605 -35.5885 562.36C-35.3131 562.36 -35.258 562.746 -34.854 562.673C-34.854 562.875 -34.3582 562.783 -34.2848 562.783C-33.8808 562.194 -33.587 562.949 -33.2014 562.857C-32.981 562.801 -31.6221 562.599 -31.6221 562.636C-31.4202 562.764 -31.108 562.709 -30.9244 562.562C-30.3735 562.121 -30.9794 562.433 -30.7775 562.029C-30.3367 561.127 -30.704 561.201 -29.9144 561.697C-29.6022 560.777 -28.8677 561.421 -29.0697 560.336C-29.1799 560.336 -28.6657 559.489 -28.5923 559.489C-28.9595 557.87 -26.4071 559.618 -25.8011 559.728C-25.1584 559.839 -24.0383 559.784 -24.0383 559.066C-23.4874 559.029 -23.5792 558.146 -23.1568 557.852C-22.8814 557.668 -22.5876 557.428 -22.2754 557.392C-22.1102 557.097 -21.192 556.913 -20.9166 556.913C-20.7513 556.545 -19.0803 556.472 -18.7681 556.343C-18.7865 556.343 -18.8048 556.38 -18.8232 556.398C-18.5478 556.343 -17.6112 556.085 -17.4643 555.92C-17.4643 556.159 -14.3059 555.018 -13.8468 555.018C-13.8468 554.816 -10.4864 554.337 -10.1192 554.337C-9.99062 554.08 -8.09925 553.932 -7.78708 553.896C-7.43818 553.859 -6.02423 553.822 -5.93242 553.491C-5.25299 553.491 -5.05101 553.307 -4.40831 553.123C-4.22468 552.755 -3.01272 553.233 -2.82909 553.123C-2.82909 553.601 0.788404 553.601 0.788404 553.693C0.916945 553.693 3.4143 554.264 3.4143 553.896C3.65302 553.84 4.66298 553.675 4.66298 553.785C4.93843 553.693 4.99352 553.215 5.28733 553.104C5.28733 553.436 6.44419 553.436 6.44419 553.417C6.55436 553.454 7.01343 553.601 7.01343 553.638C7.41742 553.638 7.16035 554.429 7.58269 554.429C7.58269 554.687 7.47251 554.337 7.47251 554.742C8.62937 554.632 7.61941 554.595 8.26211 554.208C8.26211 554.024 8.51919 554.337 8.51919 554.153C8.83136 554.172 9.4557 554.006 9.56588 554.208C9.82296 554.153 9.82296 553.822 10.0984 553.914C10.3004 553.988 10.1719 554.153 10.3555 554.153C10.4473 554.484 10.888 554.429 10.888 554.779C11.292 554.668 11.3838 554.521 11.8245 554.521C11.8245 554.742 12.4121 554.981 12.5774 554.797C12.6508 554.724 13.6241 555.294 13.5874 555.404C13.8077 554.779 14.5422 556.361 14.4871 556.674C14.6157 556.674 15.4787 556.748 15.4787 556.619C15.8644 556.619 16.2133 556.196 16.2133 556.821C16.4336 556.821 16.2133 556.656 16.3602 556.656C16.3602 557.079 16.6356 556.656 16.8743 556.656C16.7641 556.895 16.8743 556.656 16.8743 556.821C17.2783 556.729 16.8927 556.821 17.2967 556.821C17.2967 557.079 17.0763 556.968 17.4436 556.968C17.4436 557.41 17.5538 556.968 17.5538 557.392C17.9027 557.392 17.6088 556.968 17.8108 556.968C17.8108 557.557 17.8659 557.189 18.0679 557.189C18.0679 557.852 18.2883 557.447 18.4903 557.447C18.3617 557.796 18.8024 557.833 18.2332 557.76C18.325 558.201 18.8392 558.22 18.8024 558.643C18.9493 558.68 19.0779 558.68 19.2248 558.643C19.2064 558.44 19.0779 558.459 19.0779 558.275C19.7206 558.514 19.0412 558.164 19.3901 558.164C19.3901 559.084 19.4635 558.109 19.7022 558.109C19.6104 558.9 20.0878 558.238 20.5836 558.22C20.5836 558.532 20.9509 558.312 20.9509 558.643C21.0243 558.68 20.9509 558.551 21.0611 558.551C21.0611 558.643 21.1162 558.606 21.1712 558.643C21.0243 558.643 20.9693 558.716 21.0243 558.864C21.3732 558.864 22.071 559.048 22.2363 558.919C22.3281 559.213 22.1261 558.919 22.1261 559.232C22.2547 559.213 22.7505 559.544 22.7505 559.655C22.8606 559.636 23.0075 559.508 23.0075 559.397C23.283 559.379 23.5768 559.71 23.5401 559.931C23.9257 559.931 23.8339 559.36 23.7971 560.244C24.146 560.207 24.348 559.931 24.6786 559.931C24.6786 559.894 25.4498 560.391 25.56 560.409C25.5784 561.164 26.4598 560.317 26.4598 560.722C26.8821 560.722 27.4146 560.097 27.8186 560.097C28.3144 559.342 28.5899 559.489 29.3978 559.673C29.3978 559.802 30.3711 559.324 30.3343 558.937C30.6649 558.937 30.5547 558.661 30.8485 558.569C30.9587 558.79 31.2709 558.569 31.4545 558.532C31.8401 558.44 32.997 557.704 32.9602 557.244C32.9602 557.06 33.3642 555.846 33.2908 555.846C33.2908 555.184 33.7315 554.742 33.9702 554.282C34.1722 554.282 34.5945 552.424 34.9067 552.184C34.9067 551.191 35.733 550.51 35.5861 549.553C36.1003 549.553 36.1003 548.486 36.3758 548.302C36.541 547.768 36.945 547.216 36.945 546.572C37.1286 546.572 36.945 546.039 37.4224 546.039C37.4224 545.818 37.5142 544.972 37.8448 544.788C37.8448 544.677 38.5977 542.451 38.6895 542.488C38.9465 541.218 39.0384 540.243 39.424 538.973C39.4607 538.973 40.6176 535.293 40.3605 535.035C40.893 534.52 40.9848 535.33 40.9848 534.244C41.0766 534.244 41.095 534.06 41.095 533.987C41.2603 533.895 41.2603 533.251 41.2603 533.085C41.3337 533.103 41.4072 533.14 41.4623 533.195C42.1417 531.171 42.6559 529.607 43.2986 527.731C43.4638 527.731 43.7393 525.541 43.8311 525.265C44.0882 525.265 43.8862 523.995 43.9964 523.995C43.9964 523.738 44.2534 521.714 44.1065 521.787C44.1065 521.603 44.5289 521.015 44.6758 520.941C44.6391 521.088 44.6942 521.088 44.8411 520.996C44.8411 520.757 46.053 518.034 45.6306 517.739C45.6306 517.537 46.3652 516.12 45.9428 516.12C45.9428 515.366 45.9428 514.188 46.6406 513.636C46.7875 513.526 47.6506 511.888 47.0997 511.888C47.0997 511.244 46.8977 511.097 47.0446 510.269C47.2466 510.177 47.32 509.386 47.5771 509.386C47.7424 508.889 48.4585 508.227 48.4585 507.748C48.7707 507.748 49.5603 506.423 49.4501 506.129M11.5858 503.7C11.5858 505.154 11.2185 506.129 11.1451 507.325C11.1084 507.858 10.1168 513.158 9.85969 513.158C9.85969 513.563 8.50084 519.138 8.24376 519.138C8.24376 519.727 7.08689 524.437 6.71963 524.437C6.71963 525.375 5.72803 526.259 5.72803 527.271C5.28732 527.271 5.08533 529.847 4.68135 530.049C4.58953 530.472 3.79993 532.993 3.63466 532.993C3.63466 533.876 2.80832 534.649 2.80832 535.569C2.71651 535.569 2.58797 536.195 2.55124 536.36C2.01872 536.397 1.46784 536.618 1.02713 536.618C1.02713 536.655 -0.441908 536.765 -0.441908 536.986C-0.588811 536.986 -2.05784 537.593 -2.05784 537.244C-2.79236 537.299 -2.81073 537.244 -3.52688 537.188C-3.60033 537.078 -4.88573 536.397 -4.88573 536.82C-5.38153 536.82 -9.18266 537.98 -9.18266 538.182C-10.0457 538.182 -10.8721 538.697 -11.7535 538.697C-11.7535 538.826 -12.286 538.587 -12.3227 538.587C-12.9654 538.587 -13.1674 538.752 -13.8468 538.9C-14.3059 539.617 -16.7849 540.114 -17.5194 540.114C-17.5194 540.519 -22.2387 540.758 -22.2387 541.108C-23.6894 541.108 -24.9564 541.954 -26.4254 542.046C-26.4254 540.648 -27.5823 539.36 -27.5823 537.851C-28.0414 537.648 -28.3903 535.385 -28.5739 535.385C-28.5739 534.281 -29.7859 533.306 -29.7859 532.349C-29.7859 532.349 -31.1631 529.791 -31.2182 529.552C-31.31 529.129 -31.9159 528.908 -32.0078 528.503C-32.0812 528.154 -32.2465 527.988 -32.2465 527.675C-32.375 527.675 -32.6872 526.406 -32.9259 526.406C-32.9259 526.075 -33.6237 524.529 -33.9726 524.363C-33.9726 524.014 -34.854 523.057 -34.9642 522.376C-35.5885 522.082 -35.3865 520.647 -35.9558 520.279C-35.9558 520.095 -36.4516 518.917 -36.7454 518.917C-36.7454 518.181 -37.4248 517.868 -37.4248 517.298C-37.8839 516.157 -37.0576 516.875 -37.0576 516.047C-37.6085 516.047 -35.1662 513.82 -35.1662 514.096C-34.8724 514.096 -34.5419 513.728 -34.2297 513.728C-34.2297 513.618 -32.8341 513.047 -32.7056 513.047C-32.7056 512.771 -30.0797 512.459 -30.0797 512.164C-29.6206 512.164 -28.023 511.925 -27.7292 511.428C-27.9496 511.428 -28.0965 510.95 -28.0965 510.803C-28.1883 510.803 -27.5639 511.502 -27.5639 511.483C-27.3803 511.483 -27.1967 511.281 -27.1967 511.115C-26.9396 511.115 -26.7009 511.17 -26.5173 511.17C-26.4254 511.005 -25.7827 510.674 -25.7827 510.968C-25.3971 510.913 -19.8515 508.981 -19.8331 508.999C-19.6862 509.275 -14.9119 506.81 -14.4161 506.81C-14.2876 506.552 -13.4979 506.258 -13.2225 506.258C-13.0572 506.258 -11.5331 505.338 -11.5331 505.65C-10.9455 505.65 -10.4497 505.172 -9.75191 505.172C-9.54992 504.804 -8.42978 504.749 -8.08089 504.749C-7.78708 504.307 -6.96074 504.454 -6.59348 504.418C-5.93242 504.362 -5.27136 504.123 -4.77556 504.215C-4.77556 503.939 -1.65386 503.792 -1.15806 503.7C-1.17642 503.663 -1.21314 503.645 -1.26823 503.645C-0.882612 503.314 1.61474 503.59 1.61474 503.332C2.11054 503.406 2.07382 503.019 2.53289 503.038C2.88179 503.038 2.95523 503.24 3.23068 503.111C3.43267 503.038 4.95679 503.038 4.95679 503.001C5.06697 503.001 6.48091 502.651 6.48091 502.854C7.08688 502.817 8.20703 502.338 8.6661 502.633C8.9599 502.817 11.2185 502.449 11.5674 502.338C11.7143 502.743 11.7327 503.295 11.6225 503.7" fill="#E4E9F0"/>
</g>
<defs>
<clipPath id="clip0_303_5004">
<rect width="280.861" height="639" fill="white" transform="translate(-140 0.419922)"/>
</clipPath>
</defs>
</svg>
