
<svg width="141" height="640" viewBox="0 0 141 640" fill="none" xmlns="http://www.w3.org/2000/svg">
<g clip-path="url(#clip0_303_5012)">
<path fill-rule="evenodd" clip-rule="evenodd" d="M133.101 1.92818C133.101 2.33364 134.844 3.16077 135.183 3.56623C135.731 3.95546 136.409 5.1394 137.006 5.33402C137.006 5.82057 138.764 6.58282 139.135 6.90719C140.345 7.94516 141.588 8.91826 142.894 9.81026C142.894 9.85892 143.879 10.5725 143.846 10.5725C143.846 10.8644 144.798 11.1888 144.976 11.5132C146.363 11.7889 148.106 14.0757 148.428 15.3083C148.654 15.4218 149.461 16.4435 149.493 16.7679C150.155 16.7679 150.284 18.3411 150.816 18.6006C151.994 20.5143 152.978 22.5092 153.768 24.6013C153.946 26.7097 153.946 28.8181 153.768 30.9102C153.026 33.0348 152.558 35.2243 152.316 37.4786C152.316 39.7005 152.252 41.2737 152.252 43.6091C152.026 43.6091 152.058 50.1127 152.058 50.7452C152.236 50.7452 151.687 54.297 151.687 54.6051C151.494 54.6051 151.639 55.935 151.3 55.935C151.235 56.1621 151.235 56.827 151.235 57.0054C151.348 57.0054 151.01 57.865 150.977 57.9461C150.832 57.9461 150.703 57.638 150.542 57.6866C150.542 58.0272 150.671 59.8274 150.413 59.8274C150.413 60.8492 149.396 62.3737 149.719 63.4279C149.332 65.4389 149.412 67.4338 149.283 69.5584C150.042 69.5584 154.559 68.488 154.559 68.5528C155.333 68.5528 156.285 68.115 157.011 68.115C157.124 68.196 159.335 68.0014 159.528 67.9203C159.528 67.5635 164.513 67.0121 164.868 67.0283C164.868 66.7688 167.466 66.3309 167.821 66.3958C167.821 65.9579 173.919 65.5687 173.919 65.4552C175.581 65.0497 179.824 64.1253 181.712 64.1253C181.712 63.6225 184.793 63.3954 184.793 62.9251C185.874 62.9251 185.858 61.3519 186.923 61.3519C186.923 61.7898 188.246 61.725 188.246 61.2222C189.052 60.8167 189.875 60.8005 190.698 61.1573C190.698 61.4979 191.827 61.4168 191.827 61.9196C192.36 62.1791 192.973 62.8602 193.521 62.8602C193.521 62.9738 195.78 63.7036 196.345 63.8009C196.345 63.9793 198.555 64.5794 198.862 64.6767C199.007 64.9524 200.572 64.9848 200.943 64.9848C201.024 65.1632 202.33 65.6173 202.701 65.7471C204.137 66.5256 205.428 67.5149 206.525 68.715C206.848 68.7961 208.719 69.5097 208.784 69.6557C208.784 70.3369 209.865 70.1909 210.042 70.8558C210.236 70.8883 211.042 71.6019 211.042 71.3586C211.139 71.3586 211.978 71.5694 211.978 71.683C212.188 71.683 212.43 71.8776 212.672 71.8776C212.898 72.0073 213.366 72.8183 212.995 72.8183C212.849 73.4508 212.801 74.1482 212.801 74.8455C212.995 74.9104 214.301 75.6889 214.301 75.7862C214.769 75.9484 214.931 76.1754 215.302 76.289C215.721 76.9863 216.173 77.6837 216.625 78.3811C216.738 78.8677 217.012 79.0947 217.012 79.5813C217.399 80.6841 218.044 81.641 218.964 82.4195C219.077 82.4195 218.303 83.1006 218.335 83.052C217.56 83.798 217.318 84.6576 217.641 85.6469C217.512 85.6469 218.141 86.5389 218.141 86.474C220.013 86.474 218.916 92.1829 217.447 90.0096C217.189 90.0096 217.076 89.7015 216.818 89.7015C216.818 89.6204 215.156 89.7015 214.995 89.7015C214.866 89.9772 214.221 89.8961 213.93 89.8961C213.93 90.0583 213.414 90.1069 213.301 90.7232C213.479 90.7232 213.543 91.0314 213.559 91.1611C212.866 91.2746 212.656 90.6584 211.865 90.6584C211.865 90.9665 210.171 90.9827 210.171 91.1611C210.01 91.1611 209.058 91.3882 208.977 91.5341C208.477 91.5341 208.138 91.4693 207.719 91.4693C207.59 91.5179 206.138 91.599 206.186 91.6315C205.702 91.0476 205.025 91.9883 204.896 92.2802C204.17 92.118 203.589 91.9072 202.879 91.9072C202.879 92.0369 197.668 92.1667 197.668 92.4099C195.022 92.4099 192.424 93.7398 189.504 93.7398C189.504 94.2588 183.099 94.275 183.099 94.6156C181.663 94.6156 180.292 94.8751 178.517 94.8751C178.517 95.2481 174.5 95.0697 174.5 95.4427C174.177 95.5563 170.354 95.8482 170.354 96.205C169.644 95.8482 168.063 96.5132 167.095 96.578C167.095 96.4645 163.884 97.0646 163.578 97.1457C163.578 97.3241 153.785 98.6053 152.833 98.6053C152.833 97.6322 145.976 99.7892 147.493 100.568C147.493 100.86 148.703 102.611 149.057 102.709C149.057 102.984 150.284 105.109 150.574 105.109C150.574 106.066 152.268 107.039 152.526 108.012C153.075 108.434 153.204 109.147 153.785 109.52C154.962 111.174 156.156 112.813 157.366 114.451C158.383 115.116 158.528 117.11 159.625 117.678C159.625 118.765 161.432 119.819 161.755 120.841C162.045 120.841 162.545 122.122 162.884 122.284C162.884 122.543 163.949 123.987 164.207 124.117C164.207 124.684 165.272 125.171 165.272 125.755C165.481 125.901 165.836 126.322 165.836 126.582C166.224 126.922 166.901 127.474 167.03 127.977C167.159 127.977 168.353 129.355 168.353 129.55C169.144 130.085 169.644 131.204 170.418 131.885C171.338 132.956 172.241 134.058 173.113 135.161C173.806 135.161 174.565 137.205 175.242 137.432C175.242 137.821 176.178 138.243 176.178 138.567C177.694 139.524 178.308 141.519 179.76 142.411C179.76 142.67 180.663 143.546 180.824 143.546C181.712 144.584 182.696 145.509 183.777 146.319C184.196 146.822 186.729 148.087 186.729 148.655C186.729 148.655 189.811 150.634 189.811 150.488C190.133 150.488 193.699 151.996 193.699 151.996C194.344 151.996 199.846 153.91 199.846 154.331C201.088 154.331 202.363 155.791 203.686 155.791C203.686 156.002 207.283 157.234 207.638 157.234C207.638 157.737 211.026 158.289 211.026 158.808C212.091 158.808 212.575 159.943 213.543 159.943C213.543 160.251 217.802 162.067 218.383 162.213C218.641 162.749 221.029 163.008 221.029 163.478C221.9 163.478 222.788 164.452 223.659 164.679C223.659 165.165 225.918 165.392 225.918 165.944C226.272 165.944 228.967 167.273 229.177 167.711C229.661 167.711 232.355 169.187 232.565 169.609C232.871 169.609 234.194 170.436 234.323 170.679C234.888 170.679 235.388 171.49 235.953 171.62C236.082 171.863 237.098 172.512 237.34 172.512C237.566 172.999 238.453 173.112 238.792 173.582C239.179 173.582 241.599 175.302 241.987 175.918C242.325 175.918 243.858 177.134 244.003 177.426C244.713 177.426 245.488 178.691 246.197 178.886C246.197 179.145 248.069 180.313 248.392 180.41C249.602 181.173 250.795 181.983 251.973 182.811C252.619 182.811 253.086 183.816 253.732 183.816C254.522 184.919 257.313 185.519 257.313 186.784C257.604 186.784 258.168 187.011 258.443 187.417C259.056 187.417 259.491 188.665 259.943 188.617C260.83 189.703 261.879 190.612 263.089 191.325C261.944 191.131 263.718 192.136 263.718 192.331C262.686 192.104 261.734 191.666 260.895 191.001C260.524 190.563 260.008 190.32 259.508 190.239C259.508 189.801 258.491 189.866 258.249 189.866C258.265 189.768 258.314 189.687 258.378 189.606C258.185 189.687 258.039 189.638 257.943 189.476C257.943 189.703 256.733 189.428 256.442 189.411C256.442 189.541 256.507 189.606 256.636 189.606C256.539 189.898 256.458 189.752 256.2 189.801C256.329 189.298 256.055 189.638 255.765 189.541C255.765 189.784 255.829 189.574 255.829 189.736C255.361 189.801 255.426 189.93 254.893 189.93C254.829 189.801 254.425 189.671 254.264 189.606C254.264 189.93 254.264 189.93 253.941 189.866C255.232 190.822 256.587 191.666 258.023 192.396C259.056 192.655 259.846 193.531 260.782 193.855C260.782 194.423 262.541 194.358 262.541 194.926C261.782 194.926 261.153 194.666 260.346 194.666C260.346 195.347 257.862 194.196 257.83 194.861C256.958 194.569 256.007 193.953 255.248 194.099C255.248 193.969 253.748 193.612 253.748 193.725C252.893 193.725 251.812 193.288 250.666 193.466C250.666 193.45 249.408 193.434 249.408 193.336C248.972 193.369 247.972 193.742 247.714 193.207C247.569 193.207 247.343 193.142 247.214 193.142C247.214 193.612 244.826 192.801 244.826 193.336C244.326 193.434 243.261 193.709 242.938 193.596C242.616 193.596 241.115 193.839 241.115 193.969C241.019 193.969 239.986 194.066 239.986 194.163C239.599 194.163 238.953 194.731 238.857 194.731C237.469 194.877 236.098 194.991 234.71 195.104C234.21 195.104 233.984 194.845 233.581 194.845C232.274 195.039 230.951 195.169 229.628 195.218C229.515 194.991 227.224 194.455 226.934 194.52C226.934 194.115 224.95 193.823 224.675 193.823C224.401 193.417 223.288 193.547 222.723 193.498C220.997 192.704 220.981 192.947 222.659 194.261C223.256 194.261 224.385 194.634 224.482 195.266C223.481 195.088 222.739 194.504 221.594 194.326C221.594 193.855 218.512 193.369 218.27 192.996C217.577 192.996 217.044 192.801 216.383 192.801C216.383 192.444 214.963 192.801 214.818 192.801C214.818 192.606 212.785 192.558 212.559 192.477C212.559 192.688 212.559 192.639 212.624 192.801C212.22 192.801 212.027 192.688 211.623 192.606C211.623 193.417 204.815 191.422 204.783 193.239C203.379 193.125 202.153 192.866 202.137 194.504C201.766 194.504 201.846 194.261 201.572 194.131C201.427 193.677 200.959 194.099 200.701 194.001C200.152 193.012 199.394 192.233 198.442 191.666C198.313 191.487 197.619 191.341 197.619 191.406C197.184 191.406 197.119 190.839 196.619 190.774C196.409 191.195 196.555 191.893 195.99 191.909C195.667 191.52 195.264 191.358 194.731 191.406C194.377 191.195 193.602 191.098 193.602 190.774C193.167 190.449 192.812 190.157 192.408 189.703C192.247 189.703 191.214 188.811 191.214 188.698C190.053 187.854 188.972 186.93 187.955 185.924C187.294 185.924 186.584 184.222 185.826 183.962C185.116 182.551 183.002 181.74 182.567 180.118C182.099 180.118 181.663 179.161 181.373 178.853C180.857 178.853 180.082 176.891 179.55 176.648C179.276 176.21 177.856 175.058 177.856 174.62C177.372 174.377 177.081 173.777 176.662 173.42C176.549 172.95 175.662 172.642 175.662 172.22C175.097 171.734 171.822 166.982 171.08 166.982C170.741 166.317 170.386 165.765 169.757 165.279C169.757 165.181 168.902 164.143 168.934 164.143C168.256 163.462 167.595 162.473 167.046 161.678C166.982 161.678 166.03 160.316 165.917 160.17C165.659 160.17 165.417 158.905 164.981 158.905C164.223 157.753 163.449 156.618 162.658 155.499C162.303 155.24 161.916 153.991 161.593 153.991C161.593 153.358 160.593 152.937 160.593 152.288C160.125 152.045 159.851 150.261 159.335 150.261C159.076 149.158 158.124 148.379 157.77 147.293C157.64 147.293 157.011 146.028 157.011 145.833C156.721 145.687 156.382 144 156.14 144C156.14 143.206 155.108 142.168 155.317 141.292C154.995 141.13 154.64 139.346 154.559 138.956C154.559 138.956 152.478 134.61 152.478 134.35C152.107 134.156 151.332 132.404 151.219 131.885C150.687 130.815 150.155 129.744 149.654 128.674C149.299 128.496 148.331 126.647 148.202 126.144C146.766 124.068 145.524 121.879 144.492 119.576C144.411 119.203 143.298 116.672 143.104 116.672C143.104 116.429 142.168 114.142 141.91 114.142C141.91 114.418 140.587 118.311 140.41 118.311C140.41 118.538 140.119 119.381 139.974 119.381C139.974 119.624 139.877 121.522 139.539 121.522C139.539 121.587 138.877 123.598 138.909 123.598C138.425 124.084 138.748 125.398 138.038 125.868C138.038 126.112 138.038 126.695 137.667 126.809C137.603 127.896 136.667 127.279 136.667 128.074C136.409 128.674 135.667 128.496 135.667 129.144C135.65 129.144 135.521 129.971 135.36 129.971C135.36 130.02 134.57 131.107 134.666 131.107C134.666 131.674 134.166 132.307 134.037 132.939C133.585 133.231 133.553 135.145 133.15 135.145C133.15 135.583 132.892 137.156 132.521 137.351C132.521 137.594 132.214 138.616 131.956 138.616C131.908 138.973 131.762 139.946 131.52 140.075C131.52 140.302 130.778 141.973 130.698 141.973C130.439 143.141 129.633 143.692 129.633 144.681C129.149 144.681 128.794 147.649 128.31 147.649C128.31 148.249 126.955 150.05 126.358 150.488C126.358 150.812 125.357 152.142 125.035 152.385C124.551 152.482 124.276 153.52 123.97 153.52C123.97 153.812 123.179 155.288 122.97 155.288C122.97 155.515 122.615 155.969 122.356 156.034C122.389 156.034 121.292 157.526 121.259 157.624C120.727 158.013 120.372 158.548 120.195 159.197C119.936 159.359 119.759 159.521 119.759 159.764C119.388 160.462 118.129 161.257 118.129 162.035C117.516 162.035 117.387 163.381 116.677 163.543C116.371 164.743 111.321 168.652 110.272 168.652C109.95 168.944 110.498 169.155 109.95 169.285C109.95 169.431 109.821 169.22 109.692 169.285C109.692 169.528 109.45 169.479 109.385 169.722C108.772 169.722 108.401 170.793 107.82 170.987C107.659 171.328 106.642 171.49 106.368 171.49C105.529 172.025 104.642 172.398 103.674 172.626C103.045 173.031 102.286 174.134 101.544 174.134C101.399 174.442 99.7212 175.35 99.7212 175.399C99.1081 175.399 98.6241 176.226 98.0271 176.226C97.4786 176.664 96.9139 177.053 96.3331 177.426C96.3331 178.091 94.752 178.497 94.4455 178.497C94.4455 178.302 95.2683 177.507 95.5748 177.426C95.7523 176.907 96.2686 177.004 96.0104 176.161C95.5264 176.096 92.5579 176.242 92.5579 176.664C91.5737 176.858 90.638 177.232 89.799 177.799C89.799 177.248 87.8791 178.788 87.7823 178.805C87.7823 179.113 87.4274 178.87 87.3467 179.178C86.8466 179.486 86.4755 179.453 86.0238 179.616C86.0238 180.086 84.2814 181.043 83.8296 181.189C83.4263 181.692 81.7807 183.021 81.1999 183.021C81.1999 182.843 81.3289 182.811 81.3289 182.584C79.7478 182.584 78.9734 184.205 77.1826 184.789C77.1826 185.097 74.6819 186.281 74.2302 186.427C76.1339 184.854 76.0533 184.497 73.972 185.357C72.391 186.33 70.826 187.319 69.2611 188.325C68.9707 188.568 68.0026 188.974 67.6961 189.395C67.4218 189.395 66.4538 189.849 66.3732 190.093C65.9698 190.093 65.5665 189.93 65.5665 190.53C64.9695 190.368 64.6307 190.628 63.937 190.595C63.8079 191.163 63.6143 191.098 63.1787 191.098C63.1787 192.006 62.3398 190.839 62.5495 191.666C62.0978 191.666 61.7267 192.233 61.3556 192.233C61.5492 192.85 59.5971 192.752 59.5971 193.125C59.5003 193.125 58.4677 193.596 58.4677 193.693C58.3225 193.693 57.7095 194.277 57.7095 193.888H57.0803C57.2093 193.304 58.016 193.19 58.016 192.688C56.5156 192.688 55.9186 193.953 54.3698 193.953C54.3698 193.709 54.4344 193.92 54.4344 193.758C54.2085 193.758 53.9342 193.515 53.6115 193.693C53.6115 193.823 53.0953 194.066 52.9823 194.066C52.9823 194.18 51.5626 194.893 51.4174 194.893C51.2561 195.234 50.7236 195.104 50.53 195.461C49.7234 195.639 49.0135 195.964 48.2713 196.288C47.9325 196.71 47.6099 196.758 47.2711 196.661C46.5612 196.758 45.8029 197.294 45.1414 197.294C44.9317 197.715 42.1083 198.883 41.9954 198.429C42.673 198.202 43.27 197.488 41.9954 197.488C41.8179 197.829 40.9467 197.861 40.5595 198.056C40.5595 198.315 38.5912 198.575 38.2363 198.623C38.3654 196.547 35.2193 198.818 34.5256 198.818C34.5256 198.786 32.3314 199.515 32.1378 199.515C32.041 199.856 30.7987 200.391 30.3793 200.407C30.3793 200.18 30.6697 199.953 30.8149 199.71C30.7181 199.71 30.6213 199.661 30.5567 199.58C31.6377 199.58 32.8316 198.056 34.0739 197.812C34.3481 197.245 36.4616 196.888 36.4616 196.483C36.9295 196.32 39.7206 195.023 39.7206 194.715C39.9626 194.666 41.2855 194.017 41.2855 193.823C41.705 193.823 41.8502 193.677 41.9147 193.255C41.4953 193.255 42.2213 192.509 42.2213 193.061C41.947 193.044 41.8663 193.174 41.9631 193.434C43.1248 193.19 43.7701 192.217 44.722 191.974C45.0124 191.406 46.5773 191.39 46.416 190.579C46.9323 190.498 49.4975 189.265 49.2394 188.876C49.2394 188.876 50.1428 189.006 49.804 188.682C50.2074 188.682 50.643 188.163 50.8043 188.049C51.2883 188.049 51.4497 187.53 52.1273 187.222C52.1918 187.222 54.1924 186.298 54.1924 186.33C54.6764 186.168 55.7573 185.6 56.0154 185.195C56.451 185.065 57.774 184.481 57.9676 184.124C58.7581 184.124 59.3873 183.07 60.2263 182.924C60.307 182.632 61.3072 182.032 61.6138 182.032C61.6138 181.497 64.2597 180.913 64.2597 179.956C64.905 180.118 65.6633 178.934 66.4538 178.756C66.6474 178.48 67.7768 177.75 67.7768 177.686C68.0026 177.686 69.7289 176.599 69.7289 176.356C70.0516 176.275 71.8102 175.156 71.8102 174.961C72.036 174.961 72.7459 174.393 72.875 174.199C73.5848 174.02 73.8752 173.29 74.569 173.128C74.6335 172.836 75.537 172.123 75.8274 172.123C76.0049 171.782 77.2956 170.793 77.586 170.793C78.0538 170.079 78.9573 169.901 79.4736 169.22C80.1673 169.22 82.1033 167.111 82.6841 166.446C83.2811 166.446 84.475 164.727 84.8783 164.419C85.1687 164.078 86.3787 163.268 86.3787 162.846C86.5078 162.846 87.9437 161.37 87.9437 161.273C89.2344 160.316 90.4282 159.245 91.5253 158.045C91.5253 157.688 92.8644 156.326 93.1548 156.083C93.2355 155.856 94.3003 154.51 94.4132 154.51C94.7682 153.812 96.1072 152.969 96.1072 152.239C97.0107 151.785 97.1398 150.228 97.9949 149.644C98.2691 148.525 99.5275 147.747 99.818 146.611C100.431 146.611 101.109 144.081 101.706 143.773C101.706 143.497 102.464 142.378 102.706 142.265C102.706 141.649 103.755 140.854 103.964 140.238C104.271 140.238 106.223 136.88 106.223 136.507C106.981 136.151 107.562 132.972 108.175 132.972C108.175 131.918 109.498 130.928 109.498 129.874C109.837 129.874 110.127 127.733 110.434 127.733C110.498 127.425 111.289 125.268 111.434 125.268C111.434 124.165 112.563 123.111 112.563 122.041C113.064 121.781 113.354 119.251 113.564 118.7C113.935 118.521 114.693 115.959 114.693 115.472C115.08 115.278 115.193 113.202 115.564 113.202C115.693 112.585 116.129 111.856 116.129 111.369C116.516 111.369 117.5 106.617 117.516 105.936C116.581 105.936 109.224 107.104 109.224 107.266C108.449 107.266 107.659 107.704 106.707 107.704C106.707 107.915 105.061 107.898 104.884 108.271C104.4 108.271 100.237 109.326 100.237 109.407C99.818 109.455 98.0271 109.747 97.8497 110.104C97.6883 110.169 97.172 110.299 97.0268 110.299C97.0268 110.445 95.8814 110.607 95.7039 110.607C95.7039 110.753 91.6383 111.402 91.1865 111.483C91.0252 111.807 88.105 110.98 88.105 111.921C87.621 111.888 83.8296 111.904 83.8296 111.726C83.1682 111.726 82.6842 111.158 82.0711 111.158C82.0711 110.412 78.7798 110.85 78.2958 110.785C78.2958 110.51 75.0853 109.991 75.0853 109.78C74.7787 109.78 74.3593 109.277 73.9559 109.277C72.9879 108.369 71.9715 107.558 70.8744 106.812C70.2291 106.812 69.8903 105.547 69.4224 105.547C69.2127 105.222 67.7284 104.59 67.7284 104.347C67.5348 104.347 63.3885 102.417 63.3885 102.384C61.9526 102.384 60.8716 100.973 59.4357 100.616C59.4357 100.227 56.1768 98.4756 55.8541 98.4756C55.8541 98.2323 53.8697 96.205 53.4663 96.0104C53.2243 95.7185 52.1918 93.9831 52.0789 93.9831C51.7723 93.3668 50.6268 93.5452 50.6268 92.7829C50.7236 92.7829 50.6914 92.8478 50.7559 92.9127C50.7398 92.8154 50.6914 92.7343 50.6268 92.6532C51.2399 92.6532 50.4332 92.0693 50.4332 91.8909C49.8847 91.8909 49.562 91.4855 49.1748 91.1287C49.1103 91.0152 48.0293 90.6421 49.1103 90.6259C50.4332 90.2529 51.7723 90.2529 53.1275 90.6259C56.322 90.334 59.5325 90.2691 62.7431 90.4313C63.1142 90.4313 66.0666 89.9123 66.0666 89.669C66.7281 89.669 72.278 88.1283 72.278 87.7066C72.5684 87.7066 74.4722 87.2039 74.4722 86.9444C74.811 86.8633 76.6018 86.5389 76.6018 86.247C77.1665 86.5227 78.199 85.6307 78.8605 85.5496C78.8605 85.6956 80.2157 85.1766 80.5545 85.1766C80.5545 85.0306 83.1682 84.2684 83.3134 84.4792C83.2004 84.4468 84.8944 83.944 84.7976 83.9926C85.1203 83.798 86.2174 83.8629 86.3303 83.4574C86.4755 83.4088 86.5239 83.4737 86.4594 83.6521C86.7659 83.5872 87.1531 83.3926 87.1531 83.2142C88.1373 83.4412 88.8472 82.7114 89.912 82.7114C89.912 82.3384 92.6063 82.3222 92.6063 81.8843C93.0419 82.0302 94.5262 81.5437 94.9295 81.4464C94.9295 81.0247 96.0266 81.2193 96.2524 81.2518C96.2524 81.0409 97.3173 80.7814 97.3173 80.749C98.0917 80.6192 98.8338 80.0192 99.705 80.1813C99.8502 79.8732 101.157 80.0029 101.157 79.6786C101.512 79.6299 102.464 79.6299 102.609 79.3704C103.448 79.3704 103.69 79.0623 104.497 79.0623C104.497 78.5595 106.949 78.9812 106.949 78.4298C107.11 78.4298 110.466 77.8946 110.466 77.6026C110.869 77.7324 113.87 77.1972 114.112 76.7269C114.661 76.7269 121.211 75.2672 121.211 75.2186C125.583 75.2186 125.551 56.3567 125.551 53.3077C125.922 53.3077 126.438 40.8683 126.438 39.6681C127.229 34.7864 127.713 29.8885 127.874 24.9581C128.084 24.9581 128.1 19.7521 128.003 19.3953C127.955 18.633 127.697 17.368 126.809 17.368C126.519 16.9139 125.696 16.6382 125.486 16.2327C123.905 16.2327 121.647 11.6916 120.469 10.7347C120.469 10.0049 119.21 9.38859 119.21 8.59389C119.501 8.26952 119.098 7.75054 119.017 7.45861C118.791 7.34508 118.823 6.43686 118.888 6.19359C119.662 5.98275 119.356 5.72326 119.194 5.18805C118.581 4.81503 118.226 4.26361 118.129 3.55001C117.904 2.18767 122.534 2.33364 122.534 2.09036C124.405 2.09036 126.874 2.75531 128.132 0.89021C128.39 0.841555 130.585 -0.0504498 130.585 0.257697C131.585 0.257697 132.166 1.40919 133.037 1.70112" fill="#E4E9F0"/>
<path fill-rule="evenodd" clip-rule="evenodd" d="M116.468 233.477C116.775 233.509 117.807 234.207 117.807 234.466C118.388 234.466 118.872 235.585 119.34 235.893C119.388 236.088 120.453 237.385 120.372 237.385C120.372 237.758 121.534 239.137 121.84 239.121C121.84 239.429 123.276 240.856 123.631 240.856C124.293 241.229 124.341 242.073 124.906 242.348C125.245 242.705 125.922 243.256 126.051 243.532C126.713 243.743 127.616 244.635 128.213 244.635C128.342 244.83 129.504 246.127 129.488 246.127C130.391 247.376 131.375 248.56 132.44 249.679C132.908 249.955 133.457 251.495 133.731 251.495C133.731 251.658 134.408 253.068 134.441 253.068C134.441 253.879 135.086 254.269 135.102 255.144C135.635 255.144 135.86 260.367 136.264 260.367C136.264 260.918 136.683 261.567 136.49 262.329C136.796 262.329 135.457 264.648 135.457 264.616C135.134 264.843 134.844 265.524 134.844 265.832C134.538 265.832 134.538 266.4 134.296 266.416C134.296 266.773 133.57 267 133.376 267.308C133.263 267.308 129.326 269.465 129.326 268.768C128.455 268.719 128.036 268.541 127.181 268.557C127.181 268.768 124.551 269.076 124.551 269.238C124.115 269.238 120.356 270.292 120.356 270.26C120.146 270.26 117.968 270.26 117.968 270.487C117.323 270.487 116.742 271.265 116.161 271.282C116.161 271.395 114.661 272.06 114.484 272.076C114.225 272.612 112.515 272.255 112.241 272.871C110.37 273.325 108.466 273.633 106.53 273.795C105.965 273.795 102.383 274.023 102.383 273.795C102.222 273.747 100.56 274.055 100.56 274.152C99.7053 274.152 99.0277 274.298 98.1081 274.314C98.1081 273.893 92.8485 275.417 92.4774 275.434C92.4774 275.661 91.6062 275.693 91.4126 275.709C91.332 276.666 91.9934 277.136 92.5097 277.769C94.4941 278.385 96.7206 283.818 98.7695 283.786C99.3342 284.5 101.302 285.246 101.319 286.332C101.77 286.332 101.835 290.176 102.642 290.16C102.642 290.63 103.464 294.376 103.529 294.376C103.529 294.652 103.287 295.917 103.739 296.144C103.739 296.988 105.207 297.069 105.191 296.679C105.449 296.679 107.691 295.998 107.691 295.933C108.805 295.625 110.773 294.685 112.128 294.847C112.144 296.128 116.678 291.944 116.42 291.992C116.791 291.003 117.436 290.727 118.356 291.198C119.453 291.327 120.501 291.117 121.486 290.581C121.76 290.776 122.082 290.922 121.873 291.263C122.002 291.263 122.131 291.311 122.131 291.506C122.502 291.506 123.002 291.311 123.018 291.992C123.551 291.717 125.261 293.274 125.874 293.274C125.874 293.403 127.745 293.679 128.084 293.679C128.084 293.582 130.553 294.36 130.859 294.393C130.859 294.733 133.844 295.577 134.344 295.658C134.344 295.82 135.215 296.971 135.376 296.971C136.699 298.755 137.49 300.783 137.748 303.053C136.522 303.069 137.651 303.961 138.087 304.253C138.458 304.626 138.797 305.016 139.119 305.437C139.716 305.437 139.232 306.329 139.265 306.573C138.748 306.573 140.862 307.659 140.846 307.367C141.346 307.692 140.91 307.919 140.926 308.259C140.297 308.259 140.071 309.168 140.636 309.589C141.023 310.692 139.829 310.27 139.329 310.173C139.119 310.514 138.635 310.66 138.281 311.081C137.78 312.444 136.667 312.93 134.973 312.525C134.183 312.525 133.634 312.233 132.956 312.249C132.956 312.444 130.649 312.898 130.391 312.865C130.391 313.141 128.116 313.271 127.761 313.417C127.229 313.53 126.777 313.773 126.39 314.13C126.084 314.406 125.858 314.455 125.583 314.455C125.583 314.357 123.325 315.249 123.147 315.266C123.147 315.395 120.195 316.32 119.84 316.206C119.84 316.969 118.581 316.401 118.275 316.871C118.339 316.855 118.356 316.871 118.339 316.936C117.823 316.936 117.581 317.39 117.097 317.406C117.097 317.374 116.468 317.358 116.403 317.358C116.403 317.958 113.903 318.298 113.903 318.412C113.499 318.412 111.273 319.239 111.289 319.336C110.176 319.353 109.547 320.05 108.482 320.212C108.417 320.374 107.207 320.634 106.981 320.682C106.981 320.504 105.642 321.185 105.417 321.218C105.417 320.699 103.174 322.969 103.819 322.953C103.819 323.894 103.384 325.224 103.755 326.294C103.561 326.294 103.593 328.127 103.674 328.386C103.674 328.386 103.852 331.338 103.852 331.614C103.884 331.614 103.932 332.149 103.932 332.246C103.739 332.246 104.82 333.057 105.207 333.041C105.352 333.317 106.965 333.949 107.304 333.949C107.304 334.354 109.708 334.695 109.966 335.165C110.434 335.165 111.192 335.052 111.483 335.587C111.951 335.587 112.338 336.268 112.822 336.252C112.822 336.657 115.161 337.16 115.419 337.728C116.533 338.068 117.613 339.463 118.775 339.431C118.775 339.917 121.808 340.209 121.808 340.582C122.873 340.826 123.857 341.117 124.825 341.101C124.825 341.15 125.712 341.782 125.842 341.782C125.842 342.415 126.116 342.837 126.132 343.615C126.148 343.615 126.81 344.718 127.035 344.864C127.035 345.318 128.31 345.578 128.31 346.113C128.568 346.275 129.617 347.297 129.649 347.605C130.423 347.783 129.988 349.746 130.633 349.729C131.004 351.221 131.262 352.941 131.279 354.514C131.359 354.514 131.537 355.163 131.537 355.26C132.021 355.26 131.617 356.476 131.569 356.768C131.295 358.114 130.811 359.396 130.133 360.579C130.133 360.774 129.956 360.952 129.827 361.163C129.762 361.163 129.052 361.471 129.02 361.617C128.762 361.617 128.536 362.623 128.536 362.882C128.826 362.882 128.197 363.353 128.165 363.401C127.471 363.58 127.987 364.066 127.116 364.18C127.116 363.482 122.437 362.363 122.437 361.99C122.324 361.99 121.631 361.634 121.792 361.504C121.227 361.504 120.856 361.536 120.292 361.844C120.292 362.266 117.92 362.72 117.904 362.201C117.517 362.104 116.92 361.423 116.629 361.52C115.387 360.417 114.064 359.444 112.612 358.617C112.128 358.017 110.966 358.082 110.644 357.449C110.224 357.32 107.788 355.99 107.788 355.536C107.24 355.536 106.804 354.481 106.255 354.498C105.529 353.687 104.465 353.119 103.835 352.324C103.835 351.724 103.222 352.081 103.384 352.081C103.384 352.568 103.948 354.871 103.497 355.114C103.497 355.163 102.948 356.703 103.4 356.687C103.335 357.741 103.255 358.958 103.577 359.898C102.706 359.947 103.916 366.207 103.577 367.342C103.513 367.342 103.142 371.592 103.416 372.078C103.271 372.386 103.803 376.425 103.497 376.441C103.497 376.717 103.238 378.144 103.4 378.144C103.4 378.679 103.529 379.652 103.384 380.285C103.351 382.377 103.239 384.469 103.061 386.545C103.384 386.545 103.287 393.681 103.368 393.681C103.368 394.524 103.529 395.076 103.658 395.887C103.464 395.984 103.723 399.941 103.739 400.493C104.077 400.493 104.013 404.093 104.174 404.077C104.207 406.023 104.255 408.002 104.465 410.256C103.835 412.656 105.433 415.284 103.965 417.473C103.965 417.7 103.932 418.235 103.852 418.479C103.787 418.479 103.222 421.917 103.222 422.16C103.529 422.16 102.19 423.798 102.174 423.506C102.045 423.604 101.496 424.333 101.496 423.96C101.077 423.96 101.367 423.279 101.351 423.15C100.996 422.939 100.738 422.387 100.399 422.906C99.3181 423.539 99.0599 424.674 99.6407 426.328C99.6407 427.918 99.2374 428.031 98.3823 426.669C97.624 426.669 97.0594 427.318 96.2688 427.464C96.2527 426.134 95.204 428.307 95.3331 428.242C95.3331 428.956 95.0911 428.745 94.8329 428.761C94.5748 427.464 93.9617 427.285 93.0099 428.226C92.6227 427.707 92.6227 427.382 92.6065 426.847C92.7679 426.847 91.8805 425.274 91.7514 425.096C90.9448 424.804 90.1704 424.463 89.4121 424.058C89.0571 424.058 88.7183 423.409 88.0891 423.766C87.5729 424.593 87.0727 423.279 87.1373 423.279C87.1373 422.485 86.3467 422.906 85.9918 422.922C85.7982 423.247 84.0719 424.236 84.0558 423.782C83.7653 423.474 83.7815 421.82 83.5879 421.836C83.5879 420.944 83.2652 420.036 83.1684 419.257C83.5072 418.868 81.5067 414.424 82.2004 414.408C82.0229 413.159 81.2808 412.137 81.2647 411.083C80.9581 411.083 80.7161 407.645 80.0062 407.32C79.9901 406.039 78.651 404.969 78.6188 403.866C78.4413 403.752 77.8605 402.877 78.167 402.86C78.0702 402.52 77.4733 401.968 77.2151 401.806C76.8279 401.806 76.0213 400.817 75.9406 400.817C76.1019 400.282 74.0207 399.082 73.5851 399.033C73.4722 398.871 72.8914 398.741 72.8914 398.611C72.5848 398.563 72.1492 398.157 71.7459 397.946C70.6972 397.963 70.9553 396.714 70.1487 396.843C69.7453 396.292 69.2775 395.822 68.745 395.416C68.4224 394.751 67.5189 394.589 66.8413 394.508C66.68 394.184 65.7603 393.989 65.7603 393.892C64.4697 393.73 63.8889 393.048 64.0341 391.832C64.0341 391.67 64.3729 391.2 64.4051 391.2C64.3245 390.599 64.147 390.567 64.1309 390.064C63.9857 389.48 63.6469 389.042 63.0983 388.751C63.2112 388.345 62.8724 388.037 62.582 387.81C62.7272 387.567 62.824 387.761 62.824 387.421C63.1628 387.421 62.2271 387.631 63.1951 387.421C63.1306 387.015 63.066 385.912 62.4852 385.912C62.4691 385.848 61.3882 384.793 61.6463 384.793C61.5495 384.566 61.243 383.642 61.243 383.48C61.1462 383.285 61.5011 382.847 61.7915 382.782C61.7754 382.377 61.9044 382.166 61.9044 381.777C63.4532 381.744 61.243 380.301 61.243 379.895C60.8719 379.895 60.3233 379.149 60.162 379.149C60.3556 378.939 63.5823 381.209 63.905 381.615C64.9214 381.842 66.2121 383.09 67.2608 383.074C67.5189 383.626 68.7773 383.22 69.0354 383.739C69.6808 383.739 70.3907 384.469 71.1167 384.453C71.1167 384.842 73.327 384.891 73.327 385.296C73.4883 385.296 74.4563 385.523 74.4563 385.653C75.0371 385.864 75.6179 385.896 76.2149 385.75C76.2149 386.529 77.1022 386.01 77.3603 386.48C78.7317 386.739 79.6674 387.583 81.1517 387.55C81.2485 377.203 82.7489 367.651 82.5553 356.963C82.6199 356.947 82.636 356.963 82.6199 357.028C82.6037 355.698 82.6199 354.368 82.6844 353.038C82.4908 353.005 82.0552 352.908 82.0552 353.184C81.7487 353.184 80.3289 354.725 80.3289 354.919C79.8288 354.919 79.7642 355.876 79.3448 355.892C79.3448 355.925 78.5865 356.768 78.4736 356.849C78.4736 357.53 76.4407 358.828 76.0051 359.477C76.0374 359.477 74.7628 360.774 74.779 360.888C74.0207 361.066 73.456 362.428 72.7946 362.445C72.7946 362.753 70.794 364.375 70.5036 364.375C69.584 365.153 68.6321 365.883 67.648 366.58C66.9704 366.58 66.567 367.537 65.7926 367.813C65.7926 368.088 65.0182 368.526 64.8085 368.526C64.5665 368.899 63.8727 368.932 63.7598 369.435C63.1628 369.435 63.179 370.246 62.5175 370.278C62.5175 370.7 60.8396 371.689 60.5976 372.078C60.5008 372.078 59.4844 373.1 59.4844 373.165C58.8391 373.165 58.5648 374.251 57.9356 374.268C57.258 375.338 55.9673 375.208 55.209 376.408C54.2733 377.057 53.4666 377.852 52.8051 378.793C52.2243 379.084 48.6104 382.215 48.4813 382.847C47.5456 383.755 46.5937 384.647 45.6418 385.556C45.3676 385.556 45.3837 385.669 45.3998 385.88C44.9965 385.88 44.577 385.766 44.5932 386.399C45.061 386.399 43.7865 386.983 43.7865 387.113C43.4961 387.323 42.9798 387.567 42.8023 387.826C42.2861 387.826 42.3345 388.572 41.7537 388.734C41.7537 389.026 41.0761 389.691 40.8341 389.707C40.7534 389.967 39.9628 390.405 39.979 390.664C39.624 390.664 39.2368 391.686 38.9303 391.686C38.6722 391.962 37.688 392.497 37.688 392.659C37.0911 393.081 36.8975 394.07 36.2037 394.265C36.1392 394.589 35.2519 395.351 35.2196 395.351C34.9937 395.692 34.3161 396.195 34.2354 396.698C33.816 396.779 31.4927 398.352 31.5089 399.082C31.1539 399.082 29.9278 400.622 29.8471 400.882C29.6697 400.882 28.7985 401.839 28.7985 402.033C26.6366 403.898 24.4908 405.796 22.3612 407.71C22.3612 407.872 21.2641 408.618 21.0544 408.553C21.0866 408.196 22.1514 406.412 21.7642 406.331C21.7642 406.802 20.0218 407.207 20.0218 407.694C19.4894 408.148 19.2474 408.196 18.5859 408.294C18.5859 408.196 15.4399 409.04 15.0204 409.559C15.0204 409.883 13.4393 410.759 13.1005 410.791C13.1005 411.359 11.1 411.781 10.858 412.283C9.29303 412.802 9.05102 412.316 10.1481 410.84C11.4549 409.883 12.6972 408.861 13.8588 407.742C14.2299 407.061 15.1979 406.493 15.5206 405.812C15.811 405.812 17.6018 404.158 17.6825 403.882C18.8441 402.796 20.0057 401.709 21.135 400.606C21.3448 400.606 22.7484 399.211 22.7484 399.065C23.3292 399.065 23.3131 398.173 23.7971 398.157C24.1359 397.411 25.2975 397.038 25.6524 396.292C25.9267 396.081 26.7656 395.465 26.7656 395.141C27.54 395.141 27.9595 393.389 28.75 393.211C29.9278 391.929 31.1378 390.697 32.3962 389.48C32.3962 389.14 34.0257 387.599 34.3 387.372C34.4936 386.739 36.478 384.81 36.7684 384.793C38.172 383.042 39.624 381.323 41.1406 379.668C41.915 379.133 44.9804 376.181 44.9642 375.306C46.3033 373.635 47.6585 371.965 49.0299 370.31C49.53 369.613 50.7723 368.64 50.8691 367.748C51.5306 367.586 51.6435 366.418 52.1598 366.142C52.6277 365.591 53.0471 364.423 53.6925 364.099C53.6925 363.774 54.8702 362.428 55.1122 362.428C55.1122 361.666 56.5965 360.677 56.9514 359.866C58.0647 358.503 59.1456 357.109 60.2104 355.698C60.2104 355.244 61.7108 353.476 62.1142 353.135C62.1142 352.616 63.1628 352.113 63.1628 351.611C63.7275 351.254 63.7598 350.492 64.3245 350.2C64.3245 349.892 65.9539 347.637 66.0346 347.637C66.5348 346.956 67.0188 345.464 67.8093 345.01C67.8093 344.491 68.8741 342.966 69.2774 342.642C69.2774 342.399 70.6649 340.031 70.8101 340.031C70.8101 339.707 71.7297 337.809 72.0847 337.598C72.0847 336.949 73.8271 335.344 73.3592 334.728C71.7943 335.376 70.2616 336.09 68.745 336.836C67.8416 337.306 66.9542 337.777 66.0669 338.279C65.599 338.409 62.695 339.593 62.7111 339.982C61.5334 340.225 60.3556 340.923 59.2263 341.555C59.2263 341.799 56.29 342.431 56.29 342.869C55.1284 342.885 54.0797 343.972 52.8535 344.134C52.8535 344.394 50.3851 345.448 50.1754 345.448C50.1754 345.594 47.2068 346.891 46.8035 346.778C46.8035 347.264 41.9795 349.551 41.7537 349.146C42.1731 349.146 42.5603 348.302 43.0605 348.302C43.0605 347.994 44.8997 347.572 45.1094 347.134C45.3353 347.134 46.142 346.761 46.2226 346.551C47.11 346.551 48.3523 345.367 49.3364 345.107C49.3364 344.491 52.0469 344.28 52.3857 343.729C53.0794 344.085 54.6121 342.674 55.2574 342.658C55.2574 342.058 58.0163 341.88 58.0001 341.409C58.5164 341.409 59.1456 340.696 59.8071 340.68C59.8071 340.031 62.3239 339.366 62.8563 339.366C62.9854 339.123 63.9534 338.652 64.1631 338.652C64.1631 338.555 65.9539 337.679 66.1475 337.663C66.1475 337.241 69.0839 336.674 69.0677 336.155C70.1809 335.96 71.0844 334.792 72.246 334.776C72.246 334.646 73.1818 334.322 73.3108 334.322C73.3108 334.517 73.8432 333.998 73.811 333.998C73.811 333.592 74.182 333.333 74.1659 332.927C73.7303 332.181 73.2463 332.165 72.7139 332.895C71.8588 333.43 71.2296 333.69 70.3423 334.014C70.3423 334.225 67.6641 335.263 67.3414 335.263C66.8252 335.879 66.1798 336.317 65.4215 336.56C64.8891 336.755 64.3729 337.209 63.8566 337.225C63.5662 337.695 62.8724 337.452 62.6143 337.874C62.0496 338.02 61.5334 338.604 61.001 338.717C61.001 339.042 60.5492 338.96 60.4363 339.171C59.8232 339.09 59.7748 339.69 59.2585 339.707C59.2585 340.112 58.2744 339.917 58.0647 339.917C57.9033 340.874 56.1286 340.534 55.7737 341.28C54.725 341.296 53.9506 342.512 52.8374 342.35C52.8374 342.577 51.466 343.242 51.1595 343.323C51.1595 343.518 50.0463 343.648 49.9172 343.907C49.5623 343.907 45.174 345.691 45.174 346.015C44.8836 346.097 43.2379 346.794 43.2379 347.005C42.6733 347.005 42.2377 347.653 41.673 347.67C41.3503 348.189 40.3016 348.205 39.866 348.205C39.7047 348.529 38.4302 348.854 38.4302 349.048C37.93 349.048 36.2844 349.648 36.0585 350.102C35.3971 350.248 35.0744 350.946 34.3806 350.946C34.3806 351.546 31.6218 352.13 31.3153 352.13C31.3153 352.113 28.4758 353.379 28.2015 353.379C26.927 353.93 25.6363 353.833 24.3617 353.07C23.9907 352.6 22.4902 351.968 21.9578 351.984C21.9578 352.049 19.6185 351.157 19.6185 351.27C19.3926 351.27 18.1665 351.043 18.1665 351.043C17.2307 351.059 16.1175 350.216 15.3915 350.589C15.3915 350.492 11.8744 349.94 11.4872 349.908C11.4872 349.778 9.64797 349.308 9.40596 349.308C9.29303 349.081 8.51862 349.064 8.51862 348.886C8.09915 348.886 7.2118 348.14 6.9214 347.783C6.5826 347.783 5.59845 347.134 5.58232 346.794C5.11445 346.486 4.2271 345.561 3.7431 345.561C3.45269 344.994 1.96841 344.231 1.95228 343.631C3.48496 343.891 1.83934 342.058 1.61347 341.685C1.87161 341.685 0.580928 340.08 0.580928 339.998C0.548661 339.998 2.29108 340.161 1.51667 339.788C1.51667 339.139 1.21014 339.366 1.0004 338.977C0.403459 338.977 -0.0805462 338.036 -0.0966797 337.663C0.225991 337.663 0.274391 337.614 0.274391 337.274C0.371192 337.306 1.85548 338.085 1.85548 337.874C2.87189 337.858 3.66243 337.549 4.61431 337.387C4.61431 337.306 4.58204 337.274 4.54977 337.193C7.38927 336.544 10.0029 335.392 12.4068 333.771C12.8908 333.771 13.4716 333.041 14.0201 332.927C14.1815 332.668 15.1495 332.149 15.456 332.149C15.6658 331.678 17.4243 330.851 17.9406 330.835C18.3439 329.943 20.3929 330.024 20.8608 329.262C21.1673 329.262 22.5386 328.743 22.5386 328.532C24.152 327.754 25.7976 327.056 27.4594 326.424C27.4594 325.791 29.4599 325.726 29.4438 325.191C29.8794 325.191 32.122 324.137 32.122 323.942C33.5256 323.553 34.1064 322.742 35.5423 322.239C35.6713 322.483 35.6068 322.304 35.7359 322.304C35.8811 322.126 35.6713 322.029 36.236 322.11C36.236 322.045 36.5264 321.915 36.6071 321.785C37.1233 321.445 37.6558 321.137 38.2204 320.877C38.6883 320.78 38.8819 320.488 39.2852 320.472C39.4627 320.099 40.8825 319.612 41.3987 319.417C41.3987 319.223 42.5442 318.963 42.7701 318.817C43.0282 318.266 45.8354 317.796 45.8193 317.309C46.384 317.196 50.5142 315.817 50.498 315.395C51.1111 315.395 56.9837 313.044 56.9837 312.817C57.4354 312.687 59.8555 311.908 59.8555 311.698C60.0491 311.698 63.0983 310.611 63.0983 310.433C63.421 310.433 64.4374 310.092 64.5987 309.832C66.2282 309.8 67.648 308.259 69.2774 308.227C69.2774 308.048 71.4716 307.432 71.7136 307.432C72.0363 306.751 74.2788 307.01 74.5854 306.378C74.8919 306.329 76.7473 306.037 76.8279 305.648C77.5055 305.551 77.8282 305.243 78.3929 305.243C78.5381 304.935 80.7161 304.837 80.7 304.448C81.7003 304.432 82.3617 303.783 83.2652 303.767C83.2652 303.572 83.959 303.621 84.1364 303.621C84.1364 303.361 84.7334 303.345 84.9431 303.28C84.927 302.778 85.1528 302.388 85.0399 301.886C85.3787 301.886 85.0399 299.291 85.4916 299.291C85.6852 298.577 85.7014 297.198 85.6852 296.128C85.8627 294.052 86.1208 291.976 86.4596 289.916C86.4435 288.846 87.0566 286.511 85.895 285.943C85.6691 285.116 84.6688 284.337 84.6527 283.624C84.572 283.624 83.9428 282.537 83.8783 282.31C83.6363 282.197 82.6844 280.899 82.5876 280.558C82.2327 280.477 81.7809 279.634 81.4583 280.331C80.4257 280.834 79.3932 281.305 78.3445 281.775C78.0702 281.775 76.6182 282.18 76.5375 282.375C75.6986 282.375 75.4082 283.153 74.7306 283.17C74.7306 283.51 71.6007 283.964 71.6168 284.483C71.3425 284.483 68.503 285.7 68.4869 285.359C67.6157 285.359 65.7926 286.932 64.9859 286.494C64.9859 287.127 62.9854 287.176 63.0015 287.662C62.453 288.23 61.0655 288.1 60.6944 288.846C59.4683 288.862 58.8713 289.608 57.6936 289.852C57.5645 290.289 55.2574 290.808 55.2736 291.23C53.6279 291.538 51.9984 291.927 50.3851 292.398C49.9656 292.576 47.5779 293.355 47.5779 293.776C46.8357 293.776 46.7551 294.247 46.1904 293.29C45.6741 293.468 45.2385 293.306 44.8029 293.322C44.8029 292.917 43.6574 293.387 43.5445 293.403C43.4961 291.376 40.8986 293.225 40.8825 292.382C40.7695 292.382 39.4304 291.636 39.4304 291.782C38.9948 291.782 38.4302 292.171 38.1236 292.187C38.0914 290.76 35.5907 291.668 34.8485 291.863C34.8324 290.89 37.4137 290.679 37.7687 289.916C38.4302 289.916 39.1562 288.749 39.8822 288.749C39.8822 288.343 41.9957 287.889 41.9957 287.321C42.399 287.321 43.9478 286.073 43.851 285.765C43.964 285.765 43.9801 285.829 44.1576 285.765C44.1576 285.683 43.9801 285.683 44.0285 285.635C44.7545 285.635 45.3514 284.516 46.0774 284.645C46.626 283.851 47.7553 283.867 48.1909 282.959C48.5136 283.04 48.8685 282.505 48.8685 282.132C49.1267 282.002 51.0466 280.996 51.0466 281.077C51.1434 281.077 51.9017 280.575 51.8855 280.607C52.0469 280.364 51.9178 280.396 51.9016 280.104C52.4341 280.185 52.3695 279.666 53.031 279.634C53.031 280.315 53.3859 279.018 54.0797 278.985C54.0797 278.807 55.1768 278.223 55.451 278.272C55.564 277.834 56.3061 278.142 56.0641 277.574C56.1609 277.574 58.6132 276.228 58.6132 276.147C59.2585 276.293 59.6941 275.239 60.2911 275.239C60.6944 274.671 61.4366 274.574 61.969 274.201C61.969 273.536 63.0822 273.698 63.2758 273.098C64.7762 272.352 66.2443 271.541 67.6964 270.682C67.6964 270.568 69.1161 269.708 69.3743 269.708C69.3743 269.4 71.0037 269.271 70.9876 268.735C71.7136 268.573 72.5042 268.411 72.9236 267.762C73.7948 267.405 74.6015 266.951 75.3437 266.384C75.505 266.043 77.2635 264.956 77.6507 264.956C79.4577 263.416 81.3131 261.956 83.2329 260.561C83.8622 260.561 84.5882 260.042 85.169 260.026C85.169 259.637 87.2018 258.599 87.5245 258.339C87.5245 258.177 88.9442 257.35 89.2023 257.301C89.5412 256.701 90.5253 256.669 90.8157 256.069C90.9609 256.02 92.9937 254.771 92.9937 254.642C93.51 254.236 94.3167 253.831 94.6716 253.279C95.3169 253.279 95.9462 252.047 96.656 251.852C97.6563 251.074 98.6566 250.311 99.6891 249.582C99.8989 249.241 101.432 248.544 101.415 248.09C102.448 247.96 102.835 246.435 103.9 246.16C103.965 245.916 104.997 245.073 105.271 244.992C105.271 244.716 106.062 244.116 106.32 243.905C107.385 242.754 107.788 241.472 107.514 240.029C107.546 239.98 106.965 238.975 106.869 238.91C107.094 238.294 107.014 237.726 106.594 237.207C106.772 237.207 108.53 236.704 108.53 236.737C109.272 236.737 110.063 236.704 110.724 236.704C111.112 236.558 111.741 236.429 112.225 236.429C112.225 236.347 113.225 234.936 113.516 234.58C113.935 234.482 116.065 232.715 116.323 233.639" fill="#E4E9F0"/>
<path fill-rule="evenodd" clip-rule="evenodd" d="M85.9595 477.529C85.9595 477.853 88.3472 478.307 88.3472 478.599C89.3475 478.599 90.1219 479.67 90.9931 479.67C90.9931 480.124 93.6713 481.502 94.1392 481.502C96.1236 482.265 97.9467 483.319 99.6084 484.665C100.173 484.665 100.609 485.606 101.125 485.606C102.512 487.195 104.061 487.844 105.707 489.011C105.707 489.19 106.836 489.92 106.965 490.276C107.094 490.276 107.336 491.298 107.336 491.477C107.917 491.785 107.869 493.39 108.724 493.812C108.837 494.266 109.305 494.736 109.724 494.639C109.724 495.012 109.143 497.104 109.66 497.104C109.66 497.558 110.676 498.969 109.966 499.31C109.966 499.359 109.74 500.38 109.966 500.38C110.144 500.624 110.66 500.997 110.66 501.256C111.241 501.564 111.289 502.018 111.289 502.651C110.176 502.586 108.546 502.473 107.901 503.348C107.82 503.348 107.756 503.575 107.643 503.656C107.643 503.835 106.384 503.884 106.384 504.289C105.223 504.678 104.077 505.1 102.932 505.554C102.658 505.554 100.98 506.17 100.98 506.122C100.302 506.122 99.8988 506.543 99.1567 506.624C99.0115 506.9 97.4627 507.208 97.4627 507.565C97.1077 507.598 95.0749 508.052 95.0749 508.198C94.8329 508.068 91.3642 509.203 91.3642 509.333C90.138 509.333 88.9926 510.338 87.7825 510.338C87.7825 510.711 84.814 510.76 84.5881 511.214C82.9909 511.214 81.9583 512.155 80.3127 512.155C80.3127 512.674 74.666 512.82 74.666 513.16C73.456 513.355 72.488 513.598 71.0198 513.598C71.0198 513.777 68.1965 513.777 67.9383 513.906C67.9383 513.89 61.9689 513.404 61.9689 513.842C60.9848 513.923 60.0329 513.744 59.1456 513.274C58.9358 513.274 57.5161 513.193 57.5161 513.274C56.9675 513.404 56.3867 513.728 55.8866 513.906C55.8866 513.306 55.7414 512.366 55.1928 512.009C54.8702 511.668 53.2407 511.944 52.9341 511.944C52.5147 512.593 51.708 512.09 52.2404 511.749C52.2404 511.733 52.9019 510.614 52.5631 510.614C52.4179 510.063 51.2563 509.479 50.8045 509.479C50.8045 509.414 49.8042 508.976 49.6752 508.976C48.2716 507.971 47.0131 506.819 45.8999 505.505C45.787 505.44 44.7706 504.257 44.7706 504.305C41.2051 504.305 40.108 495.839 37.8009 495.839C37.8009 495.596 36.849 493.877 36.8006 493.877C36.8006 493.277 36.3005 492.806 36.3005 492.239C36.3005 492.239 35.1711 488.103 35.1711 487.876C34.4774 486.092 35.1711 485.946 37.3008 487.438C37.3008 489.433 45.5934 487.909 46.5937 488.006C48.9169 487.698 51.6435 487.162 53.999 486.806C53.999 486.481 60.9364 485.151 60.9041 485.038C61.4365 485.038 66.3088 483.4 66.3088 483.335C67.0348 483.221 71.5845 482.102 71.5845 481.827C72.5364 481.827 73.2462 481.064 74.2304 481.064C74.2304 480.659 77.9411 480.286 77.9411 479.799C78.1347 479.799 79.3931 479.459 79.3931 479.361C80.1514 479.605 80.8613 478.388 81.5227 478.291C81.5227 478.161 81.9745 477.934 82.0874 477.918C82.0713 477.853 82.1519 476.977 82.0874 476.977C82.0874 476.183 82.878 476.572 83.4749 476.475C83.4749 476.28 85.6368 477.383 85.9917 477.48" fill="#E4E9F0"/>
<path fill-rule="evenodd" clip-rule="evenodd" d="M275.029 618.336C274.9 618.336 275.029 617.687 275.029 617.574C274.48 617.736 274.496 617.525 273.964 617.703C273.786 617.184 273.899 616.763 273.899 616.13C273.867 616.13 273.286 615.546 273.335 615.368C273.173 615.368 273.028 614.427 273.335 614.427C273.27 614.346 273.076 614.152 272.964 614.103C272.48 615.514 272.415 613.162 271.963 613.162C272.125 612.335 271.899 612.351 271.899 611.703C271.834 611.557 270.915 610.194 270.898 610.194C270.56 609.691 270.35 610 270.027 609.562C269.801 609.562 269.64 608.702 269.463 608.621C269.463 608.345 268.946 607.161 268.64 607.161C268.462 607.843 268.091 606.902 267.881 606.902C267.881 607.032 267.849 607.291 267.688 607.405C267.559 607.032 267.881 606.707 267.252 606.707C267.252 605.88 266.365 604.907 266.365 603.739C265.849 603.464 265.349 602.474 265.236 601.842C264.929 601.842 265.203 600.901 264.929 600.901C264.929 600.739 264.268 597.122 264.3 597.122C264.461 596.068 263.735 595.419 263.735 594.414C263.493 594.414 263.332 591.186 263.235 591.138C263.316 590.781 262.929 587.164 262.606 587.164C262.606 586.564 262.09 585.591 262.219 585.202C262.186 584.667 261.428 583.499 262.219 583.499C262.219 583.694 263.219 584.115 263.219 584.699C264.187 584.44 262.735 582.526 263.025 581.926C263.606 581.309 264.3 580.839 265.09 580.531C265.09 579.769 266.526 581.374 266.655 581.407C266.655 580.969 267.914 580.158 267.914 580.645C268.301 580.645 268.43 580.645 268.914 580.645C268.914 580.726 269.834 579.315 269.237 579.315C269.237 578.698 267.833 576.055 269.237 575.779C269.382 575.179 269.995 575.341 269.995 574.838C270.398 574.579 270.156 574.336 270.624 574.076C270.721 573.557 270.576 573.281 271.011 573.006C270.947 572.519 270.753 572.243 270.753 571.806C269.898 571.335 270.269 569.178 269.059 568.465C268.962 568.027 268.43 567.167 267.994 566.956C267.994 566.648 266.93 565.059 266.671 565.059C266.429 564.767 265.8 563.729 265.542 563.729C265.349 563.469 264.235 562.204 263.977 562.204C262.912 561.085 261.718 560.112 260.396 559.301C260.202 558.88 258.637 558.409 258.637 558.101C258.379 557.907 257.008 557.047 257.008 556.966C256.056 556.787 255.572 555.766 254.684 555.766C252.49 554.939 250.28 554.209 248.021 553.56C246.537 553.738 245.73 552.684 244.246 552.554C244.294 552.863 245.246 554.193 244.811 554.193C244.875 554.29 246.166 555.458 245.44 555.458C245.44 555.393 246.198 556.852 246.069 556.852C246.15 557.193 246.327 557.355 246.327 557.679C246.44 557.679 247.021 559.593 247.021 559.82C247.134 559.82 247.198 560.388 247.344 560.518C247.134 560.826 246.714 560.842 246.392 560.842C246.392 561.02 246.021 560.664 246.021 560.777C245.246 560.777 244.456 561.475 243.633 561.475C243.633 561.637 239.761 562.545 239.244 562.545C239.244 562.886 233.162 563.745 232.581 563.745C232.985 562.918 234.179 562.042 234.776 561.475C234.921 561.004 235.308 560.907 235.405 560.469C235.534 560.372 236.034 559.609 236.034 559.528C236.582 559.35 236.421 558.555 236.728 558.393C237.147 557.712 238.728 553.787 239.051 553.787C239.051 553.382 239.874 551.257 240.309 551.257C240.309 550.803 241.713 547.478 241.939 547.478C242.084 546.619 243.326 545.889 243.326 545.143C243.633 545.143 243.584 543.18 243.584 542.937C243.488 542.888 243.084 541.51 243.084 541.299C242.826 539.418 242.697 537.52 242.697 535.623C242.697 535.185 241.89 533.806 241.374 533.66C241.213 533.011 240.293 532.866 239.987 532.395C239.583 532.395 238.034 531.114 238.034 530.757C237.792 530.757 237.099 529.979 237.099 529.816C236.502 529.427 235.744 528.405 235.018 528.681C234.614 529.573 234.066 528.957 233.453 528.551C233.453 528.114 231.936 527.789 231.823 528.178C231.291 528 230.581 528.551 230.065 528.681C229.984 528.876 229.193 529.589 229.064 529.638C229.064 529.8 228.742 530.076 228.629 530.076C228.629 530.287 229.532 531.568 229.693 531.649C229.581 532.006 229.726 532.022 229.758 532.46C228.806 532.363 229.468 532.995 229.693 533.466C230.145 533.466 229.597 534.536 229.564 534.666C229.823 534.666 230.5 534.406 230.5 534.925C230.129 535.104 230.887 535.801 230.129 535.931C230.129 535.979 229.274 535.931 229.193 535.931C231.21 536.482 231.629 537.634 230.452 539.401C230.161 539.401 229.855 541.429 229.451 541.429C229.226 542.483 228.016 544.283 227.128 544.964C227.128 545.662 225.612 546.262 225.612 546.992C224.676 547.77 224.224 548.873 223.288 549.635C223.288 550.154 221.869 551.452 221.465 551.776C221.465 552.003 219.884 553.852 219.578 553.852C217.045 556.479 214.512 559.107 211.979 561.75C211.656 562.188 211.14 562.383 210.785 562.383C209.623 562.561 208.591 563.031 207.703 563.778C207.703 563.567 207.026 564.183 206.945 564.41C207.268 565.334 206.994 566.048 206.122 566.551C206.477 567.2 206.413 567.751 205.929 568.189C205.929 568.805 205.816 568.319 205.929 568.951C205.816 568.984 205.606 569.065 205.606 569.211C204.638 570.492 204.525 572 205.283 573.752C205.283 574.514 204.283 575.033 204.283 575.844C204.122 575.763 203.912 577.336 203.912 577.612C203.977 577.612 202.96 580.255 204.041 580.255C204.041 580.385 204.654 581.326 204.348 581.326C204.348 581.537 204.396 582.039 204.606 582.153C204.735 582.931 207.494 585.121 208.317 585.121C208.397 585.38 208.752 585.267 208.752 585.445C209.075 585.445 211.898 585.688 211.898 585.445C212.931 585.494 213.415 585.121 214.157 585.121C215.318 585.007 216.448 584.764 217.545 584.359C218.771 584.359 220.223 583.353 221.304 583.288C221.917 583.191 222.45 582.915 222.869 582.461C222.869 581.731 224.256 581.926 224.256 581.634C224.531 581.634 225.805 580.92 225.886 580.742C226.37 580.742 226.596 580.434 227.08 580.434C227.08 580.336 228.064 579.996 228.209 579.996C228.29 579.736 228.467 579.655 228.709 579.736C228.838 579.558 228.951 579.38 229.032 579.169C229.242 579.169 229.242 579.039 229.468 579.039C229.468 578.65 230.791 578.893 230.597 578.098C230.952 577.806 231.791 577.077 231.791 576.703C232.678 575.86 233.469 574.936 234.179 573.93C234.437 573.93 234.614 573.703 234.872 573.492C234.872 573.444 237.454 571.984 237.631 571.984C237.631 572.065 238.067 571.481 238.067 571.157C238.18 570.946 238.922 570.33 239.132 570.33C239.132 569.924 240.325 569.194 240.697 569.194C241.455 568.092 243.601 568.27 244.214 566.989C244.794 566.989 247.424 565.74 247.424 565.091C247.828 565.091 248.328 563.891 248.554 565.286C249.038 565.545 249.489 566.875 249.489 567.362C249.538 567.362 250.118 568.708 250.118 568.935C250.393 568.935 250.909 570.573 251.183 570.573C250.957 570.995 251.038 571.27 251.441 571.4C251.942 571.919 252.264 572.519 252.442 573.233C252.571 573.233 252.7 576.33 252.7 576.639C252.587 576.639 252.377 576.055 252.377 576.574C252.087 576.574 252.522 576.833 252.635 576.833C252.99 577.466 252.635 578.455 252.635 579.169C252.522 579.136 252.442 579.071 252.377 578.974C252.393 579.039 252.377 579.055 252.313 579.039C252.313 579.234 252.313 579.363 252.619 579.363C252.329 583.937 251.49 587.359 251.49 591.608C251.232 593.197 251.199 595.452 251.119 597.414C251.086 597.414 250.619 599.977 250.619 600.252C250.183 600.252 249.876 602.572 249.296 602.782C247.973 608.102 233.453 607.94 228.887 608.345C228.887 608.508 226.37 608.783 226.063 608.783C226.063 609.14 219.287 609.286 219.287 609.481C218.884 609.481 216.706 609.562 216.706 609.61C212.64 609.805 208.575 610.048 204.525 610.373C203.38 610.373 194.409 610.259 194.409 609.675C193.909 609.675 190.892 609.124 190.892 608.67C190.279 608.67 188.44 607.47 188.44 606.837C188.085 606.675 187.811 605.507 187.504 605.507C187.504 605.296 186.956 604.226 186.746 604.112C186.246 602.101 186.327 600.106 187.004 598.112C186.956 597.56 186.94 597.56 187.004 597.284C187.004 597.009 186.924 596.068 187.004 595.825C187.343 595.663 187.504 593.96 187.504 593.684C187.44 593.684 188.004 591.057 188.004 590.651C188.343 590.651 188.15 587.31 188.327 586.986C188.343 586.045 188.182 585.153 187.827 584.277C188.037 583.645 187.892 582.169 187.892 581.618C188.263 576.866 188.246 572.114 187.827 567.346C187.827 567.346 188.053 557.679 188.085 557.679C188.166 557.323 187.779 554.079 187.762 554.079C187.859 553.414 187.827 552.619 187.827 552.052C187.892 551.938 189.214 551.987 189.214 551.987C190.763 552.149 192.312 552.181 193.861 552.117C193.958 552.7 194.409 553.155 194.99 553.252C195.135 553.576 196.184 553.252 196.184 553.446C196.604 553.674 196.555 554.128 196.991 553.884C197.088 554.176 197.071 554.858 197.249 554.955C197.33 555.636 197.814 555.668 197.814 556.285C198.136 556.82 199.701 556.236 199.701 557.485C200.589 556.982 200.282 557.923 200.46 557.923C200.46 558.344 201.121 558.393 201.218 557.923C201.234 557.923 201.331 557.55 201.411 557.42C201.686 557.501 202.105 557.728 202.234 557.923C202.412 557.923 203.767 558.247 203.428 558.247C203.428 558.312 203.638 558.75 203.622 558.75C203.589 558.896 203.751 559.755 203.686 559.755C203.686 560.858 204.574 560.193 204.687 559.496C205.283 559.496 205.671 560.177 205.558 560.631C206.3 560.631 205.493 562.107 205.493 562.464C205.945 562.464 206.219 562.788 206.623 562.091C207.639 563.259 208.317 562.804 208.639 560.696C208.639 560.583 209.397 559.139 209.575 559.058C210.236 558.036 210.93 558.117 211.64 559.317C211.705 559.123 212.318 557.679 212.269 557.679C212.269 557.193 212.495 556.252 212.963 556.041C212.802 555.198 213.512 554.614 213.899 553.949C214.189 554.014 214.705 554.663 214.851 554.079C215.189 554.079 214.851 553.463 215.544 553.576C215.528 553.284 215.883 550.981 216.238 550.981C216.238 550.803 216.432 549.408 216.609 549.408C216.609 549.132 217.109 547.138 217.432 547.138C217.432 546.992 217.448 545.564 217.626 545.564C217.626 545.191 218.061 544.964 218.061 544.559C217.755 544.559 219.174 542.126 219.191 541.964C219.239 541.948 219.626 540.326 219.626 540.131C218.949 540.391 219.755 539.288 219.755 539.061C220.175 538.363 220.288 537.65 220.078 536.92C220.078 537.05 220.288 536.32 220.336 536.158C220.804 536.158 220.917 534.828 220.772 534.585C221.385 534.358 220.901 533.758 221.272 533.579C221.433 532.72 221.594 532.428 221.465 531.682C222.175 531.682 222.466 530.044 222.53 529.476C222.449 529.492 222.417 529.541 222.337 529.541C223.046 528.341 223.853 523.459 223.902 522.567C223.902 522.632 224.063 522.534 224.095 522.534C224.095 522.34 224.014 522.291 223.837 522.34C223.902 522.129 224.063 521.74 224.273 521.837C224.305 520.345 225.402 519.923 225.402 518.496C225.805 516.842 226.209 515.171 226.596 513.501C226.467 513.55 226.338 513.582 226.338 513.436C226.822 513.209 226.951 508.506 227.338 508.506C227.338 508.214 227.451 505.846 227.967 505.846C228.112 505.294 227.79 504.548 227.967 503.948C228.483 503.673 227.887 499.65 227.967 499.65C228.08 498.904 228.145 498.369 228.096 497.558C227.951 497.558 227.709 496.974 227.709 496.796C227.612 496.796 227.273 495.855 227.015 495.855C226.806 495.547 225.886 495.012 225.886 494.655C225.563 494.558 224.692 493.698 224.692 493.39C223.547 492.985 223.159 491.574 221.933 491.249C220.191 489.952 218.497 488.606 216.851 487.211C216.851 486.579 215.657 486.043 215.286 485.573C214.592 485.346 213.286 484.276 212.898 483.675C212.414 483.675 212.043 482.897 211.446 482.848C210.704 482.264 210.043 481.616 209.43 480.886C209.172 480.513 208.542 480.416 208.365 480.059C208.187 480.043 206.865 479.767 206.865 479.929C205.961 479.929 205.267 480.367 204.783 481.194C204.638 481.502 203.977 481.308 203.718 481.697C202.944 481.697 203.009 483.14 202.46 483.4C202.621 483.886 202.121 484.486 201.96 484.973C201.96 486.287 199.83 485.833 199.83 486.043C199.427 486.092 197.814 486.157 197.814 486.351C197.184 486.206 192.538 486.546 192.538 486.854C192.086 486.854 188.892 487.276 188.892 487.422C187.795 487.422 177.211 488.914 177.211 488.995C176.711 488.995 173.258 489.368 173.258 489.563C172.645 489.563 171.871 489.757 171.371 489.757C171.371 489.887 168.676 490.309 168.547 490.26C163.578 491.136 158.609 492.044 153.656 492.969C153.446 492.969 151.704 493.309 151.704 493.406C150.429 493.163 150.139 493.52 150.833 494.477C150.381 494.477 150.978 494.607 150.333 494.477C150.381 494.655 150.365 494.671 150.591 494.671C150.349 495.401 148.574 494.542 148.397 495.434C148.945 495.563 149.171 496.374 149.72 496.374C149.833 496.601 150.204 496.747 150.413 496.942C150.026 496.942 149.784 497.169 149.284 497.202C149.123 497.721 148.493 497.639 147.784 497.639C147.929 497.964 149.236 499.78 149.413 499.78C149.413 500.04 150.849 501.483 151.172 501.483C151.172 501.808 152.124 502.57 152.366 502.683C152.866 503.575 153.592 503.883 154.56 503.624C154.592 503.624 156.125 502.181 156.125 502.554C157.06 502.554 157.964 502.051 158.948 502.051C158.948 501.678 162.949 501.24 163.417 501.11C163.417 501.143 165.498 500.575 165.611 500.737C165.756 500.737 165.74 502.489 165.74 502.7C165.966 502.7 165.547 507.533 165.547 508.068C165.401 508.068 165.418 510.03 165.24 510.03C165.24 510.711 165.434 513.793 164.482 514.004C164.272 513.906 159.771 514.393 159.771 514.442C157.69 514.442 155.786 515.139 153.866 515.139C153.866 515.707 146.735 516.209 145.702 516.209C145.702 517.653 143.25 515.561 143.25 514.636C142.734 514.636 142.314 510.906 141.621 510.906C141.233 509.349 140.459 508.36 140.12 506.997C140.104 506.997 139.62 505.83 139.62 505.667C139.749 505.667 138.733 503.608 138.749 503.527C138.2 503.527 137.845 501.564 137.313 501.435C137.119 500.818 136.49 500.364 136.361 499.861C136.393 499.861 135.409 498.385 135.167 498.094C134.473 498.094 133.764 496.439 133.086 496.196C133.038 496.131 131.779 494.866 132.215 494.866C132.408 494.623 133.07 494.298 133.409 494.298C133.28 494.688 132.844 494.704 132.715 495.109C133.199 495.077 134.006 494.039 134.167 494.801C134.473 494.801 134.732 494.347 135.038 494.542C135.312 494.12 135.78 494.412 136.167 494.282C136.216 495.012 136.732 494.542 137.103 494.542C137.103 494.234 139.136 494.071 138.991 494.801C139.733 494.623 140.039 493.974 140.749 493.861C140.749 493.52 144.315 491.59 144.767 491.931C144.734 491.914 144.767 492.125 144.767 492.141C145.009 492.044 145.815 491.639 145.96 491.379C146.235 491.428 146.59 491.785 146.719 491.509C147.235 491.379 147.219 491.071 147.655 491.071C147.8 490.503 149.219 490.455 149.219 490.633C149.461 490.309 149.768 490.211 150.107 490.325C150.236 489.92 150.994 490.422 151.172 489.757C150.655 489.757 150.978 489.757 150.978 489.384C151.204 489.433 151.914 489.903 151.914 489.319C152.107 489.303 152.591 489.401 152.85 489.384C152.85 489.984 153.592 489.319 153.85 489.319C153.85 489.222 154.769 488.963 154.85 488.557C155.512 488.768 155.85 488.152 156.544 488.184C156.318 488.963 157.48 487.876 157.48 488.249C157.738 488.444 158.738 487.617 158.738 488.054C158.916 488.054 159.319 487.552 159.367 487.357C159.593 487.357 159.771 487.617 159.626 487.617C159.335 488.136 158.69 488.233 158.561 488.817C159.045 488.703 160.126 487.406 160.126 487.941C160.335 487.827 161.239 487.195 161.061 487.681C161.804 487.617 162.191 486.919 162.384 487.941C162.739 487.86 164.03 486.952 164.078 486.741C164.53 486.611 165.401 485.151 165.595 486.043C166.611 485.768 167.531 484.486 167.224 486.416C167.386 486.368 168.096 486.076 168.096 486.092C169.064 486.092 169.435 487.649 169.854 486.027C170.258 486.141 170.29 485.832 170.677 485.832C170.677 486.076 171.306 486.092 171.371 486.092C171.435 486.238 171.516 486.351 171.306 486.351C171.451 486.66 172.274 486.773 172.307 486.157C172.419 486.222 173.5 486.043 173.565 486.027C173.742 486.206 174.565 485.151 174.952 485.151C174.952 484.649 176.404 484.973 176.404 484.146C177.001 483.53 177.711 483.221 178.534 483.189C178.534 483.87 177.905 484.113 177.905 484.713C178.292 484.616 179.567 482.946 179.599 482.573C180.502 482.443 180.551 481.113 181.293 480.935C181.487 480.286 183.552 479.524 183.552 479.361C184.245 479.507 184.923 479.167 185.617 479.167C185.617 478.924 186.181 478.356 186.181 478.032C186.456 477.691 186.988 477.415 187.311 477.026C188.392 477.026 188.618 473.75 189.392 473.75C189.392 472.89 189.15 472.047 189.327 470.977C189.586 470.977 189.957 469.16 189.957 468.836C190.36 468.836 188.537 464.489 188.456 464.23C187.908 463.873 188.101 462.721 188.021 462.089C187.859 462.089 187.65 460.759 187.327 460.759C187.117 460.435 186.068 459.105 186.068 458.683C185.955 458.651 185.117 457.207 185.117 456.98C183.503 455.796 181.971 454.515 180.535 453.137C180.373 452.601 178.905 452.001 178.905 451.369C178.276 451.206 177.518 450.233 177.518 449.731C177.147 449.731 176.13 448.563 175.824 448.287C175.824 447.363 172.242 447.265 171.871 447.217C170.984 447.866 170.064 447.882 169.112 447.282C168.854 447.282 167.854 447.136 167.725 446.909C166.934 446.811 166.563 446.098 165.708 446.082C165.805 446.357 166.014 446.471 166.079 446.779C166.369 446.779 165.95 447.298 165.95 447.411C165.321 447.265 165.627 446.974 165.192 446.844C165.192 447.671 165.627 448.271 165.627 449.179C165.014 449.39 164.627 447.914 164.127 447.914C164.095 448.012 165.305 450.623 164.385 450.623C164.482 452.244 164.837 453.801 165.45 455.294C166.031 456.672 165.885 457.937 165.014 459.072C164.885 459.072 163.949 460.483 163.949 460.646C163.643 460.808 162.659 462.057 162.562 462.478C162.013 462.624 161.9 463.565 161.433 463.808C161.433 465.803 157.448 467.571 156.964 469.436C156.125 470.393 155.221 471.301 154.269 472.144C153.85 472.631 152.382 474.48 151.752 474.48C151.752 474.593 150.397 475.729 150.187 475.875C149.268 476.507 148.364 477.156 147.493 477.837C147.493 478.015 146.461 478.761 146.106 478.842C146.106 478.94 144.283 480.416 144.154 480.416C144.154 480.416 142.814 481.291 142.589 481.291C142.266 481.843 140.895 482.183 140.895 482.686C140.733 482.686 140.104 482.978 139.959 483.189C139.814 483.189 138.91 483.838 138.829 484.016C138.458 484.259 137.619 485.022 137.2 485.022C136.055 485.914 134.861 486.741 133.618 487.487C133.457 487.795 133.021 487.763 132.86 488.054C132.683 488.054 131.198 488.882 131.037 489.19C130.666 489.19 130.408 489.692 130.037 489.692C130.037 489.822 128.698 490.714 128.472 490.893C127.875 491.671 127.117 491.866 126.213 491.46C126.213 490.795 123.761 490.617 123.761 490.195C123.244 490.195 122.696 489.368 122.131 489.368C122.131 489.044 120.663 488.93 120.502 488.606C119.421 488.606 118.501 487.471 117.42 487.471C117.42 487.033 113.903 487.049 113.903 486.141C113.419 486.027 113.048 485.216 112.58 485.508C112.58 485.897 112.806 485.962 113.016 486.27C113.693 486.27 113.274 486.838 113.274 487.033C112.693 486.838 112.209 486.173 111.515 486.027C112.064 486.66 112.5 487.357 112.838 488.103C112.838 488.346 113.016 488.865 113.274 488.995C113.726 489.709 113.274 489.368 113.274 490.001C112.855 490.001 112.564 489.125 112.08 489.125C112.338 489.709 112.967 490.52 113.016 491.217C113.177 491.217 113.903 492.855 113.581 492.855C113.403 493.552 114.581 493.861 114.581 494.25C114.758 494.25 114.855 494.753 114.839 494.882C115.275 495.239 118.808 498.661 118.921 499.18C120.082 499.18 120.921 501.743 121.809 502.343C121.889 502.586 123.938 506.381 123.761 506.381C123.761 506.949 124.939 512.009 125.084 512.009C125.084 512.333 125.842 515.22 125.955 515.22C125.955 515.593 126.407 518.01 126.649 518.123C126.826 519.615 127.278 520.832 127.407 522.356C127.762 522.356 127.955 527.157 128.278 527.157C128.891 530.692 129.553 534.244 130.23 537.763C130.23 539.256 130.86 540.78 130.86 542.305C131.376 542.305 131.505 550.008 132.36 550.008C132.36 550.479 132.731 551.273 132.731 551.776C133.038 552.473 133.312 553.187 133.554 553.917C133.651 554.339 134.619 557.452 134.812 557.452C134.764 557.566 135.248 559.155 135.312 559.155C135.312 559.561 135.474 560.469 135.877 560.729C135.877 561.929 137.313 562.383 137.313 563.437C137.797 563.437 138.136 564.848 138.136 565.14C138.087 565.107 139.136 566.956 139.136 566.081C139.717 565.886 141.153 565.14 141.153 566.454C141.556 566.567 141.346 566.891 141.976 566.891C141.976 566.681 142.476 566.324 142.669 566.324C144.379 567.962 145.493 567.946 145.993 566.259C145.993 565.286 145.009 564.118 146.622 564.118C146.622 563.875 148.074 565.87 148.122 565.886C148.122 565.221 147.929 564.913 147.864 564.118C148.461 564.118 148.51 563.696 149.316 564.183C149.316 564.475 149.639 564.751 149.639 565.124C150.3 565.124 149.816 567.832 149.881 568.027C149.881 568.027 149.123 572.584 149.123 573.022C148.768 573.022 148.493 576.817 147.993 576.817C147.993 577.855 147.171 578.585 147.171 579.525C146.606 579.525 146.299 582.931 145.718 582.931C145.718 584.018 144.331 584.861 144.331 585.834C144.137 585.932 143.637 586.775 143.637 586.97C143.363 587.456 142.718 588.932 142.25 589.175C142.024 590.035 140.862 590.813 140.862 591.705C139.975 591.705 139.943 593.976 139.233 593.976C139.233 594.317 137.555 596.684 137.281 596.684C137.119 597.301 136.151 597.755 136.151 598.322C135.7 598.533 135.296 599.506 134.828 599.896C134.828 600.95 132.747 601.809 132.747 602.864C132.408 603.042 131.456 604.031 131.36 604.437C131.085 604.437 130.327 605.199 130.23 605.572C128.133 607.762 126.068 609.983 124.083 612.27C123.503 612.465 123.002 613.778 122.389 613.778C121.954 614.654 120.712 615.222 120.131 615.919C119.953 615.919 119.308 616.633 119.26 616.811C119.05 616.941 118.324 617.557 118.324 617.752C117.856 618.157 117.178 618.547 116.872 619.017C116.71 619.017 114.419 620.85 114.419 621.044C113.806 621.206 113.29 622.18 112.725 622.18C112.338 622.747 110.273 623.542 110.273 624.077C109.886 624.174 108.611 625.099 108.45 625.407C107.627 625.407 99.5928 631.797 99.5928 632.17C99.012 632.17 99.3992 632.429 99.0281 632.608C97.9149 632.965 96.9307 633.581 96.0757 634.441C96.2531 634.554 95.0754 635.138 95.0754 635.381C95.6723 635.17 94.6398 635.965 94.6398 635.949C94.8979 635.997 95.2367 636.387 95.398 636.581C95.8498 636.5 95.9627 636.452 96.3338 636.452C96.5274 636.225 98.415 635.154 98.4634 635.187C98.4634 635.414 100.529 634.684 100.722 634.684C100.835 634.473 101.658 634.408 101.658 634.619C101.916 634.619 101.19 635.316 101.158 635.316C101.335 635.835 102.852 635.041 103.11 634.619C103.917 634.651 102.061 636.176 101.981 636.516C103.061 635.543 104.271 635.122 105.627 635.251C105.836 635.251 105.32 635.738 105.32 635.949C105.611 635.997 106.821 635.657 106.821 635.316C107.014 635.284 108.386 634.23 108.386 634.814C108.773 634.668 111.354 633.922 110.838 633.24C110.87 633.24 110.886 633.208 110.902 633.176C111.273 633.273 112.016 633.127 112.161 632.673C112.79 632.511 113.29 632.478 113.484 632.105C113.5 632.219 113.435 632.235 113.29 632.17C113.29 631.975 113.742 631.975 113.855 631.975C113.855 631.846 113.774 631.829 113.661 631.911C113.952 631.359 115.42 631.278 115.42 630.516C116.049 630.354 116.533 629.251 117.114 629.251C117.42 628.813 118.308 628.602 118.308 628.051C118.759 628.051 120.002 626.98 120.002 626.607C120.582 626.834 121.55 625.877 122.131 625.731C122.309 624.856 123.809 624.953 124.019 624.158C124.793 624.093 125.084 623.801 125.777 623.461C125.777 623.753 126.923 622.958 126.971 622.958C126.971 622.407 128.23 622.747 128.23 622.082C128.569 622.082 128.827 622.926 129.295 622.342C129.44 621.92 130.166 621.693 130.295 621.271C130.505 621.223 131.489 620.477 131.489 620.266C132.521 619.601 132.812 618.693 134.006 618.303C135.006 617.801 135.942 617.168 136.764 616.406C137.313 615.871 137.878 615.368 138.458 614.898C138.587 614.622 140.346 613.665 140.346 614.33C140.959 614.087 141.685 612.562 142.298 612.562C143.282 611.557 144.299 610.567 145.315 609.594C145.315 608.945 147.735 608.913 147.929 608.378C147.929 608.426 149.155 607.502 149.155 607.502C150.397 606.61 151.559 605.588 152.608 604.469C152.946 604.469 152.995 604.193 153.43 604.275C153.43 604.356 153.705 605.102 153.301 605.102C153.156 605.767 152.801 606.01 152.608 606.561C153.446 606.399 153.253 605.41 153.801 605.102C153.866 604.761 154.56 603.269 154.802 603.139C154.898 602.718 155.286 602.004 155.608 601.745C155.608 601.339 155.818 600.853 156.173 600.609C156.286 599.928 156.915 599.296 157.173 598.468C157.786 598.144 158.303 595.565 158.803 595.565C159.19 594.333 160.174 593.571 160.368 592.338C161.11 592.127 161.481 589.629 161.933 589.629C161.933 589.5 163.804 584.829 163.562 584.829C163.659 584.359 163.982 581.991 164.127 581.991C164.127 580.855 165.046 579.607 165.192 578.26C165.595 578.26 165.95 569.421 165.885 569.421C166.047 567.8 164.95 566.859 164.95 565.578C164.821 565.578 164.579 564.588 164.579 564.442C164.191 563.259 163.546 562.269 162.626 561.475C162.626 561.296 162.142 560.907 161.997 560.712C162.062 560.712 161.174 559.577 161.174 559.707C159.884 558.588 158.625 557.436 157.415 556.236C157.754 556.171 159.674 555.717 159.674 555.668C160.529 555.587 161.174 555.101 161.933 555.101C161.933 554.825 164.95 554.533 164.95 554.339C165.418 554.339 168.838 554.079 168.838 553.771C170.838 553.69 172.823 553.528 174.807 553.268C175.114 553.268 176.356 553.252 176.501 552.96C176.566 552.96 176.695 552.992 176.695 553.025C179.05 552.765 177.485 555.879 177.195 557.323C176.776 557.323 176.872 558.977 176.501 559.22C176.501 559.415 176.05 560.664 175.937 560.664C175.937 561.458 175.501 561.864 175.501 562.691C175.243 562.691 174.92 566.502 174.743 567.119C174.743 569.713 173.484 572.195 173.484 574.628C173.226 574.628 172.549 578.374 172.549 578.796C172.113 581.731 171.5 584.65 170.725 587.505C170.725 593.879 168.822 599.75 169.402 606.318C169.596 606.318 169.58 610.227 170.032 610.227C170.032 611.135 170.838 612.011 170.919 613.13C170.887 613.13 171.613 614.768 171.613 614.898C171.629 614.898 173.065 618.141 173.065 618.303C173.242 618.303 174.517 620.85 174.517 621.142C174.614 621.142 175.63 622.909 175.711 623.234C175.953 623.234 176.598 624.872 176.905 624.872C177.598 625.293 177.55 626.948 178.292 627.207C178.373 627.564 179.115 628.488 179.421 628.667C179.421 629.202 180.535 630.11 180.938 630.11C180.938 631.067 183.019 631.683 183.197 632.381C184.842 632.835 186.036 634.976 187.601 634.976C187.601 635.268 188.747 635.543 188.989 635.479C188.989 635.835 190.876 635.998 190.876 636.241C191.441 636.241 192.296 636.744 192.941 636.873C192.941 637.084 195.345 637.311 195.523 637.7C195.749 637.7 199.104 638.365 199.104 638.398C199.604 638.398 206.832 639.079 206.832 639.095C207.139 639.095 210.591 638.884 210.591 639.29C211.818 639.501 213.028 639.484 214.238 639.225C216.044 639.403 217.851 639.306 219.642 638.917C220.062 638.917 224.789 638.073 224.789 638.479C225.176 638.479 225.337 638.09 225.725 638.106C225.725 638.009 227.048 638.609 227.048 638.301C227.29 638.301 227.645 638.171 227.87 638.171C227.87 638.284 229.193 637.765 229.193 637.733C230.194 637.733 231.049 637.392 232.146 637.603C232.146 638.155 235.792 636.971 236.357 636.971C237.325 636.841 238.244 636.565 239.115 636.143C239.809 636.241 240.648 636.581 240.874 635.77C241.697 635.868 242.713 635.868 243.326 635.576C243.584 635.203 247.214 634.376 247.214 634.57C247.456 634.489 249.796 633.954 249.796 633.938C249.844 633.938 250.925 633.695 250.925 633.808C251.151 633.759 252.087 633.565 252.184 633.37C252.587 633.37 253.281 632.997 253.636 633.111C253.781 632.64 255.523 633.111 255.523 632.478C256.152 632.332 256.911 632.413 257.717 632.413C257.717 632.316 261.364 632.121 261.364 632.413C261.396 632.413 262.428 632.056 262.428 632.348C262.767 632.284 265.252 632.154 265.252 632.024C265.671 632.024 269.656 631.051 269.656 631.019C269.979 631.019 270.269 630.759 270.592 630.759C270.592 630.354 271.495 630.418 271.592 630.386C271.592 630.402 272.221 630.045 272.35 629.883C272.528 629.38 272.883 629.283 273.415 629.575C273.27 629.04 272.98 628.845 272.98 628.44C272.48 628.034 272.98 628.018 272.98 627.564C273.125 627.564 274.19 626.104 274.109 625.796C274.706 625.391 274.674 623.509 274.674 622.763C274.609 622.763 275.222 621.255 274.545 621.255C274.706 620.979 274.561 619.682 274.867 619.682C274.9 619.504 274.674 619.487 274.674 619.309C275.029 619.309 275.045 618.676 274.98 618.433M164.03 527.919C164.03 527.919 163.788 530.692 163.659 530.692V535.736C163.869 536.434 163.756 539.645 163.223 539.645C163.143 540.18 162.094 542.223 161.594 542.483C161.32 543.797 157.448 543.44 157.448 543.943C157.125 543.943 153.624 543.894 153.624 544.316C152.446 544.316 151.543 545.078 150.171 545.078C150.058 543.586 149.736 542.159 149.171 540.78C149.429 539.547 149.316 538.347 148.865 537.18C148.623 535.25 148.251 533.368 147.735 531.503C147.703 531.098 147.477 530.692 147.477 530.433C147.525 530.433 147.897 530.108 147.913 530.06C148.268 529.849 152.124 529.654 152.124 529.622C153.414 529.622 154.656 529.265 155.947 529.054C155.947 528.989 159.658 528.665 159.658 528.243C160.626 528 161.126 527.741 162.239 527.741C162.239 527.578 162.901 527.238 163.046 527.238C163.159 526.994 163.562 527.076 163.804 527.043C163.788 527.189 163.885 527.238 164.111 527.173C164.095 527.432 164.062 527.676 164.046 527.935M175.081 498.499C175.081 498.499 175.194 498.434 175.275 498.434C175.275 499.31 179.228 498.175 179.792 498.175C179.792 498.11 183.035 497.607 183.568 497.607C183.568 497.623 192.441 496.439 193.296 496.715C193.296 496.196 202.347 496.261 202.347 496.78C202.492 496.78 203.218 496.845 203.218 496.91C203.476 496.91 203.767 497.039 203.977 497.039C203.977 496.812 204.412 496.893 204.412 497.104C204.477 498.094 204.364 499.05 204.09 500.007C204.154 500.234 203.444 504.111 203.267 504.111C203.267 505.635 202.508 506.932 202.508 508.652C202.073 508.652 201.847 512.82 201.444 512.82C201.186 514.669 200.476 515.009 199.314 513.825C199.314 513.663 197.846 513.404 197.749 513.193C196.797 513.193 194.426 512.074 194.426 510.857C194.151 510.955 193.296 511.263 193.296 511.684C192.715 511.393 192.118 511.182 191.473 511.052C191.263 511.052 191.247 510.419 190.973 510.419C189.828 510.063 189.069 510.387 188.714 511.425C188.182 511.425 187.811 511.23 187.391 511.36C187.391 511.23 186.439 511.409 186.439 511.425C184.875 511.425 183.584 511.749 181.987 511.749C181.987 511.814 178.05 512.025 177.969 512.009C178.018 511.863 178.002 511.798 178.163 511.879C178.098 511.36 178.002 511.068 177.905 510.484C178.082 510.387 178.131 508.911 177.969 508.911C178.115 508.214 177.824 503.348 177.711 503.348C177.711 503.008 176.517 500.883 176.195 500.883C176.195 500.007 175.065 499.342 175.065 498.483M186.085 539.353C186.085 539.223 184.697 539.661 184.697 539.158C183.019 539.158 180.793 539.758 179.115 539.856C179.115 539.904 175.453 540.294 174.904 540.358C174.952 540.131 175.42 538.72 175.662 538.72C175.662 538.315 176.033 535.493 176.227 535.493C176.13 535.006 176.066 531.065 176.098 531.065C176.017 530.206 176.308 529.622 176.162 528.924C176.517 528.924 176.404 527.222 176.663 527.092C178.05 526.119 179.55 525.648 181.18 525.632C181.18 525.6 189.537 525.957 190.36 525.957C191.376 526.07 192.409 526.135 193.441 526.151C193.441 526.054 197.346 526.784 197.894 526.784C197.652 527.335 196.894 528.324 196.394 528.292C196.394 528.665 196.329 528.324 196.329 528.6C196.442 528.6 195.41 528.373 195.765 528.73C195.765 528.843 195.668 529.103 195.571 529.103C195.184 529.492 194.151 529.07 193.942 529.67C193.458 529.752 193.474 529.768 193.054 529.865C193.054 529.914 191.392 530.19 191.038 530.368C191.038 531.292 192.861 532.93 191.167 533.076C192.328 534.52 192.893 536.644 192.167 538.445C192.118 538.785 191.199 539.272 190.908 539.272C190.489 539.531 189.569 538.655 189.521 538.201C188.892 537.893 188.779 538.396 188.327 538.396C188.101 539.028 186.665 539.337 186.068 539.337" fill="#E4E9F0"/>
<path fill-rule="evenodd" clip-rule="evenodd" d="M97.3824 530.384C97.4469 530.676 98.2052 531.195 98.2052 530.644C98.4794 530.725 98.5762 531.033 98.5762 531.276C99.0441 531.276 98.8021 531.585 99.2055 531.844C99.4313 531.844 100.577 531.876 100.835 532.412C101.271 532.525 102.271 532.931 102.464 533.239C102.545 533.271 103.271 532.639 103.271 533.304C103.674 533.401 103.981 533.612 104.4 533.677C104.772 534.244 106.724 533.969 106.724 534.747C107.111 534.747 108.353 535.25 108.482 535.509C108.724 535.59 108.853 535.785 109.111 535.899C109.111 536.174 109.934 536.32 110.047 536.596C110.612 536.596 111.241 537.683 111.435 538.039C111.612 538.137 112.128 538.704 112.128 538.867C113.145 539.45 114.016 540.229 114.71 541.202C114.484 541.461 115.339 542.564 115.404 543.035C115.726 543.116 116.968 544.429 116.968 544.738C117.452 544.9 118.098 546.1 118.227 546.7C118.937 546.895 119.695 548.127 118.227 548.16C117.856 548.743 117.533 549.635 118.356 550.252C118.501 550.625 119.179 551.647 119.921 551.647C119.921 551.841 120.711 552.247 120.05 552.474C120.05 552.068 119.485 552.684 119.485 552.474C118.759 552.474 118.469 553.609 117.856 553.609C117.856 553.658 117.517 553.868 117.42 553.868C117.42 554.177 117.549 554.387 117.549 554.696C117.388 554.744 116.662 555.069 116.662 554.955C116.259 554.955 112.838 555.571 112.838 555.458C112.419 555.393 109.128 556.058 109.128 556.463C108.853 556.463 107.111 556.853 107.111 556.966C106.304 556.966 105.498 557.663 104.723 557.663C101.271 558.507 97.7857 559.269 94.3009 559.934C93.6394 559.934 93.0908 560.323 92.2842 560.258C92.2842 559.821 90.2997 561.491 90.3481 561.475C90.0416 561.556 87.315 562.205 87.315 562.529C87.1053 562.529 84.4271 563.259 84.4271 563.47C83.6205 563.389 82.9106 564.102 82.1039 564.102C81.2327 564.07 80.781 564.475 80.7164 565.302C80.6519 565.675 80.9262 567.832 81.2811 567.832C81.2811 568.627 82.1523 569.406 82.1523 570.233C82.8461 570.233 82.475 575.082 82.4105 575.86C81.3779 576.801 81.0068 577.953 81.2811 579.331C81.2811 579.607 80.9584 579.98 80.9584 580.272C80.1518 580.661 79.3774 585.64 79.2644 585.64C79.2644 587.002 78.9095 588.154 78.8288 589.37C78.8288 590.797 78.006 591.608 78.006 593.1C77.8769 593.1 77.0703 595.598 77.0703 595.874C76.8928 595.874 75.2472 599.215 75.3762 599.409C75.715 599.75 78.9579 598.939 78.9579 598.777C79.8614 598.777 80.7003 598.339 81.6522 598.144C81.6522 597.933 82.7977 597.933 82.9106 597.706C84.0077 597.577 85.25 596.766 86.2986 596.766C86.2986 596.652 89.1381 595.825 89.3801 595.825C89.3801 595.63 91.4452 595.111 91.8324 595.063C92.0744 594.592 94.6558 594.349 94.6558 593.992C95.1721 593.992 95.8335 593.473 96.4789 593.36C96.2369 592.484 94.5267 585.786 94.2847 585.786C94.2847 584.651 93.4135 583.71 93.4135 582.38C93.0908 582.38 92.5907 579.801 92.0906 579.542C92.0906 578.877 92.2035 578.212 93.2844 578.601C93.2844 578.601 94.2686 578.974 94.4138 578.974C94.4138 579.282 96.3659 579.509 96.3659 579.801C97.5114 579.883 98.1084 580.807 98.9957 580.807C98.9957 580.726 100.012 581.375 100.061 581.375C100.286 581.829 101.254 581.78 101.254 582.315C101.948 582.04 102.819 583.515 103.578 583.515C104.191 584.294 105.159 584.489 106.03 584.78C106.562 585.899 107.982 586.419 108.66 587.489C108.982 587.554 109.595 587.975 109.789 587.554C110.128 587.473 110.66 586.921 110.918 586.921C110.983 587.424 110.886 587.878 110.612 588.316C110.612 589.289 112.241 590.278 112.241 591.154C112.725 591.446 113.532 592.646 113.693 593.181C114.032 593.344 114.629 594.447 114.629 594.82C115.049 595.144 115.758 596.977 115.758 597.479C115.952 597.577 116.597 599.442 116.517 599.62C116.823 599.62 117.452 602.637 117.452 603.091C117.856 603.091 118.388 609.659 118.388 610.162C118.017 610.162 117.694 612.433 117.63 612.433C117.63 612.627 117.711 614.638 117.372 614.638C117.372 614.8 117.227 616.098 117.001 616.098C116.904 617.022 117.194 617.914 116.807 618.936C116.436 618.758 116.549 617.736 116.307 617.736C116.275 617.622 116.452 617.476 116.307 617.476C116.42 617.866 115.742 616.017 115.742 616.974C115.129 616.974 114.581 616.601 114.742 617.541C114.274 617.541 114.774 619.131 113.613 618.806C113.564 618.287 112.919 618.044 112.919 617.671C112.903 617.671 112.048 616.86 112.048 617.103C111.386 616.99 110.757 617.103 110.16 617.412C108.982 617.12 109.757 618.093 109.16 618.482C108.176 618.077 107.192 617.687 106.207 617.282C105.546 616.86 105.336 615.303 105.336 614.687C105.385 614.687 104.772 613.357 104.4 613.162C103.287 612.4 102.497 611.395 102.013 610.13C101.884 610.13 101.19 607.664 100.819 607.47C100.867 607.324 100.077 605.442 99.9476 605.442C99.9476 604.907 99.3184 604.453 99.3184 603.869C99.0603 603.01 98.5278 602.572 97.6889 602.539C97.1888 602.621 96.7048 603.302 96.253 603.302C96.253 603.61 95.8658 603.513 95.7529 603.74C94.8494 604.291 93.9621 604.842 93.0586 605.378C91.4291 606.951 89.9287 608.638 88.5412 610.422C88.5412 610.6 87.0246 612.4 88.4121 611.881C88.4121 612.4 88.4605 612.562 88.3476 612.952C87.9604 613.049 87.4441 613.892 87.7829 613.892C87.5732 614.736 86.944 614.914 86.3309 615.79C86.0889 615.936 85.5081 616.228 85.3952 616.228C84.9273 616.893 84.3626 617.103 84.0722 617.687C83.4591 617.687 83.4269 618.19 82.7493 618.06C81.7006 619.017 80.5874 619.893 79.4258 620.704C79.4258 621.369 76.3443 621.693 76.3443 622.212C74.5534 622.958 72.811 623.834 71.1331 624.807C71.0041 625.229 69.9392 625.067 69.9392 625.569C69.7134 625.569 68.4388 626.024 68.4388 626.202C68.2614 626.202 67.7451 626.624 67.4385 626.705C67.3256 626.932 66.0511 627.289 65.7445 627.337C65.7445 627.872 62.3565 628.148 62.3565 628.667C61.1626 628.667 60.1462 630.111 58.9039 630.111C58.9039 630.159 57.6616 630.873 57.4519 630.873C57.4519 631.165 55.9515 631.376 55.9515 631.765C54.9835 631.765 54.0477 632.9 52.9345 632.9C52.9345 633.014 50.337 633.954 49.9821 634.035C49.9821 634.181 47.6911 635.235 47.3362 635.3C46.4811 635.56 45.9164 636.111 45.6422 636.938C45.6422 637.49 44.7226 637.814 44.6419 638.268C44.7064 638.512 44.5128 638.69 44.5128 639.031C43.7384 639.468 42.9479 639.566 42.1251 639.355C41.0441 639.209 39.947 639.128 38.8661 639.095C38.5111 639.047 36.9785 638.447 36.9785 638.025C36.1073 637.117 35.1715 636.306 34.1551 635.56C34.1551 634.425 33.3646 633.062 33.0258 631.83C32.7999 631.83 32.2191 629.689 32.2029 629.3C31.6221 629.3 31.606 627.386 31.6383 626.964C31.5253 626.964 30.4444 623.915 30.4444 623.493C30.0249 623.299 29.2182 621.255 29.1214 620.785C28.5245 620.493 29.557 619.115 29.557 618.887C29.4925 618.887 29.7345 617.72 29.6216 617.493C29.6216 617.201 29.4925 615.936 29.3634 615.595C28.2986 613.827 28.5729 612.384 30.1863 611.232C30.1863 612.027 30.5573 611.232 30.8155 611.232C30.7509 610.697 30.6864 610.162 30.6864 609.724C30.5251 609.724 31.5415 608.702 31.5576 608.654C32.0739 608.329 36.0266 608.362 36.0266 608.719C36.4299 608.832 37.1398 608.654 37.4625 608.654C37.7367 608.086 38.5918 609.254 38.5918 608.719C39.1404 608.719 39.9793 607.437 40.4149 607.081C40.4149 606.789 43.0769 604.437 43.3673 604.437C43.3673 604.177 44.3999 602.864 44.8194 602.864C44.8194 602.426 45.9487 601.42 46.3843 601.031C46.3843 600.285 48.0138 599.734 48.0138 598.939C48.3526 598.712 48.8366 597.544 49.2722 597.544C49.0947 597.204 51.5793 594.43 51.902 593.944C52.9506 592.646 53.9509 591.316 54.9189 589.97C55.5965 589.468 55.8385 588.511 56.4839 588.073C58.0972 586.062 59.5331 583.921 60.7593 581.634C61.0497 581.634 63.4052 576.752 63.4052 576.266C64.5184 574.093 65.2928 571.806 65.7284 569.389H64.228C64.0182 569.811 62.5178 569.924 62.0338 570.087C62.0338 570.395 60.7109 570.281 60.7109 570.525C60.4689 570.525 58.194 571.076 58.194 571.222C57.7423 571.222 57.0002 571.773 56.5646 571.595C56.4516 571.822 55.0964 572.357 54.8705 572.292C54.7415 572.568 52.3214 573.12 51.8536 573.233C51.8697 573.168 51.8536 573.152 51.789 573.168C51.789 572.601 53.1765 573.055 53.1765 572.357C52.8054 572.357 51.4986 572.536 51.2889 572.925C51.2244 572.941 49.3367 573.866 49.3367 573.687C47.9009 573.687 46.8038 575.001 45.3195 574.822C45.3195 574.871 41.5765 576.152 41.2377 576.152C41.2377 576.266 40.1406 576.558 39.9148 576.59C39.9148 578.601 34.4455 575.844 34.4455 577.531C34.0422 577.531 31.9287 577.758 31.9287 577.207C31.8319 577.207 31.0575 576.704 31.0575 576.898C30.5412 576.898 30.154 576.736 29.4925 576.769C29.2666 576.704 28.4277 576.46 28.4277 576.509C27.8469 576.428 27.3629 576.882 27.0402 576.769C27.0402 576.85 26.0561 575.309 26.2174 575.309C26.0399 574.628 25.3946 573.801 25.3946 573.103C25.0235 572.974 23.5715 572.649 23.5715 572.341C23.4263 572.341 22.3292 570.784 22.2486 570.508C21.7484 570.249 20.8127 569.097 20.8127 568.481C20.4416 568.481 19.9415 566.973 19.6188 566.973C19.6188 566.405 18.7315 566.016 18.7315 565.4C18.1022 565.091 17.2956 564.475 16.8438 563.567C16.7632 563.567 16.1501 562.513 16.1501 562.432C15.7952 560.599 15.4402 558.766 15.0853 556.934C15.0853 556.723 14.8433 556.188 14.6497 556.058C14.6981 555.393 14.5206 554.793 14.1495 554.225C15.0853 553.868 15.7468 554.533 16.4082 554.533C16.4082 554.858 17.9409 555.085 18.2959 555.231C18.2959 555.506 21.5387 554.663 21.8775 554.663C21.8775 554.582 25.1042 553.625 25.5882 553.528C25.5882 553.041 28.6052 552.766 28.6052 552.393C28.9762 552.117 29.6054 551.825 30.0411 551.825C30.0411 551.419 31.5576 551.322 31.7351 551.063C33.2032 551.063 34.4616 549.425 36.0105 549.425C36.1557 549.149 37.1559 548.987 37.5109 548.987C37.5109 548.662 39.3824 547.949 39.6405 548.046C39.6405 547.511 42.4316 547.349 42.722 546.781C42.8833 546.781 44.6096 546.148 44.6096 546.148C44.8355 545.921 46.3682 545.938 46.3682 545.386C46.7231 545.256 49.6271 544.592 49.6271 544.186C50.0305 544.186 52.144 543.554 52.144 543.359C52.6764 543.343 53.5153 542.726 53.7735 542.856C54.9512 542.435 56.1128 542.013 57.2906 541.591C58.0327 541.591 58.4844 541.024 59.3073 541.024C59.3073 540.845 62.3081 539.888 62.6953 539.823C62.6953 539.418 65.5832 539.207 65.5832 538.753C66.9223 538.753 68.1807 537.407 69.6004 537.812C69.665 537.147 71.2622 537.634 71.5526 537.05C72.811 536.92 73.7145 536.288 75.0052 536.288C75.0052 536.272 78.2157 535.477 78.7159 535.396C79.0063 534.844 80.8778 535.007 81.3456 534.763C81.3456 534.098 85.0564 533.985 85.0564 533.498C85.5565 533.677 86.5406 533.06 87.186 533.06C87.186 532.947 88.8316 532.622 89.1381 532.622C89.1381 532.493 91.1226 532.185 91.3968 532.185C92.623 531.325 93.8491 530.482 95.1075 529.655C95.3173 529.946 96.9952 530.319 97.3662 530.417" fill="#E4E9F0"/>
</g>
<defs>
<clipPath id="clip0_303_5012">
<rect width="275.044" height="639" fill="white" transform="translate(0 0.419922)"/>
</clipPath>
</defs>
</svg>
